<svg xmlns="http://www.w3.org/2000/svg" viewBox="5 5 110 110">
    <path
        d="M61.2711 0.749347C28.0071 0.172347 0.579054 27.0684 0.0110537 60.8214C-0.160891 69.8762 1.67505 78.8566 5.38694 87.1174C9.09883 95.3783 14.5945 102.714 21.4791 108.598C22.3526 107.808 23.3108 107.116 24.3361 106.536L42.3101 96.5873C43.473 95.9377 44.4411 94.9888 45.1138 93.839C45.7865 92.6893 46.1395 91.3805 46.1361 90.0483V82.5753C42.6617 78.0422 40.1788 72.8296 38.8481 67.2754C37.993 66.7162 37.2905 65.9531 36.8039 65.0547C36.3174 64.1563 36.0621 63.151 36.0611 62.1293V53.9503C36.0633 53.0963 36.2436 52.2521 36.5904 51.4716C36.9371 50.6911 37.4428 49.9915 38.0751 49.4173V37.5933C38.0751 37.5933 35.6811 19.1933 60.2381 19.1933C84.7951 19.1933 82.4021 37.5933 82.4021 37.5933V49.4173C83.0347 49.9912 83.5406 50.6907 83.8874 51.4713C84.2342 52.2519 84.4143 53.0962 84.4161 53.9503V62.1293C84.4149 63.4316 83.9987 64.6995 83.2277 65.749C82.4568 66.7985 81.3714 67.5749 80.1291 67.9653C78.7639 72.3221 76.7467 76.4469 74.146 80.1993C73.5797 81.0217 72.9719 81.8147 72.3251 82.5753V90.2403C72.3205 91.6172 72.6972 92.9684 73.4135 94.1443C74.1297 95.3202 75.1575 96.2748 76.383 96.9024L95.6301 106.666C96.7654 107.254 97.8263 107.976 98.7901 108.816C105.471 103.157 110.863 96.1325 114.602 88.2151C118.341 80.2977 120.341 71.6713 120.467 62.9163C120.039 29.1583 94.5361 1.32635 61.2711 0.749347Z"
        fill="#DFE2EA" />
</svg>