<svg xmlns="http://www.w3.org/2000/svg">
    <symbol id="icon-hot-fire" fill="none" viewBox="0 0 43 63">
        <path fill="#F9AF38"
            d="M40.66 27.57c-.07-.14-.19-.46-.34-.87-.48-1.35-1.42-1.2-1.42-1.2s.2.31-.12 1.14c-.1.56-3.32 4.74-3.9 3.66a.5.5 0 0 1-.05-.3c.18-1.6.25-3.2.19-4.8a38.13 38.13 0 0 0-7.76-21.5l-.04-.05a30.75 30.75 0 0 0-.84-1.05c-.54-.65-.82-.1-1.4-.7a.33.33 0 0 0-.57.2c-.68 6.16-2.12 8.53-3.68 10.44-1.98 2.12-4.98 4.6-6.21 7.92-.61 1.36-1.65 2.68-1.97 4.02a.33.33 0 0 1-.57.13A11.5 11.5 0 0 1 9.5 18.9c-.12-.72-.57-.16-.56-.76a.22.22 0 0 0-.37-.15C2.22 24.29.25 33.04 1.4 42.23c.1 1.52.32 3.02.63 4.5 1.28 5 4.75 8.86 8.75 11.66 3.6 2.53 7.55 4.27 12.2 3.85 10.24-.76 17.95-8.3 19.4-18.48a33.9 33.9 0 0 0-1.72-16.19Z" />
        <path fill="#F48931"
            d="M22.5 62.27c-9.63.63-18.68-6.2-21.07-15.52C1 45.25.7 43.7.5 42.17c-1.15-9.2 2.11-19.14 8.45-25.44a.22.22 0 0 1 .37.15c0 .68.05 1.34.17 2A31.76 31.76 0 0 0 3 42.16c.2 1.55.5 3.08.92 4.58a20.99 20.99 0 0 0 18.6 15.53Zm-7.99-43.18Z" />
        <path fill="#DF646E"
            d="M33.58 38.73c-.27-.7-.35-.9-.52-1.25a.14.14 0 0 0-.23-.04.14.14 0 0 0-.04.08 6.6 6.6 0 0 1-.34 1.37 7.2 7.2 0 0 1-1.94 2.57.21.21 0 0 1-.24-.07.29.29 0 0 1-.05-.16 24.53 24.53 0 0 0-4.95-17.31l-.02-.03-.05-.07c-.46-.55-.96-1.08-1.49-1.57a.21.21 0 0 0-.36.13c-.45 4.03-1.17 6.16-2.2 7.42-.99 1.22-2 1.56-3.15 3.3a13.63 13.63 0 0 0-1.91 4.33c-.04.17-.71.31-.82.18a6.62 6.62 0 0 1-1.04-1.65c-.2-.47-.37-.95-.48-1.45-.18-.78-.43-.91-.44-1.4a.14.14 0 0 0-.24-.1c-4.42 4.4-5.73 10.74-4.52 17.07 1.67 8.81 8.42 12.24 13.3 12.16.22 0 .49.04.78.02 3.01-.23 9.68-1.78 12.12-10.2 1.05-4.1.82-8.4-.66-12.37a6.01 6.01 0 0 0-.51-.96Z" />
        <path fill="#DC4955"
            d="m16.52 34.85-.43 1.12c.12-.36.26-.74.43-1.12Zm6.19 27.41c-.31.03-.61.02-.84.04A14.29 14.29 0 0 1 7.93 50.28a20.53 20.53 0 0 1 5.35-17.82.14.14 0 0 1 .24.1c0 .66.08 1.31.23 1.95a20.8 20.8 0 0 0-3.58 15.77A14.39 14.39 0 0 0 22.7 62.26Z" />
        <path fill="#DF646E"
            d="M14.77 6a6.43 6.43 0 0 1-2.64 3.99.25.25 0 0 1-.27-.12 6.28 6.28 0 0 1-.96-4.56c.03-.52.11-1.03.26-1.53A9.04 9.04 0 0 1 13.68.75a.25.25 0 0 1 .27.11 8.96 8.96 0 0 1 1.17 3.75A6.3 6.3 0 0 1 14.77 6Z" />
        <path fill="#DC4955"
            d="M15.04 6.03a8.1 8.1 0 0 1-3 4.47.25.25 0 0 1-.27-.12 8.1 8.1 0 0 1-1.09-5.17c.1-.54.29-1.06.54-1.55a8.96 8.96 0 0 0 1.24 3.82.25.25 0 0 0 .3 0 9.08 9.08 0 0 0 2.36-2.87c.03.48 0 .95-.08 1.42Z" />
        <path fill="#DF646E"
            d="M42.28 13.18a5.73 5.73 0 0 1-1.06 4.38.25.25 0 0 1-.28 0 5.54 5.54 0 0 1-2.6-3.45 5.57 5.57 0 0 1-.3-1.04 7.74 7.74 0 0 1 1.22-3.82.25.25 0 0 1 .29 0c.98.66 1.8 1.53 2.41 2.54.18.45.28.92.32 1.39Z" />
        <path fill="#DC4955"
            d="M41.42 17.9a.25.25 0 0 1-.35.08 7.03 7.03 0 0 1-2.94-3.9 4.75 4.75 0 0 1-.1-1.25 8.04 8.04 0 0 0 2.51 2.58.25.25 0 0 0 .26-.11 7.88 7.88 0 0 0 1.16-3.5c.24.42.41.87.52 1.35a7.02 7.02 0 0 1-1.06 4.76ZM25.2 23.82a12.34 12.34 0 0 1-2.36 5.74c-1 1.22-1.91 1.62-3.05 3.36a15.6 15.6 0 0 0-1.4 3.12 2.48 2.48 0 0 1-2.34 1.65h-.62c.42-.2.37-1.2.66-1.72.36-1.07.85-2.1 1.46-3.05 1.14-1.74 2.06-2.14 3.05-3.36 1.02-1.25 2.17-3.43 2.61-7.46a.22.22 0 0 1 .37-.13 22.04 22.04 0 0 1 1.62 1.85Zm8.9 15.88-.05.08a3.49 3.49 0 0 1-3.02 1.7h-.58a.2.2 0 0 0 .13-.06 7.3 7.3 0 0 0 1.7-2.67c.18-.44.32-.9.42-1.37l.05-.25a.14.14 0 0 1 .27-.03 22.13 22.13 0 0 1 1.07 2.6Z" />
        <path fill="#F48931"
            d="M24.12.91c-.68 6.17-2.43 9.49-3.99 11.4-1.97 2.12-4.91 4.56-6.15 7.88-.28.64-.55 1.33-.78 2.02l-.1.32c-.22.67-.4 1.33-.55 1.94a.3.3 0 0 1-.28.24h.87a2.48 2.48 0 0 0 2.38-1.76c.26-.94.58-1.86.95-2.76 1.23-3.32 4.17-5.76 6.15-7.88 1.4-1.73 2.97-4.61 3.76-9.7-.54-.66-1.1-1.28-1.7-1.89a.33.33 0 0 0-.56.2Zm14.57 22.95a15.33 15.33 0 0 1-.92 2.99l-.03.07-.02.03-.16.33-.03.06c-.64 1.24-1.8 3.12-2.4 3.13l-.02.03h.13a4.96 4.96 0 0 0 3.9-1.98c.45-.56.85-1.17 1.19-1.81-.5-1.36-1.3-3.62-1.64-2.85Z" />
    </symbol>
    <symbol id="illustration-email-sent" fill="none" viewBox="0 0 129 122">
        <path fill="#E6F4F0"
            d="M114.21 15.6c-15.78-8.87-32.73 9.02-47.95-.75-6.75-4.8-10.03-9.63-17.64-13.04C30.13-2 16.57 11.04 13.68 24.29c-2.64 9.87 6.36 16.75 13.45 30.35.11.22.2.44.28.67 3.29 9.77.85 13.83-7.46 14.16-13.4.38-22.38 10.01-17.96 22.86 9.74 18.53 31.1 27.96 53.02 28.72 26.81.91 51.5-13.98 62.45-37.39l.1-.22c7.25-19 21.26-56.02-3.35-67.85Z" />
        <path fill="#E6F4F0"
            d="M23.18 62.57c1.34-2.67 0-6.04-2.97-7.53-2.97-1.49-6.47-.53-7.8 2.14-1.34 2.67 0 6.04 2.97 7.53 2.97 1.48 6.47.53 7.8-2.14ZM80.8 12.24c1.18-2.36-1.02-5.86-4.91-7.8-3.9-1.95-8-1.61-9.19.75-1.18 2.36 1.02 5.85 4.92 7.8 3.89 1.94 8 1.6 9.18-.75Z" />
        <path fill="#A6CEB0"
            d="M105.47 55.08v42.41a8.56 8.56 0 0 1-8.58 8.58H32.11a8.59 8.59 0 0 1-8.58-8.58V55.08a8.58 8.58 0 0 1 8.58-8.58h64.78a8.58 8.58 0 0 1 8.58 8.58Z" />
        <path fill="#A6CEB0"
            d="M100.88 44C96.24 38.35 64.5 16.17 64.5 16.17S32.77 38.34 28.12 44c-4.65 5.66-4.6 8.28-4.6 11.33h81.95c0-3.05.06-5.67-4.59-11.33Z" />
        <path fill="#D9D9D9" d="M96.9 28.13H32.1v74.9h64.8v-74.9Z"
            style="mix-blend-mode:multiply" />
        <path fill="#fff" d="M94.93 26.74H34.07v74.9h60.86v-74.9Z" />
        <path fill="#3DAD57"
            d="M23.53 57.08v40.4c0 1.83.57 3.6 1.64 5.06l29.54-25.2-31.18-20.26ZM74.3 77.33l29.53 25.21a8.55 8.55 0 0 0 1.64-5.05v-40.4L74.3 77.32Z" />
        <path fill="#3DAD57"
            d="M23.53 97.49v-.12l30.31-21.09 10.66-7.4 10.65 7.4 30.32 21.09v.12a8.56 8.56 0 0 1-8.58 8.58H32.1a8.59 8.59 0 0 1-8.58-8.58Z" />
        <path fill="#D9D9D9"
            d="M53.48 76.53 23.53 97.37V95.8l29.95-19.28Zm22.04 0 29.95 20.83v-1.55L75.52 76.53Z"
            style="mix-blend-mode:multiply" />
        <path fill="#32B137"
            d="M73.74 58.04a13.06 13.06 0 1 0-18.47-18.47 13.06 13.06 0 0 0 18.47 18.47Z" />
        <path fill="#fff"
            d="M61.87 55.55a.75.75 0 0 1-.53-.22l-5.19-5.2a.75.75 0 0 1 0-1.06l1.53-1.53a.75.75 0 0 1 1.07 0l3.12 3.13 8.38-8.38a.75.75 0 0 1 1.07 0l1.53 1.53a.75.75 0 0 1 0 1.07L62.4 55.33a.74.74 0 0 1-.54.22Z" />
    </symbol>
    <symbol id="illustration-done" fill="none" viewBox="0 0 89 89">
        <path stroke="#0D9677" stroke-linecap="round" stroke-linejoin="round" stroke-width="2"
            d="m60.5 33.5-21.31 20-9.69-9.1" />
        <rect width="86" height="86" x="1.5" y="1.5" stroke="#0D9677" stroke-width="2" rx="43" />
    </symbol>
    <symbol id="default-avatar" viewBox="0 0 120 120">
        <path
            d="M61.2711 0.749347C28.0071 0.172347 0.579054 27.0684 0.0110537 60.8214C-0.160891 69.8762 1.67505 78.8566 5.38694 87.1174C9.09883 95.3783 14.5945 102.714 21.4791 108.598C22.3526 107.808 23.3108 107.116 24.3361 106.536L42.3101 96.5873C43.473 95.9377 44.4411 94.9888 45.1138 93.839C45.7865 92.6893 46.1395 91.3805 46.1361 90.0483V82.5753C42.6617 78.0422 40.1788 72.8296 38.8481 67.2754C37.993 66.7162 37.2905 65.9531 36.8039 65.0547C36.3174 64.1563 36.0621 63.151 36.0611 62.1293V53.9503C36.0633 53.0963 36.2436 52.2521 36.5904 51.4716C36.9371 50.6911 37.4428 49.9915 38.0751 49.4173V37.5933C38.0751 37.5933 35.6811 19.1933 60.2381 19.1933C84.7951 19.1933 82.4021 37.5933 82.4021 37.5933V49.4173C83.0347 49.9912 83.5406 50.6907 83.8874 51.4713C84.2342 52.2519 84.4143 53.0962 84.4161 53.9503V62.1293C84.4149 63.4316 83.9987 64.6995 83.2277 65.749C82.4568 66.7985 81.3714 67.5749 80.1291 67.9653C78.7639 72.3221 76.7467 76.4469 74.146 80.1993C73.5797 81.0217 72.9719 81.8147 72.3251 82.5753V90.2403C72.3205 91.6172 72.6972 92.9684 73.4135 94.1443C74.1297 95.3202 75.1575 96.2748 76.383 96.9024L95.6301 106.666C96.7654 107.254 97.8263 107.976 98.7901 108.816C105.471 103.157 110.863 96.1325 114.602 88.2151C118.341 80.2977 120.341 71.6713 120.467 62.9163C120.039 29.1583 94.5361 1.32635 61.2711 0.749347Z"
            fill="currentColor" />
    </symbol>
    <symbol id="icon-unsafe" viewBox="0 0 14 14">
        <path fill="currentColor"
            d="m8.4355 1.90993.29199-.657c.02095-.04708.03242-.09782.03376-.14933.00133-.05151-.0075-.10278-.02597-.150884C8.7168.904615 8.68903.860625 8.65355.823258 8.61807.78589 8.57558.755876 8.5285.73493 8.48142.713985 8.43068.702517 8.37917.701182c-.05152-.001336-.10278.007488-.15088.025967-.0481.018479-.09209.046251-.12946.081731-.03737.035479-.06739.077972-.08833.12505l-.42.944h-1.582l-.42-.944C5.5462.83885 5.46786.764469 5.37071.727149c-.09714-.03732-.20513-.034521-.30021.007782-.09508.042302-.16946.120641-.20678.217785-.03732.097144-.03452.205134.00779.300214l.29199.657c-.38653.07601-.73466.28389-.98491.58813-.25025.30423-.38707.68594-.38709 1.07987v.654h6.016v-.654c-.00002-.39393-.13684-.77564-.38709-1.07987-.25025-.30424-.59838-.51212-.98491-.58813Z" />
        <path fill="currentColor"
            d="M13.2085 7.63098h-2.354v-.816c.5832-.09423 1.1139-.39282 1.4971-.8424.3833-.44958.5942-1.02083.5949-1.6116v-.523c0-.1041-.0414-.20393-.115-.27754-.0736-.07361-.1734-.11496-.2775-.11496-.1041 0-.2039.04135-.2775.11496-.0736.07361-.115.17344-.115.27754v.523c0 .38268-.1292.75415-.3666 1.05431-.2373.30016-.569.51145-.9414.59969v-.346c-.0003-.17337-.0693-.33956-.1918-.46215-.1226-.1226-.2888-.19158-.4622-.19185h-3.006v4.577c0 .1041-.04135.20393-.11496.27754-.07361.07361-.17344.11496-.27754.11496s-.20393-.04135-.27754-.11496c-.07361-.07361-.11496-.17344-.11496-.27754v-4.577h-3.01c-.17337.00027-.33956.06925-.46216.19185-.12259.12259-.19158.28878-.19184.46215v.346c-.37214-.0889-.70341-.30074-.94023-.60125-.23682-.30052-.36534-.67213-.36477-1.05474v-.52301c0-.10409-.04135-.20393-.11496-.27754-.07361-.07361-.17344-.11496-.27754-.11496-.104098 0-.203931.04135-.277539.11496-.073608.07361-.114961.17345-.114961.27754v.52301c.000744.59077.211597 1.162.59486 1.61158.38326.44958.91393.74818 1.49714.84241v.816H.3925c-.104098 0-.203931.04135-.277539.11496C.0413526 7.81755 0 7.91739 0 8.02148c0 .1041.0413526.20393.114961.27754.073608.07361.173441.11497.277539.11497h2.354v.81599c-.58321.09423-1.11388.39283-1.49714.84242-.383263.4496-.594116 1.0208-.59486 1.6116v.523c0 .1041.041353.2039.114961.2775.073608.0736.173441.115.277539.115.1041 0 .20393-.0414.27754-.115.07361-.0736.11496-.1734.11496-.2775v-.523c.00004-.3827.1292-.7542.36657-1.0543.23737-.3002.56907-.5115.94143-.5997v.215c0 1.0752.42712 2.1063 1.18739 2.8666S5.72631 14.299 6.8015 14.299s2.10634-.4271 2.86661-1.1874c.76029-.7603 1.18739-1.7914 1.18739-2.8666v-.215c.3724.0882.7041.2995.9414.5997.2374.3001.3666.6716.3666 1.0543v.523c0 .1041.0414.2039.115.2775.0736.0736.1734.115.2775.115.1041 0 .2039-.0414.2775-.115.0736-.0736.115-.1734.115-.2775v-.523c-.0007-.5908-.2116-1.162-.5949-1.6116-.3832-.44959-.9139-.74819-1.4971-.84242v-.81599h2.352c.1041 0 .2039-.04136.2775-.11497.0736-.07361.115-.17344.115-.27754 0-.10409-.0414-.20393-.115-.27754-.0736-.07361-.1734-.11496-.2775-.11496v.002Z" />
    </symbol>
    <symbol id="icon-safe" viewBox="0 0 17 17">
        <path fill="currentColor"
            d="M8.50001.100098C3.86111.100098.100006 3.8612.100006 8.5001c0 4.6389 3.761104 8.4 8.400004 8.4 4.63889 0 8.39999-3.7611 8.39999-8.4 0-4.6389-3.7611-8.400002-8.39999-8.400002ZM13.1949 6.895l-5.29199 5.292c-.1316.1316-.3094.2051-.4949.2051s-.364-.0735-.4949-.2051l-2.4171-2.4171c-.2737-.2737-.2737-.7161 0-.9898.2737-.2737.7161-.2737.9898 0l1.9222 1.9222 4.79709-4.7971c.2737-.2737.7161-.2737.9898 0 .2737.2737.2737.7161 0 .9898Z" />
    </symbol>
    <symbol id="icon-danger" viewBox="0 0 22 22">
        <path fill="none" stroke="currentColor" stroke-linecap="round" stroke-linejoin="round"
            stroke-width="2"
            d="M18.364 18.364A9 9 0 005.636 5.636m12.728 12.728A9 9 0 015.636 5.636m12.728 12.728L5.636 5.636" />
    </symbol>
    <symbol id="icon-link" viewBox="0 0 18 18">
        <path fill="currentColor" stroke="currentColor" stroke-width=".3"
            d="M7.67341 8.12161c.10529-.10529.16444-.2481.16444-.397 0-.1489-.05915-.29171-.16444-.397s-.2481-.16444-.397-.16444c-.1489 0-.29171.05915-.397.16444l-2.97 2.96999c-.48402.5-.75211 1.1702-.74647 1.8661.00565.6959.2846 1.3616.77667 1.8537.49207.4921 1.15784.771 1.85372.7767.69587.0056 1.36608-.2625 1.86608-.7465l6.70699-6.70699c.6933-.69513 1.082-1.6372 1.0807-2.61895-.0013-.98175-.3926-1.92277-1.0877-2.61605-.6951-.69328-1.6372-1.08202-2.6189-1.0807-.9818.00131-1.92281.39257-2.61609 1.0877l-6.689 6.693c-.45091.44021-.80996.96554-1.05634 1.54559-.24639.58-.3752 1.2031-.37898 1.8332-.003786.6302.11754 1.2548.35695 1.8377.2394.583.59212 1.1126 1.03772 1.5582.44559.4456.97519.7983 1.55811 1.0377.58292.2394 1.20755.3607 1.83771.3569.63015-.0037 1.25328-.1326 1.83328-.3789.58-.2464 1.10534-.6055 1.54555-1.0564l2.96599-2.965c.1053-.1053.1645-.2481.1645-.397 0-.1489-.0592-.2917-.1645-.397s-.2481-.1644-.397-.1644c-.1489 0-.2917.0591-.397.1644l-2.96999 2.97c-.3365.3441-.73793.6181-1.18104.806-.44311.1879-.9191.2861-1.40041.2888-.4813.0027-.95836-.0901-1.40355-.2731-.44518-.1829-.84966-.4524-1.19-.7927-.34034-.3403-.60978-.7448-.79272-1.19-.18295-.4452-.27576-.9222-.27306-1.4035.0027-.4813.10085-.9573.28877-1.4004.18792-.4432.46188-.84459.80601-1.18109l6.693-6.693c.23819-.24009.52179-.43034.83419-.55962.3125-.12929.6476-.19503.9858-.19338.6824.00044 1.3368.27119 1.82.753.2401.23815.4303.52175.5596.83423.1293.31249.1951.6476.1934.98577-.0004.68237-.2712 1.33678-.753 1.82L6.85141 13.2586c-.28881.2831-.67709.4417-1.0815.4417-.40441 0-.79269-.1586-1.0815-.4417-.14316-.1414-.25683-.3098-.33441-.4954-.07758-.1857-.11753-.3849-.11753-.5861 0-.2012.03995-.4004.11753-.5861.07758-.1856.19125-.354.33441-.4954l2.984-2.96999.001-.004Z" />
    </symbol>
    <symbol id="icon-eye" viewBox="0 0 20 20" fill="none" stroke="currentColor">
        <path
            d="M1.3 10S4.45 3.67 10 3.67c5.54 0 8.7 6.33 8.7 6.33s-3.16 6.33-8.7 6.33C4.46 16.33 1.3 10 1.3 10Z" />
        <path d="M10 12.38a2.37 2.37 0 1 0 0-4.75 2.37 2.37 0 0 0 0 4.75Z" />
    </symbol>
    <symbol id="icon-arrow-down" viewBox="0 0 15 8">
        <path d="M1.76501 1.05444L7.65601 6.94544L13.5471 1.05444" stroke="currentColor" fill="none"
            stroke-width="2" stroke-linecap="round" stroke-linejoin="round" />
    </symbol>
    <symbol id="icon-loading" viewBox="0 0 24 24">
        <path fill="currentColor" stroke="none"
            d="M18.364 5.636L16.95 7.05A7 7 0 1 0 19 12h2a9 9 0 1 1-2.636-6.364z" />
    </symbol>
    <symbol id="icon-cloud" fill="none" stroke="currentColor" stroke-linecap="round"
        stroke-linejoin="round"
        stroke-width="2"
        viewBox="0 0 32 27">
        <path d="M21.17 18.67 16 13.5l-5.17 5.17M16 13.5v11.63" />
        <path d="M26.84 21.75a6.46 6.46 0 0 0-3.09-12.13h-1.63a10.33 10.33 0 1 0-17.75 9.43" />
        <path d="M21.17 18.67 16 13.5l-5.17 5.17" />
    </symbol>
    <symbol id="icon-download" fill="none" viewBox="0 0 20 19">
        <path fill="currentColor" stroke="currentColor" stroke-width=".5"
            d="M15.56 10.36 10 15.53l-5.56-5.17 1.02-.95 3.82 3.54V1h1.44v11.96l3.82-3.55 1.02.95Zm3.7 6.5H.74v1.34h18.5v-1.34Z" />
    </symbol>
    <symbol id="icon-rescan" fill="none" viewBox="0 0 16 19">
        <path fill="currentColor" stroke="currentColor" stroke-width=".3"
            d="M13.09 5.74A7.14 7.14 0 0 0 8 3.64H6.95l1.69-1.7L7.7 1 4.4 4.3l3.25 3.3.95-.93-1.68-1.7H8a5.86 5.86 0 1 1-5.86 5.86v-.67H.81v.67a7.2 7.2 0 1 0 12.28-5.09Z" />
    </symbol>
    <symbol id="icon-like" fill="none" viewBox="0 0 17 16">
        <path fill="currentColor" stroke="currentColor" stroke-width=".6"
            d="M8.5 15.2a.95.95 0 0 1-.62-.23l-1.84-1.59A34.23 34.23 0 0 1 2 9.61 6.03 6.03 0 0 1 .4 5.67 5.06 5.06 0 0 1 1.68 2.2 4.35 4.35 0 0 1 4.93.8c.92 0 1.82.3 2.54.88.4.3.74.67 1.03 1.07.3-.4.64-.76 1.03-1.07A4.07 4.07 0 0 1 12.07.8a4.35 4.35 0 0 1 3.24 1.41 5.1 5.1 0 0 1 1.29 3.46 6.03 6.03 0 0 1-1.61 3.94 34.23 34.23 0 0 1-4.02 3.77l-1.84 1.59a.95.95 0 0 1-.63.23ZM4.93 1.75a3.42 3.42 0 0 0-2.54 1.1 4.12 4.12 0 0 0-1.04 2.82A5.07 5.07 0 0 0 2.75 9c1.2 1.32 2.5 2.54 3.9 3.65l1.84 1.6 1.86-1.6A33.7 33.7 0 0 0 14.25 9a5.05 5.05 0 0 0 1.38-3.34 4.12 4.12 0 0 0-1.03-2.8 3.42 3.42 0 0 0-2.54-1.1 3.1 3.1 0 0 0-1.96.67c-.44.35-.8.78-1.09 1.27A.6.6 0 0 1 8 3.7a4.6 4.6 0 0 0-1.1-1.27 3.14 3.14 0 0 0-1.96-.68Z" />
    </symbol>
    <symbol id="icon-twitter" fill="none" viewBox="0 0 19 18">
        <path fill="currentColor" stroke="currentColor" stroke-width=".4"
            d="M18.5 1.73a.47.47 0 0 0-.06-.23.44.44 0 0 0-.16-.16.41.41 0 0 0-.43 0 6.6 6.6 0 0 1-1.94.83 3.89 3.89 0 0 0-5.64.08A4.4 4.4 0 0 0 9.1 5.64a9.75 9.75 0 0 1-6.61-3.78.43.43 0 0 0-.17-.13.4.4 0 0 0-.39.04.5.5 0 0 0-.14.15 4.5 4.5 0 0 0 .1 4.48l-.05-.03a.41.41 0 0 0-.42.03.48.48 0 0 0-.16.17.51.51 0 0 0-.06.24 4.4 4.4 0 0 0 1.58 3.37.42.42 0 0 0-.2.14.46.46 0 0 0-.09.43c.2.65.55 1.24 1 1.72a4 4 0 0 0 1.65 1.04 6.56 6.56 0 0 1-4.16.87.41.41 0 0 0-.28.07.45.45 0 0 0-.17.23c-.04.1-.04.2 0 .3.02.1.09.18.17.23A10.27 10.27 0 0 0 6.47 17c2.33.03 4.6-.76 6.45-2.23a11.14 11.14 0 0 0 3.82-5.9c.3-1.03.44-2.1.44-3.16v-.34a4.89 4.89 0 0 0 1.31-3.64Zm-2.08 3.19a.5.5 0 0 0-.1.32v.46c0 .99-.13 1.97-.4 2.91a10.13 10.13 0 0 1-3.5 5.46 9.25 9.25 0 0 1-5.95 2.03c-1.3 0-2.6-.28-3.8-.82a7.4 7.4 0 0 0 3.87-1.67.45.45 0 0 0 .15-.23.47.47 0 0 0 0-.27.45.45 0 0 0-.16-.22.41.41 0 0 0-.24-.09c-.55 0-1.09-.17-1.56-.46-.48-.3-.87-.71-1.14-1.21.36 0 .72-.05 1.07-.16.1-.02.17-.08.23-.17a.47.47 0 0 0-.02-.55.42.42 0 0 0-.24-.15A3.13 3.13 0 0 1 3 9.18a3.4 3.4 0 0 1-.87-1.7c.36.12.74.2 1.12.2.1.01.19-.02.27-.07a.43.43 0 0 0 .15-.24c.03-.1.03-.2 0-.29a.45.45 0 0 0-.17-.22 3.3 3.3 0 0 1-1.04-1.21 3.49 3.49 0 0 1-.2-2.68A10.5 10.5 0 0 0 9.6 6.6c.06 0 .13 0 .2-.04a.39.39 0 0 0 .15-.13.46.46 0 0 0 .08-.39 3.46 3.46 0 0 1 .85-3.14 3.12 3.12 0 0 1 3.53-.71 3 3 0 0 1 1.05.79c.05.05.12.1.19.12a.4.4 0 0 0 .2.01c.62-.13 1.2-.33 1.77-.6a4.53 4.53 0 0 1-1.2 2.42Z" />
    </symbol>
    <symbol id="icon-tmp" fill="none" viewBox="0 0 55 60">
        <circle cx="27.5" cy="27.5" r="26.9" fill="#F4F3E3" stroke="#9F9C62" stroke-width="1.2" />
        <rect width="29.8" height="18.8" x="12.6" y="15.6" fill="#fff" stroke="#9F9C62"
            stroke-width="1.2" rx="9.4" />
        <path stroke="#9F9C62" stroke-linecap="round" stroke-width="1.2" d="M32.4 29.24h-4.8" />
        <path stroke="#9F9C62" stroke-linecap="round" stroke-linejoin="round" stroke-width="1.2"
            d="m24.75 27.39 4-3.18-4-3.19" />
        <rect width="39.8" height="15.8" x="7.6" y="43.6" fill="#fff" rx="7.9" />
        <path fill="#9F9C62"
            d="M25.05 49.65c-.12-.16-.3-.28-.52-.35a1.6 1.6 0 0 0-.96-.08 1.4 1.4 0 0 0-.34.13.7.7 0 0 0-.25.22c-.07.1-.1.2-.1.34 0 .21.07.38.23.49.16.11.37.21.6.29l.8.24c.27.08.54.2.77.34.25.15.45.34.61.59.16.25.25.58.25.99a2.2 2.2 0 0 1-1.69 2.19 3.8 3.8 0 0 1-2.32-.07 3.2 3.2 0 0 1-1.1-.68l1.1-1.22a1.68 1.68 0 0 0 1.75.63c.13-.03.25-.08.35-.14a.7.7 0 0 0 .25-.23c.06-.1.1-.2.1-.33a.58.58 0 0 0-.25-.5 2.1 2.1 0 0 0-.61-.32 19.1 19.1 0 0 0-.8-.26 3.6 3.6 0 0 1-.8-.35 1.98 1.98 0 0 1-.63-.58 1.69 1.69 0 0 1-.23-.95c0-.38.07-.71.21-1a2.25 2.25 0 0 1 1.48-1.15 3.97 3.97 0 0 1 2.17.02c.37.11.7.3 1 .57l-1.07 1.17Zm2.25-1.73h1.56v2.64h3.03v-2.64h1.56V55h-1.56v-3.06h-3.03V55H27.3v-7.08Z" />
        <rect width="39.8" height="15.8" x="7.6" y="43.6" stroke="#9F9C62" stroke-width="1.2"
            rx="7.9" />
    </symbol>
    <symbol id="icon-alert" fill="none" viewBox="0 0 18 18">
        <path fill="currentColor"
            d="M7.72 2.9 1.37 13.5a1.5 1.5 0 0 0 1.28 2.25h12.7a1.5 1.5 0 0 0 1.29-2.25L10.28 2.9a1.5 1.5 0 0 0-2.56 0Z" />
        <path stroke="#fff" stroke-linecap="round" stroke-linejoin="round" stroke-width="1.3"
            d="M9 6.75v3m0 3h0" />
    </symbol>
    <symbol id="icon-check" fill="none" viewBox="0 0 18 18">
        <rect width="18" height="18" fill="currentColor" rx="9" />
        <path stroke="#fff" stroke-linecap="round" stroke-linejoin="round" stroke-width="1.2"
            d="m12 7-4.13 4L6 9.18" />
    </symbol>
    <symbol id="icon-calendar" fill="none" viewBox="0 0 15 15">
        <path stroke="currentColor" stroke-linecap="round" stroke-linejoin="round"
            d="M11.88 2.5H3.12c-.69 0-1.25.56-1.25 1.25v8.75c0 .69.56 1.25 1.25 1.25h8.75c.7 0 1.26-.56 1.26-1.25V3.75c0-.69-.56-1.25-1.26-1.25ZM10 1.25v2.5m-5-2.5v2.5m-3.12 2.5h11.25" />
    </symbol>
    <symbol
        id="icon-search"
        fill="none"
        viewBox="0 0 18 18"
    >
        <path
            fill="currentColor"
            stroke="currentColor"
            stroke-width=".7"
            d="m16.65 16.18-3.89-3.88a6.82 6.82 0 1 0-.68.67l3.89 3.89a.48.48 0 0 0 .52.1.48.48 0 0 0 .15-.78ZM1.75 7.83a5.86 5.86 0 1 1 11.72 0 5.86 5.86 0 0 1-11.72 0Z"
        />
    </symbol>
    <symbol id="icon-cerificate-valid" fill="none" viewBox="0 0 20 20">
        <g stroke="#56AC30" stroke-linecap="round" stroke-linejoin="round" stroke-width="1.5"
            clip-path="url(#a)">
            <path d="M10 18.33a8.33 8.33 0 1 0 0-16.66 8.33 8.33 0 0 0 0 16.66Z" />
            <path d="M13.89 7.78 9.3 12.22 7.22 10.2" />
        </g>
        <defs>
            <clipPath id="a">
                <path fill="#fff" d="M0 0h20v20H0z" />
            </clipPath>
        </defs>
    </symbol>
    <symbol id="icon-cerificate-invalid" fill="none" viewBox="0 0 21 20">
        <path stroke="#E63755" stroke-linecap="round" stroke-linejoin="round" stroke-width="1.5"
            d="M10.5 18.33a8.33 8.33 0 1 0 0-16.66 8.33 8.33 0 0 0 0 16.66ZM13 7.5l-5 5m0-5 5 5" />
    </symbol>
    <symbol id="icon-cerificate-signed" fill="none" viewBox="0 0 20 20">
        <path stroke="#F08039" stroke-linecap="round" stroke-linejoin="round" stroke-width="1.5"
            d="M10 18a8.5 8.5 0 1 0 0-17 8.5 8.5 0 0 0 0 17Zm0-12.33v4.96m0 2.7h0" />
    </symbol>
    <symbol id="icon-close" fill="none" viewBox="0 0 24 24" stroke-width="1.5"
        stroke="currentColor">
        <path stroke-linecap="round" stroke-linejoin="round" d="M6 18L18 6M6 6l12 12" />
    </symbol>
    <symbol id="icon-user" fill="none" viewBox="0 0 21 21">
        <path stroke="currentColor" stroke-linecap="round" stroke-linejoin="round"
            stroke-width="1.2"
            d="M17.5 18.375v-1.75a3.5 3.5 0 0 0-3.5-3.5H7a3.5 3.5 0 0 0-3.5 3.5v1.75m7-8.75a3.5 3.5 0 1 0 0-7 3.5 3.5 0 0 0 0 7Z" />
    </symbol>
    <symbol id="icon-cog" fill="none" viewBox="0 0 21 21">
        <g stroke="currentColor" stroke-linecap="round" stroke-linejoin="round" stroke-width="1.2"
            clip-path="url(#a)">
            <path d="M10.5 13.125a2.625 2.625 0 1 0 0-5.25 2.625 2.625 0 0 0 0 5.25Z" />
            <path
                d="M16.975 13.125a1.444 1.444 0 0 0 .289 1.592l.052.053a1.75 1.75 0 0 1-1.908 2.856 1.748 1.748 0 0 1-.568-.38l-.053-.052a1.444 1.444 0 0 0-1.592-.289 1.444 1.444 0 0 0-.875 1.321v.149a1.75 1.75 0 0 1-3.5 0v-.079a1.444 1.444 0 0 0-.945-1.321 1.444 1.444 0 0 0-1.593.289l-.052.052a1.75 1.75 0 1 1-2.476-2.476l.052-.053a1.443 1.443 0 0 0 .289-1.592 1.444 1.444 0 0 0-1.321-.875h-.149a1.75 1.75 0 0 1 0-3.5h.079a1.444 1.444 0 0 0 1.321-.945 1.444 1.444 0 0 0-.289-1.593l-.052-.052A1.75 1.75 0 1 1 6.16 3.754l.053.052a1.444 1.444 0 0 0 1.592.289h.07a1.444 1.444 0 0 0 .875-1.321v-.149a1.75 1.75 0 1 1 3.5 0v.079a1.444 1.444 0 0 0 .875 1.321 1.444 1.444 0 0 0 1.592-.289l.053-.052a1.75 1.75 0 0 1 2.856.568 1.75 1.75 0 0 1-.38 1.908l-.052.053a1.444 1.444 0 0 0-.289 1.592v.07a1.444 1.444 0 0 0 1.321.875h.149a1.75 1.75 0 0 1 0 3.5h-.079a1.444 1.444 0 0 0-1.321.875v0Z" />
        </g>
        <defs>
            <clipPath id="a">
                <path fill="#fff" d="M0 0h21v21H0z" />
            </clipPath>
        </defs>
    </symbol>
    <symbol id="icon-logout" fill="none" viewBox="0 0 21 21">
        <path stroke="#959595" stroke-linecap="round" stroke-linejoin="round" stroke-width="1.2"
            d="M7.875 18.375h-3.5a1.75 1.75 0 0 1-1.75-1.75V4.375a1.75 1.75 0 0 1 1.75-1.75h3.5M14 14.875l4.375-4.375L14 6.125m4.375 4.375h-10.5" />
    </symbol>
    <symbol id="icon-delete-alert" fill="none" viewBox="0 0 54 46">
        <path stroke="#EF870C" stroke-linecap="round" stroke-linejoin="round" stroke-width="2"
            d="M22.867 3.329 2.397 37.5a4.834 4.834 0 0 0 4.133 7.25h40.938a4.834 4.834 0 0 0 4.133-7.25L31.131 3.33a4.833 4.833 0 0 0-8.264 0v0ZM27 16v13m0 6.084h.024" />
    </symbol>
</svg>