<svg xmlns="http://www.w3.org/2000/svg">
    <symbol id="icon-hot-fire" fill="none" viewBox="0 0 43 63">
        <path fill="#F9AF38"
            d="M40.66 27.57c-.07-.14-.19-.46-.34-.87-.48-1.35-1.42-1.2-1.42-1.2s.2.31-.12 1.14c-.1.56-3.32 4.74-3.9 3.66a.5.5 0 0 1-.05-.3c.18-1.6.25-3.2.19-4.8a38.13 38.13 0 0 0-7.76-21.5l-.04-.05a30.75 30.75 0 0 0-.84-1.05c-.54-.65-.82-.1-1.4-.7a.33.33 0 0 0-.57.2c-.68 6.16-2.12 8.53-3.68 10.44-1.98 2.12-4.98 4.6-6.21 7.92-.61 1.36-1.65 2.68-1.97 4.02a.33.33 0 0 1-.57.13A11.5 11.5 0 0 1 9.5 18.9c-.12-.72-.57-.16-.56-.76a.22.22 0 0 0-.37-.15C2.22 24.29.25 33.04 1.4 42.23c.1 1.52.32 3.02.63 4.5 1.28 5 4.75 8.86 8.75 11.66 3.6 2.53 7.55 4.27 12.2 3.85 10.24-.76 17.95-8.3 19.4-18.48a33.9 33.9 0 0 0-1.72-16.19Z" />
        <path fill="#F48931"
            d="M22.5 62.27c-9.63.63-18.68-6.2-21.07-15.52C1 45.25.7 43.7.5 42.17c-1.15-9.2 2.11-19.14 8.45-25.44a.22.22 0 0 1 .37.15c0 .68.05 1.34.17 2A31.76 31.76 0 0 0 3 42.16c.2 1.55.5 3.08.92 4.58a20.99 20.99 0 0 0 18.6 15.53Zm-7.99-43.18Z" />
        <path fill="#DF646E"
            d="M33.58 38.73c-.27-.7-.35-.9-.52-1.25a.14.14 0 0 0-.23-.04.14.14 0 0 0-.04.08 6.6 6.6 0 0 1-.34 1.37 7.2 7.2 0 0 1-1.94 2.57.21.21 0 0 1-.24-.07.29.29 0 0 1-.05-.16 24.53 24.53 0 0 0-4.95-17.31l-.02-.03-.05-.07c-.46-.55-.96-1.08-1.49-1.57a.21.21 0 0 0-.36.13c-.45 4.03-1.17 6.16-2.2 7.42-.99 1.22-2 1.56-3.15 3.3a13.63 13.63 0 0 0-1.91 4.33c-.04.17-.71.31-.82.18a6.62 6.62 0 0 1-1.04-1.65c-.2-.47-.37-.95-.48-1.45-.18-.78-.43-.91-.44-1.4a.14.14 0 0 0-.24-.1c-4.42 4.4-5.73 10.74-4.52 17.07 1.67 8.81 8.42 12.24 13.3 12.16.22 0 .49.04.78.02 3.01-.23 9.68-1.78 12.12-10.2 1.05-4.1.82-8.4-.66-12.37a6.01 6.01 0 0 0-.51-.96Z" />
        <path fill="#DC4955"
            d="m16.52 34.85-.43 1.12c.12-.36.26-.74.43-1.12Zm6.19 27.41c-.31.03-.61.02-.84.04A14.29 14.29 0 0 1 7.93 50.28a20.53 20.53 0 0 1 5.35-17.82.14.14 0 0 1 .24.1c0 .66.08 1.31.23 1.95a20.8 20.8 0 0 0-3.58 15.77A14.39 14.39 0 0 0 22.7 62.26Z" />
        <path fill="#DF646E"
            d="M14.77 6a6.43 6.43 0 0 1-2.64 3.99.25.25 0 0 1-.27-.12 6.28 6.28 0 0 1-.96-4.56c.03-.52.11-1.03.26-1.53A9.04 9.04 0 0 1 13.68.75a.25.25 0 0 1 .27.11 8.96 8.96 0 0 1 1.17 3.75A6.3 6.3 0 0 1 14.77 6Z" />
        <path fill="#DC4955"
            d="M15.04 6.03a8.1 8.1 0 0 1-3 4.47.25.25 0 0 1-.27-.12 8.1 8.1 0 0 1-1.09-5.17c.1-.54.29-1.06.54-1.55a8.96 8.96 0 0 0 1.24 3.82.25.25 0 0 0 .3 0 9.08 9.08 0 0 0 2.36-2.87c.03.48 0 .95-.08 1.42Z" />
        <path fill="#DF646E"
            d="M42.28 13.18a5.73 5.73 0 0 1-1.06 4.38.25.25 0 0 1-.28 0 5.54 5.54 0 0 1-2.6-3.45 5.57 5.57 0 0 1-.3-1.04 7.74 7.74 0 0 1 1.22-3.82.25.25 0 0 1 .29 0c.98.66 1.8 1.53 2.41 2.54.18.45.28.92.32 1.39Z" />
        <path fill="#DC4955"
            d="M41.42 17.9a.25.25 0 0 1-.35.08 7.03 7.03 0 0 1-2.94-3.9 4.75 4.75 0 0 1-.1-1.25 8.04 8.04 0 0 0 2.51 2.58.25.25 0 0 0 .26-.11 7.88 7.88 0 0 0 1.16-3.5c.24.42.41.87.52 1.35a7.02 7.02 0 0 1-1.06 4.76ZM25.2 23.82a12.34 12.34 0 0 1-2.36 5.74c-1 1.22-1.91 1.62-3.05 3.36a15.6 15.6 0 0 0-1.4 3.12 2.48 2.48 0 0 1-2.34 1.65h-.62c.42-.2.37-1.2.66-1.72.36-1.07.85-2.1 1.46-3.05 1.14-1.74 2.06-2.14 3.05-3.36 1.02-1.25 2.17-3.43 2.61-7.46a.22.22 0 0 1 .37-.13 22.04 22.04 0 0 1 1.62 1.85Zm8.9 15.88-.05.08a3.49 3.49 0 0 1-3.02 1.7h-.58a.2.2 0 0 0 .13-.06 7.3 7.3 0 0 0 1.7-2.67c.18-.44.32-.9.42-1.37l.05-.25a.14.14 0 0 1 .27-.03 22.13 22.13 0 0 1 1.07 2.6Z" />
        <path fill="#F48931"
            d="M24.12.91c-.68 6.17-2.43 9.49-3.99 11.4-1.97 2.12-4.91 4.56-6.15 7.88-.28.64-.55 1.33-.78 2.02l-.1.32c-.22.67-.4 1.33-.55 1.94a.3.3 0 0 1-.28.24h.87a2.48 2.48 0 0 0 2.38-1.76c.26-.94.58-1.86.95-2.76 1.23-3.32 4.17-5.76 6.15-7.88 1.4-1.73 2.97-4.61 3.76-9.7-.54-.66-1.1-1.28-1.7-1.89a.33.33 0 0 0-.56.2Zm14.57 22.95a15.33 15.33 0 0 1-.92 2.99l-.03.07-.02.03-.16.33-.03.06c-.64 1.24-1.8 3.12-2.4 3.13l-.02.03h.13a4.96 4.96 0 0 0 3.9-1.98c.45-.56.85-1.17 1.19-1.81-.5-1.36-1.3-3.62-1.64-2.85Z" />
    </symbol>
    <symbol id="illustration-email-sent" fill="none" viewBox="0 0 129 122">
        <path fill="#E6F4F0"
            d="M114.21 15.6c-15.78-8.87-32.73 9.02-47.95-.75-6.75-4.8-10.03-9.63-17.64-13.04C30.13-2 16.57 11.04 13.68 24.29c-2.64 9.87 6.36 16.75 13.45 30.35.11.22.2.44.28.67 3.29 9.77.85 13.83-7.46 14.16-13.4.38-22.38 10.01-17.96 22.86 9.74 18.53 31.1 27.96 53.02 28.72 26.81.91 51.5-13.98 62.45-37.39l.1-.22c7.25-19 21.26-56.02-3.35-67.85Z" />
        <path fill="#E6F4F0"
            d="M23.18 62.57c1.34-2.67 0-6.04-2.97-7.53-2.97-1.49-6.47-.53-7.8 2.14-1.34 2.67 0 6.04 2.97 7.53 2.97 1.48 6.47.53 7.8-2.14ZM80.8 12.24c1.18-2.36-1.02-5.86-4.91-7.8-3.9-1.95-8-1.61-9.19.75-1.18 2.36 1.02 5.85 4.92 7.8 3.89 1.94 8 1.6 9.18-.75Z" />
        <path fill="#A6CEB0"
            d="M105.47 55.08v42.41a8.56 8.56 0 0 1-8.58 8.58H32.11a8.59 8.59 0 0 1-8.58-8.58V55.08a8.58 8.58 0 0 1 8.58-8.58h64.78a8.58 8.58 0 0 1 8.58 8.58Z" />
        <path fill="#A6CEB0"
            d="M100.88 44C96.24 38.35 64.5 16.17 64.5 16.17S32.77 38.34 28.12 44c-4.65 5.66-4.6 8.28-4.6 11.33h81.95c0-3.05.06-5.67-4.59-11.33Z" />
        <path fill="#D9D9D9" d="M96.9 28.13H32.1v74.9h64.8v-74.9Z"
            style="mix-blend-mode:multiply" />
        <path fill="#fff" d="M94.93 26.74H34.07v74.9h60.86v-74.9Z" />
        <path fill="#3DAD57"
            d="M23.53 57.08v40.4c0 1.83.57 3.6 1.64 5.06l29.54-25.2-31.18-20.26ZM74.3 77.33l29.53 25.21a8.55 8.55 0 0 0 1.64-5.05v-40.4L74.3 77.32Z" />
        <path fill="#3DAD57"
            d="M23.53 97.49v-.12l30.31-21.09 10.66-7.4 10.65 7.4 30.32 21.09v.12a8.56 8.56 0 0 1-8.58 8.58H32.1a8.59 8.59 0 0 1-8.58-8.58Z" />
        <path fill="#D9D9D9"
            d="M53.48 76.53 23.53 97.37V95.8l29.95-19.28Zm22.04 0 29.95 20.83v-1.55L75.52 76.53Z"
            style="mix-blend-mode:multiply" />
        <path fill="#32B137"
            d="M73.74 58.04a13.06 13.06 0 1 0-18.47-18.47 13.06 13.06 0 0 0 18.47 18.47Z" />
        <path fill="#fff"
            d="M61.87 55.55a.75.75 0 0 1-.53-.22l-5.19-5.2a.75.75 0 0 1 0-1.06l1.53-1.53a.75.75 0 0 1 1.07 0l3.12 3.13 8.38-8.38a.75.75 0 0 1 1.07 0l1.53 1.53a.75.75 0 0 1 0 1.07L62.4 55.33a.74.74 0 0 1-.54.22Z" />
    </symbol>
    <symbol id="illustration-done" fill="none" viewBox="0 0 89 89">
        <path stroke="#0D9677" stroke-linecap="round" stroke-linejoin="round" stroke-width="2"
            d="m60.5 33.5-21.31 20-9.69-9.1" />
        <rect width="86" height="86" x="1.5" y="1.5" stroke="#0D9677" stroke-width="2" rx="43" />
    </symbol>
    <symbol id="default-avatar" viewBox="0 0 120 120">
        <path
            d="M61.2711 0.749347C28.0071 0.172347 0.579054 27.0684 0.0110537 60.8214C-0.160891 69.8762 1.67505 78.8566 5.38694 87.1174C9.09883 95.3783 14.5945 102.714 21.4791 108.598C22.3526 107.808 23.3108 107.116 24.3361 106.536L42.3101 96.5873C43.473 95.9377 44.4411 94.9888 45.1138 93.839C45.7865 92.6893 46.1395 91.3805 46.1361 90.0483V82.5753C42.6617 78.0422 40.1788 72.8296 38.8481 67.2754C37.993 66.7162 37.2905 65.9531 36.8039 65.0547C36.3174 64.1563 36.0621 63.151 36.0611 62.1293V53.9503C36.0633 53.0963 36.2436 52.2521 36.5904 51.4716C36.9371 50.6911 37.4428 49.9915 38.0751 49.4173V37.5933C38.0751 37.5933 35.6811 19.1933 60.2381 19.1933C84.7951 19.1933 82.4021 37.5933 82.4021 37.5933V49.4173C83.0347 49.9912 83.5406 50.6907 83.8874 51.4713C84.2342 52.2519 84.4143 53.0962 84.4161 53.9503V62.1293C84.4149 63.4316 83.9987 64.6995 83.2277 65.749C82.4568 66.7985 81.3714 67.5749 80.1291 67.9653C78.7639 72.3221 76.7467 76.4469 74.146 80.1993C73.5797 81.0217 72.9719 81.8147 72.3251 82.5753V90.2403C72.3205 91.6172 72.6972 92.9684 73.4135 94.1443C74.1297 95.3202 75.1575 96.2748 76.383 96.9024L95.6301 106.666C96.7654 107.254 97.8263 107.976 98.7901 108.816C105.471 103.157 110.863 96.1325 114.602 88.2151C118.341 80.2977 120.341 71.6713 120.467 62.9163C120.039 29.1583 94.5361 1.32635 61.2711 0.749347Z"
            fill="currentColor" />
    </symbol>
    <symbol id="icon-unsafe" viewBox="0 0 14 14">
        <path fill="currentColor"
            d="m8.4355 1.90993.29199-.657c.02095-.04708.03242-.09782.03376-.14933.00133-.05151-.0075-.10278-.02597-.150884C8.7168.904615 8.68903.860625 8.65355.823258 8.61807.78589 8.57558.755876 8.5285.73493 8.48142.713985 8.43068.702517 8.37917.701182c-.05152-.001336-.10278.007488-.15088.025967-.0481.018479-.09209.046251-.12946.081731-.03737.035479-.06739.077972-.08833.12505l-.42.944h-1.582l-.42-.944C5.5462.83885 5.46786.764469 5.37071.727149c-.09714-.03732-.20513-.034521-.30021.007782-.09508.042302-.16946.120641-.20678.217785-.03732.097144-.03452.205134.00779.300214l.29199.657c-.38653.07601-.73466.28389-.98491.58813-.25025.30423-.38707.68594-.38709 1.07987v.654h6.016v-.654c-.00002-.39393-.13684-.77564-.38709-1.07987-.25025-.30424-.59838-.51212-.98491-.58813Z" />
        <path fill="currentColor"
            d="M13.2085 7.63098h-2.354v-.816c.5832-.09423 1.1139-.39282 1.4971-.8424.3833-.44958.5942-1.02083.5949-1.6116v-.523c0-.1041-.0414-.20393-.115-.27754-.0736-.07361-.1734-.11496-.2775-.11496-.1041 0-.2039.04135-.2775.11496-.0736.07361-.115.17344-.115.27754v.523c0 .38268-.1292.75415-.3666 1.05431-.2373.30016-.569.51145-.9414.59969v-.346c-.0003-.17337-.0693-.33956-.1918-.46215-.1226-.1226-.2888-.19158-.4622-.19185h-3.006v4.577c0 .1041-.04135.20393-.11496.27754-.07361.07361-.17344.11496-.27754.11496s-.20393-.04135-.27754-.11496c-.07361-.07361-.11496-.17344-.11496-.27754v-4.577h-3.01c-.17337.00027-.33956.06925-.46216.19185-.12259.12259-.19158.28878-.19184.46215v.346c-.37214-.0889-.70341-.30074-.94023-.60125-.23682-.30052-.36534-.67213-.36477-1.05474v-.52301c0-.10409-.04135-.20393-.11496-.27754-.07361-.07361-.17344-.11496-.27754-.11496-.104098 0-.203931.04135-.277539.11496-.073608.07361-.114961.17345-.114961.27754v.52301c.000744.59077.211597 1.162.59486 1.61158.38326.44958.91393.74818 1.49714.84241v.816H.3925c-.104098 0-.203931.04135-.277539.11496C.0413526 7.81755 0 7.91739 0 8.02148c0 .1041.0413526.20393.114961.27754.073608.07361.173441.11497.277539.11497h2.354v.81599c-.58321.09423-1.11388.39283-1.49714.84242-.383263.4496-.594116 1.0208-.59486 1.6116v.523c0 .1041.041353.2039.114961.2775.073608.0736.173441.115.277539.115.1041 0 .20393-.0414.27754-.115.07361-.0736.11496-.1734.11496-.2775v-.523c.00004-.3827.1292-.7542.36657-1.0543.23737-.3002.56907-.5115.94143-.5997v.215c0 1.0752.42712 2.1063 1.18739 2.8666S5.72631 14.299 6.8015 14.299s2.10634-.4271 2.86661-1.1874c.76029-.7603 1.18739-1.7914 1.18739-2.8666v-.215c.3724.0882.7041.2995.9414.5997.2374.3001.3666.6716.3666 1.0543v.523c0 .1041.0414.2039.115.2775.0736.0736.1734.115.2775.115.1041 0 .2039-.0414.2775-.115.0736-.0736.115-.1734.115-.2775v-.523c-.0007-.5908-.2116-1.162-.5949-1.6116-.3832-.44959-.9139-.74819-1.4971-.84242v-.81599h2.352c.1041 0 .2039-.04136.2775-.11497.0736-.07361.115-.17344.115-.27754 0-.10409-.0414-.20393-.115-.27754-.0736-.07361-.1734-.11496-.2775-.11496v.002Z" />
    </symbol>
    <symbol id="icon-safe" viewBox="0 0 17 17">
        <path fill="currentColor"
            d="M8.50001.100098C3.86111.100098.100006 3.8612.100006 8.5001c0 4.6389 3.761104 8.4 8.400004 8.4 4.63889 0 8.39999-3.7611 8.39999-8.4 0-4.6389-3.7611-8.400002-8.39999-8.400002ZM13.1949 6.895l-5.29199 5.292c-.1316.1316-.3094.2051-.4949.2051s-.364-.0735-.4949-.2051l-2.4171-2.4171c-.2737-.2737-.2737-.7161 0-.9898.2737-.2737.7161-.2737.9898 0l1.9222 1.9222 4.79709-4.7971c.2737-.2737.7161-.2737.9898 0 .2737.2737.2737.7161 0 .9898Z" />
    </symbol>
    <symbol id="icon-danger" viewBox="0 0 22 22">
        <path fill="none" stroke="currentColor" stroke-linecap="round" stroke-linejoin="round"
            stroke-width="2"
            d="M18.364 18.364A9 9 0 005.636 5.636m12.728 12.728A9 9 0 015.636 5.636m12.728 12.728L5.636 5.636" />
    </symbol>
    <symbol id="icon-link" viewBox="0 0 18 18">
        <path fill="currentColor" stroke="currentColor" stroke-width=".3"
            d="M7.67341 8.12161c.10529-.10529.16444-.2481.16444-.397 0-.1489-.05915-.29171-.16444-.397s-.2481-.16444-.397-.16444c-.1489 0-.29171.05915-.397.16444l-2.97 2.96999c-.48402.5-.75211 1.1702-.74647 1.8661.00565.6959.2846 1.3616.77667 1.8537.49207.4921 1.15784.771 1.85372.7767.69587.0056 1.36608-.2625 1.86608-.7465l6.70699-6.70699c.6933-.69513 1.082-1.6372 1.0807-2.61895-.0013-.98175-.3926-1.92277-1.0877-2.61605-.6951-.69328-1.6372-1.08202-2.6189-1.0807-.9818.00131-1.92281.39257-2.61609 1.0877l-6.689 6.693c-.45091.44021-.80996.96554-1.05634 1.54559-.24639.58-.3752 1.2031-.37898 1.8332-.003786.6302.11754 1.2548.35695 1.8377.2394.583.59212 1.1126 1.03772 1.5582.44559.4456.97519.7983 1.55811 1.0377.58292.2394 1.20755.3607 1.83771.3569.63015-.0037 1.25328-.1326 1.83328-.3789.58-.2464 1.10534-.6055 1.54555-1.0564l2.96599-2.965c.1053-.1053.1645-.2481.1645-.397 0-.1489-.0592-.2917-.1645-.397s-.2481-.1644-.397-.1644c-.1489 0-.2917.0591-.397.1644l-2.96999 2.97c-.3365.3441-.73793.6181-1.18104.806-.44311.1879-.9191.2861-1.40041.2888-.4813.0027-.95836-.0901-1.40355-.2731-.44518-.1829-.84966-.4524-1.19-.7927-.34034-.3403-.60978-.7448-.79272-1.19-.18295-.4452-.27576-.9222-.27306-1.4035.0027-.4813.10085-.9573.28877-1.4004.18792-.4432.46188-.84459.80601-1.18109l6.693-6.693c.23819-.24009.52179-.43034.83419-.55962.3125-.12929.6476-.19503.9858-.19338.6824.00044 1.3368.27119 1.82.753.2401.23815.4303.52175.5596.83423.1293.31249.1951.6476.1934.98577-.0004.68237-.2712 1.33678-.753 1.82L6.85141 13.2586c-.28881.2831-.67709.4417-1.0815.4417-.40441 0-.79269-.1586-1.0815-.4417-.14316-.1414-.25683-.3098-.33441-.4954-.07758-.1857-.11753-.3849-.11753-.5861 0-.2012.03995-.4004.11753-.5861.07758-.1856.19125-.354.33441-.4954l2.984-2.96999.001-.004Z" />
    </symbol>
    <symbol id="icon-eye" viewBox="0 0 20 20" fill="none" stroke="currentColor">
        <path
            d="M1.3 10S4.45 3.67 10 3.67c5.54 0 8.7 6.33 8.7 6.33s-3.16 6.33-8.7 6.33C4.46 16.33 1.3 10 1.3 10Z" />
        <path d="M10 12.38a2.37 2.37 0 1 0 0-4.75 2.37 2.37 0 0 0 0 4.75Z" />
    </symbol>
	
	<symbol id="icon-password-visible" viewBox="0 0 20 21" fill="none">
		<mask id="mask0_1819_2522" style="mask-type:alpha" maskUnits="userSpaceOnUse" x="0" y="0" width="20"
			height="21">
			<rect y="0.5" width="20" height="20" fill="currentColor" />
		</mask>
		<g mask="url(#mask0_1819_2522)">
			<path
				d="M10.0018 13.4808C10.9461 13.4808 11.7481 13.1503 12.4078 12.4894C13.0675 11.8284 13.3974 11.0258 13.3974 10.0815C13.3974 9.13715 13.0669 8.33514 12.4059 7.67542C11.745 7.01569 10.9423 6.68583 9.99802 6.68583C9.05372 6.68583 8.25171 7.01632 7.59198 7.67729C6.93226 8.33826 6.6024 9.1409 6.6024 10.0852C6.6024 11.0295 6.93289 11.8315 7.59386 12.4913C8.25483 13.151 9.05747 13.4808 10.0018 13.4808ZM9.9999 12.3333C9.3749 12.3333 8.84365 12.1146 8.40615 11.6771C7.96865 11.2396 7.7499 10.7083 7.7499 10.0833C7.7499 9.45833 7.96865 8.92708 8.40615 8.48958C8.84365 8.05208 9.3749 7.83333 9.9999 7.83333C10.6249 7.83333 11.1561 8.05208 11.5936 8.48958C12.0311 8.92708 12.2499 9.45833 12.2499 10.0833C12.2499 10.7083 12.0311 11.2396 11.5936 11.6771C11.1561 12.1146 10.6249 12.3333 9.9999 12.3333ZM10.0009 15.9167C8.08469 15.9167 6.33865 15.3881 4.76282 14.3308C3.18698 13.2738 2.0267 11.8579 1.28198 10.0833C2.0267 8.30875 3.18657 6.89292 4.76157 5.83583C6.3367 4.77861 8.08247 4.25 9.99886 4.25C11.9151 4.25 13.6612 4.77861 15.237 5.83583C16.8128 6.89292 17.9731 8.30875 18.7178 10.0833C17.9731 11.8579 16.8132 13.2738 15.2382 14.3308C13.6631 15.3881 11.9173 15.9167 10.0009 15.9167ZM9.9999 14.6667C11.5693 14.6667 13.0103 14.2535 14.3228 13.4271C15.6353 12.6007 16.6388 11.4861 17.3332 10.0833C16.6388 8.68056 15.6353 7.56597 14.3228 6.73958C13.0103 5.91319 11.5693 5.5 9.9999 5.5C8.43046 5.5 6.98948 5.91319 5.67698 6.73958C4.36448 7.56597 3.36101 8.68056 2.66657 10.0833C3.36101 11.4861 4.36448 12.6007 5.67698 13.4271C6.98948 14.2535 8.43046 14.6667 9.9999 14.6667Z"
				fill="currentColor" />
		</g>
	</symbol>

	<symbol id="icon-password-invisible" viewBox="0 0 20 21" fill="none">
		<mask id="mask0_1618_10172" style="mask-type:alpha" maskUnits="userSpaceOnUse" x="0" y="0" width="20"
			height="21">
			<rect y="0.5" width="20" height="20" fill="currentColor" />
		</mask>
		<g mask="url(#mask0_1618_10172)">
			<path
				d="M13.1441 11.3092L12.2082 10.3734C12.3332 9.68325 12.1364 9.06276 11.6176 8.51193C11.099 7.96123 10.4625 7.74838 9.70823 7.87338L8.7724 6.93755C8.96045 6.85311 9.1533 6.78977 9.35094 6.74755C9.54858 6.70533 9.7649 6.68422 9.9999 6.68422C10.9455 6.68422 11.7481 7.01408 12.4078 7.6738C13.0675 8.33352 13.3974 9.13616 13.3974 10.0817C13.3974 10.3167 13.3763 10.5357 13.3341 10.7388C13.2918 10.9417 13.2285 11.1319 13.1441 11.3092ZM15.7947 13.9021L14.8749 13.0401C15.4027 12.6373 15.8714 12.1963 16.2812 11.7171C16.6909 11.238 17.0416 10.6928 17.3332 10.0817C16.6388 8.67894 15.6423 7.56436 14.3436 6.73797C13.045 5.91158 11.5971 5.49839 9.9999 5.49839C9.59712 5.49839 9.20129 5.52616 8.8124 5.58172C8.42351 5.63727 8.04157 5.72061 7.66657 5.83172L6.69552 4.86068C7.22219 4.65123 7.76011 4.49686 8.30927 4.39755C8.85844 4.29811 9.42198 4.24839 9.9999 4.24839C11.9528 4.24839 13.714 4.78686 15.2834 5.8638C16.8529 6.94075 17.9977 8.34672 18.7178 10.0817C18.4091 10.8263 18.0103 11.5213 17.5216 12.1667C17.0327 12.812 16.4571 13.3905 15.7947 13.9021ZM16.4678 18.7228L13.0962 15.3765C12.6688 15.5347 12.1952 15.664 11.6753 15.7644C11.1556 15.8648 10.5971 15.9151 9.9999 15.9151C8.04157 15.9151 6.28039 15.3766 4.71636 14.2996C3.15219 13.2227 2.0074 11.8167 1.28198 10.0817C1.58962 9.34561 1.98705 8.65894 2.47427 8.02172C2.9615 7.38436 3.49782 6.83172 4.08323 6.3638L1.77552 4.03047L2.65386 3.15234L17.3459 17.8444L16.4678 18.7228ZM4.96157 7.24193C4.52129 7.59234 4.09309 8.01359 3.67698 8.50568C3.26087 8.99762 2.92407 9.52297 2.66657 10.0817C3.36101 11.4845 4.35754 12.5991 5.65615 13.4255C6.95476 14.2519 8.40268 14.6651 9.9999 14.6651C10.3792 14.6651 10.7569 14.633 11.133 14.5688C11.509 14.5048 11.8279 14.4386 12.0897 14.3703L11.0351 13.2901C10.893 13.3477 10.7285 13.3936 10.5416 13.4278C10.3546 13.4621 10.1741 13.4792 9.9999 13.4792C9.05434 13.4792 8.25171 13.1494 7.59198 12.4896C6.93226 11.8299 6.6024 11.0273 6.6024 10.0817C6.6024 9.91297 6.61955 9.73644 6.65386 9.55214C6.68802 9.36783 6.73393 9.19929 6.79157 9.04651L4.96157 7.24193Z"
				fill="currentColor" />
		</g>
	</symbol>

	<symbol id="image-email-sent" viewBox="0 0 56 61" fill="none">
		<path
			d="M55.4993 26.1251V54.5899C55.4994 55.3461 55.3505 56.095 55.0611 56.7937C54.7718 57.4924 54.3476 58.1272 53.8128 58.662C53.2781 59.1967 52.6432 59.6209 51.9445 59.9103C51.2458 60.1996 50.497 60.3486 49.7407 60.3485H6.26132C5.50495 60.3487 4.75595 60.2 4.05709 59.9107C3.35823 59.6214 2.72322 59.1973 2.18833 58.6625C1.65343 58.1277 1.22913 57.4928 0.939684 56.794C0.650235 56.0952 0.501316 55.3462 0.501404 54.5899V26.1258C0.501316 25.3695 0.650196 24.6206 0.939561 23.9219C1.22893 23.2232 1.65312 22.5884 2.18788 22.0536C2.72263 21.5189 3.35749 21.0947 4.05619 20.8053C4.7549 20.516 5.50375 20.3671 6.26001 20.3672H49.7394C50.4957 20.3669 51.2446 20.5157 51.9434 20.8049C52.6422 21.0941 53.2773 21.5182 53.8121 22.0529C54.347 22.5876 54.7713 23.2224 55.0608 23.9212C55.3503 24.6199 55.4993 25.3688 55.4993 26.1251Z"
			fill="#998BF2" />
		<path
			d="M52.4199 18.6926C49.3004 14.8905 28.001 0 28.001 0C28.001 0 6.70157 14.8911 3.58199 18.6926C0.462422 22.4941 0.500021 24.2492 0.500021 26.2969H55.4966C55.4993 24.2492 55.5395 22.4948 52.4199 18.6926Z"
			fill="#6D5CD7" />
		<g style="mix-blend-mode:multiply">
			<path d="M49.7413 8.03906H6.26129V58.3113H49.7413V8.03906Z" fill="#D9D9D9" />
		</g>
		<path d="M48.4225 7.10938H7.58017V57.3816H48.4225V7.10938Z" fill="white" />
		<path
			d="M0.500066 27.4766V54.597C0.498451 55.8166 0.885934 57.0049 1.60615 57.9891L21.427 41.0703L0.500066 27.4766Z"
			fill="#4C3BB6" />
		<path d="M34.5731 41.0697L54.3939 57.9884C55.114 57.0042 55.5016 55.8159 55.5 54.5963V27.4766L34.5731 41.0697Z"
			fill="#4C3BB6" />
		<path
			d="M0.501404 54.5888V54.5076L20.8478 40.3568L27.999 35.3828L35.1503 40.3568L55.4973 54.5076V54.5888C55.4974 55.3451 55.3485 56.094 55.0591 56.7927C54.7698 57.4914 54.3456 58.1263 53.8109 58.661C53.2761 59.1958 52.6413 59.62 51.9426 59.9093C51.2438 60.1987 50.495 60.3476 49.7387 60.3475H6.26132C5.50495 60.3477 4.75595 60.1989 4.05709 59.9096C3.35823 59.6204 2.72322 59.1962 2.18833 58.6615C1.65343 58.1267 1.22913 57.4918 0.939685 56.793C0.650235 56.0942 0.501316 55.3452 0.501404 54.5888Z"
			fill="#4C3BB6" />
		<g style="mix-blend-mode:multiply">
			<path d="M20.6055 40.5352L0.502747 54.5196V53.4752L20.6055 40.5352Z" fill="#D9D9D9" />
		</g>
		<g style="mix-blend-mode:multiply">
			<path d="M35.3959 40.5352L55.4986 54.5169V53.4725L35.3959 40.5352Z" fill="#D9D9D9" />
		</g>
		<path
			d="M34.1995 28.0965C37.6226 24.6734 37.6226 19.1235 34.1995 15.7004C30.7764 12.2773 25.2264 12.2773 21.8033 15.7004C18.3802 19.1235 18.3802 24.6734 21.8033 28.0965C25.2264 31.5196 30.7764 31.5196 34.1995 28.0965Z"
			fill="#4C3BB6" />
		<path
			d="M26.2385 26.4219C26.172 26.422 26.1062 26.409 26.0448 26.3836C25.9834 26.3581 25.9276 26.3207 25.8807 26.2736L22.3995 22.7916C22.3524 22.7446 22.3151 22.6889 22.2896 22.6275C22.2642 22.5661 22.251 22.5003 22.251 22.4339C22.251 22.3674 22.2642 22.3016 22.2896 22.2402C22.3151 22.1788 22.3524 22.1231 22.3995 22.0761L23.425 21.0506C23.4718 21.0036 23.5275 20.9664 23.5888 20.941C23.65 20.9156 23.7157 20.9026 23.782 20.9026C23.8484 20.9026 23.914 20.9156 23.9753 20.941C24.0365 20.9664 24.0922 21.0036 24.1391 21.0506L26.2378 23.1493L31.8615 17.5263C31.9562 17.4319 32.0845 17.3789 32.2182 17.3789C32.3519 17.3789 32.4802 17.4319 32.5749 17.5263L33.6025 18.5539C33.6496 18.6008 33.687 18.6565 33.7125 18.7179C33.738 18.7793 33.7512 18.8451 33.7512 18.9116C33.7512 18.978 33.738 19.0439 33.7125 19.1053C33.687 19.1667 33.6496 19.2224 33.6025 19.2693L26.5962 26.2763C26.5492 26.323 26.4934 26.3599 26.432 26.3849C26.3706 26.4099 26.3048 26.4225 26.2385 26.4219Z"
			fill="white" />
	</symbol>

	<symbol id="image-circle-check" viewBox="0 0 80 80" fill="none">
		<mask id="mask0_1618_10485" style="mask-type:alpha" maskUnits="userSpaceOnUse" x="0" y="0" width="80" height="80">
			<rect width="80" height="80" fill="#D9D9D9" />
		</mask>
		<g mask="url(#mask0_1618_10485)">
			<path
				d="M35.205 53.0258L56.5258 31.705L54.1667 29.3458L35.205 48.3075L25.705 38.8075L23.3458 41.1667L35.205 53.0258ZM40.0108 70C35.8625 70 31.9622 69.2128 28.31 67.6383C24.6583 66.0639 21.4817 63.9272 18.78 61.2283C16.0783 58.5294 13.9397 55.3556 12.3642 51.7067C10.7881 48.0583 10 44.1597 10 40.0108C10 35.8625 10.7872 31.9622 12.3617 28.31C13.9361 24.6583 16.0728 21.4817 18.7717 18.78C21.4706 16.0783 24.6444 13.9397 28.2933 12.3642C31.9417 10.7881 35.8403 10 39.9892 10C44.1375 10 48.0378 10.7872 51.69 12.3617C55.3417 13.9361 58.5183 16.0728 61.22 18.7717C63.9217 21.4706 66.0603 24.6444 67.6358 28.2933C69.2119 31.9417 70 35.8403 70 39.9892C70 44.1375 69.2128 48.0378 67.6383 51.69C66.0639 55.3417 63.9272 58.5183 61.2283 61.22C58.5294 63.9217 55.3556 66.0603 51.7067 67.6358C48.0583 69.2119 44.1597 70 40.0108 70ZM40 66.6667C47.4444 66.6667 53.75 64.0833 58.9167 58.9167C64.0833 53.75 66.6667 47.4444 66.6667 40C66.6667 32.5556 64.0833 26.25 58.9167 21.0833C53.75 15.9167 47.4444 13.3333 40 13.3333C32.5556 13.3333 26.25 15.9167 21.0833 21.0833C15.9167 26.25 13.3333 32.5556 13.3333 40C13.3333 47.4444 15.9167 53.75 21.0833 58.9167C26.25 64.0833 32.5556 66.6667 40 66.6667Z"
				fill="#5F4CD9" />
		</g>
	</symbol>

	<symbol id="image-dead-robot" viewBox="0 0 82 97" fill="none">
		<path d="M62.938 38.8633L77.938 32.8633" stroke="#6D5CD7" stroke-miterlimit="10"/>
		<path d="M71.9831 33.5328C72.3514 36.2779 74.879 38.1861 77.6074 37.8178C80.3526 37.4496 82.2608 34.9221 81.8925 32.1937C81.5243 29.4487 78.9967 27.5405 76.2683 27.9088C73.5398 28.277 71.6149 30.7877 71.9831 33.5328Z" fill="#6D5CD7"/>
		<path d="M26.6943 18.2301L20.9834 3.52734" stroke="#6D5CD7" stroke-miterlimit="10"/>
		<path d="M21.7419 9.20421C24.2801 8.86372 26.0444 6.52675 25.7039 4.00406C25.3634 1.46589 23.0265 -0.298444 20.5038 0.0420417C17.9811 0.382528 16.2013 2.70402 16.5417 5.24219C16.8822 7.78036 19.2192 9.54469 21.7419 9.20421Z" fill="#6D5CD7"/>
		<path d="M50.8649 79.6647L61.8457 51.903C67.8805 38.0784 61.5641 21.9826 47.7396 15.9478C33.915 9.91308 17.8192 16.2294 11.7844 30.054L0.812988 57.8157L50.8649 79.6647Z" fill="#4C3BB6"/>
		<mask id="mask0_1639_2817" style="mask-type:luminance" maskUnits="userSpaceOnUse" x="0" y="13" width="65" height="67">
		<path d="M50.1233 79.3808L61.8456 51.8913C67.8803 38.0667 61.564 21.9709 47.7394 15.9361C33.9149 9.90136 17.819 16.2177 11.7843 30.0422L0.0620117 57.5412L50.1233 79.3808Z" fill="white"/>
		</mask>
		<g mask="url(#mask0_1639_2817)">
		<path opacity="0.3" d="M-3.88916 78.228L44.1449 100.79L49.823 89.6781L33.4738 82.4608L63.7508 16.0409L52.4227 10.832L22.5493 76.4729L4.67025 68.1482L-3.88916 78.228Z" fill="#6D5CD7"/>
		</g>
		<path d="M16.5237 34.5159C16.5237 38.2138 19.5176 41.2077 23.2154 41.2077C26.9132 41.2077 29.9071 38.2138 29.9071 34.5159C29.9071 30.8181 26.9132 27.8242 23.2154 27.8242C19.527 27.8242 16.5237 30.8181 16.5237 34.5159Z" fill="#D1CEE5"/>
		<path d="M49.7198 52.5007C53.4155 52.5007 56.4115 49.5047 56.4115 45.8089C56.4115 42.1132 53.4155 39.1172 49.7198 39.1172C46.0241 39.1172 43.0281 42.1132 43.0281 45.8089C43.0281 49.5047 46.0241 52.5007 49.7198 52.5007Z" fill="#D1CEE5"/>
		<path d="M42.6243 60.9498C41.6764 63.0896 39.1705 64.0469 37.0306 63.099L18.2881 54.7648C16.1483 53.8169 15.191 51.3111 16.1389 49.1712C17.0868 47.0314 19.5927 46.074 21.7326 47.022L40.475 55.3561C42.6149 56.3134 43.5816 58.8193 42.6243 60.9498Z" fill="#D1CEE5"/>
		<path d="M20.6064 33.3555L25.5244 35.6924" stroke="#00373E" stroke-width="0.927" stroke-miterlimit="10"/>
		<path d="M24.2386 32.0625L21.9016 36.971" stroke="#00373E" stroke-width="0.927" stroke-miterlimit="10"/>
		<path d="M47.1106 44.6602L52.0191 46.9971" stroke="#00373E" stroke-width="0.927" stroke-miterlimit="10"/>
		<path d="M50.7332 43.3672L48.3962 48.2757" stroke="#00373E" stroke-width="0.927" stroke-miterlimit="10"/>
		<path opacity="0.3" d="M12.5752 82.0273C12.5752 82.0273 13.5652 100.1 7.47312 95.4298C1.38108 90.7593 12.5752 82.0273 12.5752 82.0273Z" fill="#6352CD"/>
		<path d="M23.4283 76.3164C23.4283 76.3164 24.6202 97.7079 17.2855 92.1798C9.98129 86.6516 23.4283 76.3164 23.4283 76.3164Z" fill="#4C3BB6"/>
		<path d="M13.7852 75.1172C13.7852 75.1172 6.98239 85.9813 5.38323 80.7777C3.75868 75.5995 13.7852 75.1172 13.7852 75.1172Z" fill="#6352CD"/>
		<path opacity="0.7" d="M54.5908 20.2539C59.9874 27.8091 61.4046 37.9358 57.4158 47.0771L46.435 74.8389L1.78906 55.355L0.812988 57.8327L50.8743 79.6817L61.8551 51.92C66.7636 40.6388 63.4694 27.856 54.5908 20.2539Z" fill="#6D5CD7"/>
	</symbol>


    <symbol id="icon-arrow-down" viewBox="0 0 15 8">
        <path d="M1.76501 1.05444L7.65601 6.94544L13.5471 1.05444" stroke="currentColor" fill="none"
            stroke-width="2" stroke-linecap="round" stroke-linejoin="round" />
    </symbol>
    <symbol id="icon-loading" viewBox="0 0 24 24">
        <path fill="currentColor" stroke="none"
            d="M18.364 5.636L16.95 7.05A7 7 0 1 0 19 12h2a9 9 0 1 1-2.636-6.364z" />
    </symbol>
    <symbol id="icon-cloud" fill="none" stroke="currentColor" stroke-linecap="round"
        stroke-linejoin="round"
        stroke-width="2"
        viewBox="0 0 32 27">
        <path d="M21.17 18.67 16 13.5l-5.17 5.17M16 13.5v11.63" />
        <path d="M26.84 21.75a6.46 6.46 0 0 0-3.09-12.13h-1.63a10.33 10.33 0 1 0-17.75 9.43" />
        <path d="M21.17 18.67 16 13.5l-5.17 5.17" />
    </symbol>
    <symbol id="icon-download" fill="none" viewBox="0 0 20 19">
        <path fill="currentColor" stroke="currentColor" stroke-width=".5"
            d="M15.56 10.36 10 15.53l-5.56-5.17 1.02-.95 3.82 3.54V1h1.44v11.96l3.82-3.55 1.02.95Zm3.7 6.5H.74v1.34h18.5v-1.34Z" />
    </symbol>

	<symbol id="icon-download-2" fill="none" viewBox="0 0 16 16">
		<path d="M8 11.7885L3.73075 7.51925L4.78475 6.43475L7.25 8.9V0.5H8.75V8.9L11.2153 6.43475L12.2693 7.51925L8 11.7885ZM2.30775 15.5C1.80258 15.5 1.375 15.325 1.025 14.975C0.675 14.625 0.5 14.1974 0.5 13.6923V10.9808H2V13.6923C2 13.7692 2.03208 13.8398 2.09625 13.9038C2.16025 13.9679 2.23075 14 2.30775 14H13.6923C13.7692 14 13.8398 13.9679 13.9038 13.9038C13.9679 13.8398 14 13.7692 14 13.6923V10.9808H15.5V13.6923C15.5 14.1974 15.325 14.625 14.975 14.975C14.625 15.325 14.1974 15.5 13.6923 15.5H2.30775Z" fill="currentColor"/>
	</symbol>
    <symbol id="icon-restart" fill="none" viewBox="0 0 24 24">
        <path stroke-linecap="round" stroke="currentColor" stroke-linejoin="round"
            d="M16.023 9.348h4.992v-.001M2.985 19.644v-4.992m0 0h4.992m-4.993 0l3.181 3.183a8.25 8.25 0 0013.803-3.7M4.031 9.865a8.25 8.25 0 0113.803-3.7l3.181 3.182m0-4.991v4.99" />
    </symbol>
    <symbol id="icon-rescan" fill="none" viewBox="0 0 16 19">
        <path fill="currentColor" stroke="currentColor" stroke-width=".3"
            d="M13.09 5.74A7.14 7.14 0 0 0 8 3.64H6.95l1.69-1.7L7.7 1 4.4 4.3l3.25 3.3.95-.93-1.68-1.7H8a5.86 5.86 0 1 1-5.86 5.86v-.67H.81v.67a7.2 7.2 0 1 0 12.28-5.09Z" />
    </symbol>
    <symbol id="icon-like" fill="none" viewBox="0 0 17 16">
        <path fill="currentColor" stroke="currentColor" stroke-width=".6"
            d="M8.5 15.2a.95.95 0 0 1-.62-.23l-1.84-1.59A34.23 34.23 0 0 1 2 9.61 6.03 6.03 0 0 1 .4 5.67 5.06 5.06 0 0 1 1.68 2.2 4.35 4.35 0 0 1 4.93.8c.92 0 1.82.3 2.54.88.4.3.74.67 1.03 1.07.3-.4.64-.76 1.03-1.07A4.07 4.07 0 0 1 12.07.8a4.35 4.35 0 0 1 3.24 1.41 5.1 5.1 0 0 1 1.29 3.46 6.03 6.03 0 0 1-1.61 3.94 34.23 34.23 0 0 1-4.02 3.77l-1.84 1.59a.95.95 0 0 1-.63.23ZM4.93 1.75a3.42 3.42 0 0 0-2.54 1.1 4.12 4.12 0 0 0-1.04 2.82A5.07 5.07 0 0 0 2.75 9c1.2 1.32 2.5 2.54 3.9 3.65l1.84 1.6 1.86-1.6A33.7 33.7 0 0 0 14.25 9a5.05 5.05 0 0 0 1.38-3.34 4.12 4.12 0 0 0-1.03-2.8 3.42 3.42 0 0 0-2.54-1.1 3.1 3.1 0 0 0-1.96.67c-.44.35-.8.78-1.09 1.27A.6.6 0 0 1 8 3.7a4.6 4.6 0 0 0-1.1-1.27 3.14 3.14 0 0 0-1.96-.68Z" />
    </symbol>
    <symbol id="icon-twitter" fill="none" viewBox="0 0 19 18">
        <path fill="currentColor" stroke="currentColor" stroke-width=".4"
            d="M18.5 1.73a.47.47 0 0 0-.06-.23.44.44 0 0 0-.16-.16.41.41 0 0 0-.43 0 6.6 6.6 0 0 1-1.94.83 3.89 3.89 0 0 0-5.64.08A4.4 4.4 0 0 0 9.1 5.64a9.75 9.75 0 0 1-6.61-3.78.43.43 0 0 0-.17-.13.4.4 0 0 0-.39.04.5.5 0 0 0-.14.15 4.5 4.5 0 0 0 .1 4.48l-.05-.03a.41.41 0 0 0-.42.03.48.48 0 0 0-.16.17.51.51 0 0 0-.06.24 4.4 4.4 0 0 0 1.58 3.37.42.42 0 0 0-.2.14.46.46 0 0 0-.09.43c.2.65.55 1.24 1 1.72a4 4 0 0 0 1.65 1.04 6.56 6.56 0 0 1-4.16.87.41.41 0 0 0-.28.07.45.45 0 0 0-.17.23c-.04.1-.04.2 0 .3.02.1.09.18.17.23A10.27 10.27 0 0 0 6.47 17c2.33.03 4.6-.76 6.45-2.23a11.14 11.14 0 0 0 3.82-5.9c.3-1.03.44-2.1.44-3.16v-.34a4.89 4.89 0 0 0 1.31-3.64Zm-2.08 3.19a.5.5 0 0 0-.1.32v.46c0 .99-.13 1.97-.4 2.91a10.13 10.13 0 0 1-3.5 5.46 9.25 9.25 0 0 1-5.95 2.03c-1.3 0-2.6-.28-3.8-.82a7.4 7.4 0 0 0 3.87-1.67.45.45 0 0 0 .15-.23.47.47 0 0 0 0-.27.45.45 0 0 0-.16-.22.41.41 0 0 0-.24-.09c-.55 0-1.09-.17-1.56-.46-.48-.3-.87-.71-1.14-1.21.36 0 .72-.05 1.07-.16.1-.02.17-.08.23-.17a.47.47 0 0 0-.02-.55.42.42 0 0 0-.24-.15A3.13 3.13 0 0 1 3 9.18a3.4 3.4 0 0 1-.87-1.7c.36.12.74.2 1.12.2.1.01.19-.02.27-.07a.43.43 0 0 0 .15-.24c.03-.1.03-.2 0-.29a.45.45 0 0 0-.17-.22 3.3 3.3 0 0 1-1.04-1.21 3.49 3.49 0 0 1-.2-2.68A10.5 10.5 0 0 0 9.6 6.6c.06 0 .13 0 .2-.04a.39.39 0 0 0 .15-.13.46.46 0 0 0 .08-.39 3.46 3.46 0 0 1 .85-3.14 3.12 3.12 0 0 1 3.53-.71 3 3 0 0 1 1.05.79c.05.05.12.1.19.12a.4.4 0 0 0 .2.01c.62-.13 1.2-.33 1.77-.6a4.53 4.53 0 0 1-1.2 2.42Z" />
    </symbol>
    <symbol id="icon-tmp" fill="none" viewBox="0 0 55 60">
        <circle cx="27.5" cy="27.5" r="26.9" fill="#F4F3E3" stroke="#9F9C62" stroke-width="1.2" />
        <rect width="29.8" height="18.8" x="12.6" y="15.6" fill="#fff" stroke="#9F9C62"
            stroke-width="1.2" rx="9.4" />
        <path stroke="#9F9C62" stroke-linecap="round" stroke-width="1.2" d="M32.4 29.24h-4.8" />
        <path stroke="#9F9C62" stroke-linecap="round" stroke-linejoin="round" stroke-width="1.2"
            d="m24.75 27.39 4-3.18-4-3.19" />
        <rect width="39.8" height="15.8" x="7.6" y="43.6" fill="#fff" rx="7.9" />
        <path fill="#9F9C62"
            d="M25.05 49.65c-.12-.16-.3-.28-.52-.35a1.6 1.6 0 0 0-.96-.08 1.4 1.4 0 0 0-.34.13.7.7 0 0 0-.25.22c-.07.1-.1.2-.1.34 0 .21.07.38.23.49.16.11.37.21.6.29l.8.24c.27.08.54.2.77.34.25.15.45.34.61.59.16.25.25.58.25.99a2.2 2.2 0 0 1-1.69 2.19 3.8 3.8 0 0 1-2.32-.07 3.2 3.2 0 0 1-1.1-.68l1.1-1.22a1.68 1.68 0 0 0 1.75.63c.13-.03.25-.08.35-.14a.7.7 0 0 0 .25-.23c.06-.1.1-.2.1-.33a.58.58 0 0 0-.25-.5 2.1 2.1 0 0 0-.61-.32 19.1 19.1 0 0 0-.8-.26 3.6 3.6 0 0 1-.8-.35 1.98 1.98 0 0 1-.63-.58 1.69 1.69 0 0 1-.23-.95c0-.38.07-.71.21-1a2.25 2.25 0 0 1 1.48-1.15 3.97 3.97 0 0 1 2.17.02c.37.11.7.3 1 .57l-1.07 1.17Zm2.25-1.73h1.56v2.64h3.03v-2.64h1.56V55h-1.56v-3.06h-3.03V55H27.3v-7.08Z" />
        <rect width="39.8" height="15.8" x="7.6" y="43.6" stroke="#9F9C62" stroke-width="1.2"
            rx="7.9" />
    </symbol>
    <symbol id="icon-alert" fill="none" viewBox="0 0 18 18">
		<mask id="mask0_1212_1554" style="mask-type:alpha" maskUnits="userSpaceOnUse" x="0" y="0" width="18" height="18">
			<rect x="0.5" y="0.5" width="17" height="17" fill="#D9D9D9"/>
		</mask>
		<g mask="url(#mask0_1212_1554)">
			<path d="M1.20831 15.3753L8.99998 1.91699L16.7916 15.3753H1.20831ZM8.99998 13.2503C9.20067 13.2503 9.3689 13.1824 9.50467 13.0467C9.64043 12.9109 9.70831 12.7427 9.70831 12.542C9.70831 12.3413 9.64043 12.1731 9.50467 12.0373C9.3689 11.9015 9.20067 11.8337 8.99998 11.8337C8.79928 11.8337 8.63106 11.9015 8.49529 12.0373C8.35953 12.1731 8.29165 12.3413 8.29165 12.542C8.29165 12.7427 8.35953 12.9109 8.49529 13.0467C8.63106 13.1824 8.79928 13.2503 8.99998 13.2503ZM8.29165 11.1253H9.70831V7.58366H8.29165V11.1253Z" fill="#F0465B"/>
		</g>
    </symbol>
    <symbol id="icon-check" fill="none" viewBox="0 0 18 18">
		<mask id="mask0_1212_1624" style="mask-type:alpha" maskUnits="userSpaceOnUse" x="0" y="0" width="18" height="18">
			<rect x="0.5" y="0.5" width="17" height="17" fill="#D9D9D9"/>
		</mask>
		<g mask="url(#mask0_1212_1624)">
			<path d="M8.00835 12.2587L13.0021 7.26491L12.0104 6.27324L8.00835 10.2753L5.9896 8.25658L4.99794 9.24824L8.00835 12.2587ZM9.00002 16.0837C8.02016 16.0837 7.09933 15.8977 6.23752 15.5258C5.37571 15.154 4.62606 14.6493 3.98856 14.0118C3.35106 13.3743 2.84637 12.6246 2.4745 11.7628C2.10262 10.901 1.91669 9.98019 1.91669 9.00033C1.91669 8.02046 2.10262 7.09963 2.4745 6.23783C2.84637 5.37602 3.35106 4.62637 3.98856 3.98887C4.62606 3.35137 5.37571 2.84668 6.23752 2.4748C7.09933 2.10293 8.02016 1.91699 9.00002 1.91699C9.97988 1.91699 10.9007 2.10293 11.7625 2.4748C12.6243 2.84668 13.374 3.35137 14.0115 3.98887C14.649 4.62637 15.1537 5.37602 15.5255 6.23783C15.8974 7.09963 16.0834 8.02046 16.0834 9.00033C16.0834 9.98019 15.8974 10.901 15.5255 11.7628C15.1537 12.6246 14.649 13.3743 14.0115 14.0118C13.374 14.6493 12.6243 15.154 11.7625 15.5258C10.9007 15.8977 9.97988 16.0837 9.00002 16.0837Z" fill="#56AC30"/>
		</g>
    </symbol>
    <symbol id="icon-calendar" fill="none" viewBox="0 0 15 15">
        <path stroke="currentColor" stroke-linecap="round" stroke-linejoin="round"
            d="M11.88 2.5H3.12c-.69 0-1.25.56-1.25 1.25v8.75c0 .69.56 1.25 1.25 1.25h8.75c.7 0 1.26-.56 1.26-1.25V3.75c0-.69-.56-1.25-1.26-1.25ZM10 1.25v2.5m-5-2.5v2.5m-3.12 2.5h11.25" />
    </symbol>
	<symbol id="icon-info" viewBox="0 0 15 16" fill="none" xmlns="http://www.w3.org/2000/svg">
		<path d="M7.5 15.5C3.36429 15.5 0 12.1355 0 8C0 3.8645 3.36429 0.5 7.5 0.5C11.6355 0.5 15 3.8645 15 8C15 12.1355 11.6355 15.5 7.5 15.5ZM7.5 1.91514C4.14471 1.91514 1.41514 4.64471 1.41514 8C1.41514 11.3553 4.14471 14.0849 7.5 14.0849C10.8551 14.0849 13.5849 11.3553 13.5849 8C13.5849 4.64471 10.8551 1.91514 7.5 1.91514Z" fill="currentColor"/>
		<path d="M5.70046 11.4914C5.73346 11.3457 5.78274 11.1524 5.84874 10.9122L6.73803 7.66382C6.74767 7.62611 6.7556 7.58839 6.76267 7.55068C6.76974 7.51318 6.77339 7.47782 6.77339 7.44482C6.77339 7.25196 6.71232 7.13196 6.59017 7.08461C6.46782 7.03768 6.24453 7.00703 5.9201 6.99289V6.61146C6.19139 6.59261 6.58524 6.55382 7.10167 6.49489C7.61831 6.43618 7.9841 6.38539 8.19903 6.34318L8.81617 6.22296L7.69331 10.3402C7.59924 10.6932 7.53582 10.9381 7.5026 11.0748C7.41796 11.4232 7.37531 11.6493 7.37531 11.7526C7.37531 11.8563 7.39889 11.9234 7.44624 11.9538C7.49317 11.9847 7.54503 11.9999 7.60181 11.9999C7.74817 11.9999 7.92967 11.8752 8.14674 11.6255C8.36403 11.3761 8.55517 11.1147 8.72039 10.8417L9.03817 11.0465C8.56674 11.7385 8.20589 12.2045 7.95581 12.4447C7.54567 12.8403 7.10746 13.0381 6.64074 13.0381C6.37674 13.0381 6.13974 12.9571 5.93017 12.7942C5.72039 12.632 5.6156 12.3837 5.6156 12.0492C5.6156 11.9317 5.64389 11.7457 5.70046 11.4914ZM9.10181 3.27803C9.29017 3.46639 9.38446 3.69482 9.38446 3.96311C9.38446 4.23139 9.29017 4.46111 9.10181 4.65161C8.91346 4.84232 8.68524 4.93768 8.41674 4.93768C8.14846 4.93768 7.91896 4.84232 7.72824 4.65161C7.53753 4.46089 7.44217 4.23139 7.44217 3.96311C7.44217 3.69482 7.53753 3.46661 7.72824 3.27803C7.91896 3.08989 8.14846 2.99561 8.41674 2.99561C8.68503 2.99561 8.91346 3.08968 9.10181 3.27803Z" fill="currentColor"/>
	</symbol>
	<symbol id="icon-target" viewBox="0 0 15 16" fill="none" xmlns="http://www.w3.org/2000/svg">
		<path d="M7.5 14.25C10.9518 14.25 13.75 11.4518 13.75 8C13.75 4.54822 10.9518 1.75 7.5 1.75C4.04822 1.75 1.25 4.54822 1.25 8C1.25 11.4518 4.04822 14.25 7.5 14.25Z" stroke="currentColor" stroke-width="1.3" stroke-linecap="round" stroke-linejoin="round"/>
		<path d="M13.75 8H10.25" stroke="currentColor" stroke-width="1.3" stroke-linecap="round" stroke-linejoin="round"/>
		<path d="M4.75 8H1.25" stroke="currentColor" stroke-width="1.3" stroke-linecap="round" stroke-linejoin="round"/>
		<path d="M7.5 5.25V1.75" stroke="currentColor" stroke-width="1.3" stroke-linecap="round" stroke-linejoin="round"/>
		<path d="M7.5 14.25V10.75" stroke="currentColor" stroke-width="1.3" stroke-linecap="round" stroke-linejoin="round"/>
	</symbol>
    <symbol
        id="icon-search"
        fill="none"
        viewBox="0 0 18 18"
    >
        <path
            fill="currentColor"
            stroke="currentColor"
            stroke-width=".7"
            d="m16.65 16.18-3.89-3.88a6.82 6.82 0 1 0-.68.67l3.89 3.89a.48.48 0 0 0 .52.1.48.48 0 0 0 .15-.78ZM1.75 7.83a5.86 5.86 0 1 1 11.72 0 5.86 5.86 0 0 1-11.72 0Z"
        />
    </symbol>
    <symbol id="icon-cerificate-valid" fill="none" viewBox="0 0 20 20">
        <g stroke="#56AC30" stroke-linecap="round" stroke-linejoin="round" stroke-width="1.5"
            clip-path="url(#a)">
            <path d="M10 18.33a8.33 8.33 0 1 0 0-16.66 8.33 8.33 0 0 0 0 16.66Z" />
            <path d="M13.89 7.78 9.3 12.22 7.22 10.2" />
        </g>
        <defs>
            <clipPath id="a">
                <path fill="#fff" d="M0 0h20v20H0z" />
            </clipPath>
        </defs>
    </symbol>
    <symbol id="icon-cerificate-invalid" fill="none" viewBox="0 0 21 20">
        <path stroke="#E63755" stroke-linecap="round" stroke-linejoin="round" stroke-width="1.5"
            d="M10.5 18.33a8.33 8.33 0 1 0 0-16.66 8.33 8.33 0 0 0 0 16.66ZM13 7.5l-5 5m0-5 5 5" />
    </symbol>
    <symbol id="icon-cerificate-signed" fill="none" viewBox="0 0 20 20">
        <path stroke="#F08039" stroke-linecap="round" stroke-linejoin="round" stroke-width="1.5"
            d="M10 18a8.5 8.5 0 1 0 0-17 8.5 8.5 0 0 0 0 17Zm0-12.33v4.96m0 2.7h0" />
    </symbol>
    <symbol id="icon-close" fill="none" viewBox="0 0 24 24" stroke-width="1.5"
        stroke="currentColor">
        <path stroke-linecap="round" stroke-linejoin="round" d="M6 18L18 6M6 6l12 12" />
    </symbol>
    <symbol id="icon-user" fill="none" viewBox="0 0 21 21">
        <path stroke="currentColor" stroke-linecap="round" stroke-linejoin="round"
            stroke-width="1.2"
            d="M17.5 18.375v-1.75a3.5 3.5 0 0 0-3.5-3.5H7a3.5 3.5 0 0 0-3.5 3.5v1.75m7-8.75a3.5 3.5 0 1 0 0-7 3.5 3.5 0 0 0 0 7Z" />
    </symbol>
    <symbol id="icon-cog" fill="none" viewBox="0 0 21 21">
        <g stroke="currentColor" stroke-linecap="round" stroke-linejoin="round" stroke-width="1.2"
            clip-path="url(#a)">
            <path d="M10.5 13.125a2.625 2.625 0 1 0 0-5.25 2.625 2.625 0 0 0 0 5.25Z" />
            <path
                d="M16.975 13.125a1.444 1.444 0 0 0 .289 1.592l.052.053a1.75 1.75 0 0 1-1.908 2.856 1.748 1.748 0 0 1-.568-.38l-.053-.052a1.444 1.444 0 0 0-1.592-.289 1.444 1.444 0 0 0-.875 1.321v.149a1.75 1.75 0 0 1-3.5 0v-.079a1.444 1.444 0 0 0-.945-1.321 1.444 1.444 0 0 0-1.593.289l-.052.052a1.75 1.75 0 1 1-2.476-2.476l.052-.053a1.443 1.443 0 0 0 .289-1.592 1.444 1.444 0 0 0-1.321-.875h-.149a1.75 1.75 0 0 1 0-3.5h.079a1.444 1.444 0 0 0 1.321-.945 1.444 1.444 0 0 0-.289-1.593l-.052-.052A1.75 1.75 0 1 1 6.16 3.754l.053.052a1.444 1.444 0 0 0 1.592.289h.07a1.444 1.444 0 0 0 .875-1.321v-.149a1.75 1.75 0 1 1 3.5 0v.079a1.444 1.444 0 0 0 .875 1.321 1.444 1.444 0 0 0 1.592-.289l.053-.052a1.75 1.75 0 0 1 2.856.568 1.75 1.75 0 0 1-.38 1.908l-.052.053a1.444 1.444 0 0 0-.289 1.592v.07a1.444 1.444 0 0 0 1.321.875h.149a1.75 1.75 0 0 1 0 3.5h-.079a1.444 1.444 0 0 0-1.321.875v0Z" />
        </g>
        <defs>
            <clipPath id="a">
                <path fill="#fff" d="M0 0h21v21H0z" />
            </clipPath>
        </defs>
    </symbol>
    <symbol id="icon-logout" fill="none" viewBox="0 0 21 21">
        <path stroke="currentColor" stroke-linecap="round" stroke-linejoin="round"
            stroke-width="1.2"
            d="M7.875 18.375h-3.5a1.75 1.75 0 0 1-1.75-1.75V4.375a1.75 1.75 0 0 1 1.75-1.75h3.5M14 14.875l4.375-4.375L14 6.125m4.375 4.375h-10.5" />
    </symbol>
    <symbol id="icon-delete-alert" fill="none" viewBox="0 0 54 46">
        <path stroke="#EF870C" stroke-linecap="round" stroke-linejoin="round" stroke-width="2"
            d="M22.867 3.329 2.397 37.5a4.834 4.834 0 0 0 4.133 7.25h40.938a4.834 4.834 0 0 0 4.133-7.25L31.131 3.33a4.833 4.833 0 0 0-8.264 0v0ZM27 16v13m0 6.084h.024" />
    </symbol>
    <symbol id="icon-filter" fill="none" viewBox="0 0 19 19">
        <path stroke="currentColor" stroke-linecap="round" stroke-linejoin="round"
            stroke-width="1.5"
            d="M17.417 2.375H1.584l6.333 7.49v5.177l3.167 1.583v-6.76l6.333-7.49Z" />
    </symbol>
    <symbol id="icon-properties" fill="none" viewBox="0 0 17 13">
        <path stroke="currentColor" stroke-width="1.3"
            d="M16.501 1H4.723m11.778 5.499H4.723m11.778 5.5H4.723M2.95 1H.5m2.45 5.5H.5M2.95 12H.5" />
    </symbol>

	<symbol id="icon-checklist" viewBox="0 0 19 19" fill="none" xmlns="http://www.w3.org/2000/svg">
		<mask id="mask0_1406_8092" style="mask-type:alpha" maskUnits="userSpaceOnUse" x="0" y="0" width="19" height="19">
			<rect width="19" height="19" fill="#D9D9D9"/>
		</mask>
		<g mask="url(#mask0_1406_8092)">
			<path d="M4.41752 15.1931L1.45074 12.2313L2.71543 10.9715L4.39772 12.6538L7.76231 9.28451L9.02205 10.5688L4.41752 15.1931ZM4.41752 8.85978L1.45074 5.89795L2.71543 4.63821L4.39772 6.32051L7.76231 2.95117L9.02205 4.23545L4.41752 8.85978ZM10.3154 13.5672V11.7662H17.5493V13.5672H10.3154ZM10.3154 7.23389V5.43285H17.5493V7.23389H10.3154Z" fill="currentColor"/>
		</g>
	</symbol>

    <symbol id="icon-value-in" fill="none" viewBox="0 0 14 14" xmlns="http://www.w3.org/2000/svg">
		<path d="M10.4791 7.83594H0.333252V6.16927H10.4791L5.81242 1.5026L6.99992 0.335938L13.6666 7.0026L6.99992 13.6693L5.81242 12.5026L10.4791 7.83594Z" fill="#6EBA14"/>
    </symbol>
	<symbol id="icon-export-api-logs" viewBox="0 0 21 20" fill="none" xmlns="http://www.w3.org/2000/svg">
		<mask id="mask0_1412_9055" style="mask-type:alpha" maskUnits="userSpaceOnUse" x="0" y="0" width="21" height="20">
			<rect x="0.919434" width="20" height="20" fill="#D9D9D9"/>
		</mask>
		<g mask="url(#mask0_1412_9055)">
			<path d="M8.16943 13.9167L7.00277 12.75L10.5861 9.16667H7.5861V7.5H13.4194V13.3333H11.7528V10.3333L8.16943 13.9167ZM16.7528 10V4.16667H10.9194V2.5H18.4194V10H16.7528ZM5.0861 17.5C4.62777 17.5 4.23541 17.3368 3.90902 17.0104C3.58263 16.684 3.41943 16.2917 3.41943 15.8333V2.5H5.0861V15.8333H18.4194V17.5H5.0861Z" fill="#5F4CD9"/>
		</g>
	</symbol>


    <symbol id="icon-value-out" fill="none" viewBox="0 0 14 14" xmlns="http://www.w3.org/2000/svg">
		<path d="M3.52092 6.16601L13.6667 6.16602L13.6667 7.83268L3.52092 7.83268L8.18758 12.4993L7.00008 13.666L0.333416 6.99935L7.00008 0.332682L8.18758 1.49935L3.52092 6.16601Z" fill="#5F4CD9"/>
    </symbol>
	
    <symbol id="icon-plus-circle" fill="none" stroke="currentColor" stroke-width="1.5"
        viewBox="0 0 24 24">
        <path stroke-linecap="round" stroke-linejoin="round"
            d="M12 9v6m3-3H9m12 0a9 9 0 1 1-18 0 9 9 0 0 1 18 0z" />
    </symbol>
    <symbol id="icon-minus-circle" fill="none" stroke="currentColor" stroke-width="1.5"
        viewBox="0 0 24 24">
        <path stroke-linecap="round" stroke-linejoin="round"
            d="M15 12H9m12 0a9 9 0 1 1-18 0 9 9 0 0 1 18 0z" />
    </symbol>
    <symbol id="icon-copy" fill="none" stroke="currentColor" stroke-width="1.5"
        viewBox="0 0 24 24">
        <path stroke-linecap="round" stroke-linejoin="round"
            d="M13.19 8.688a4.5 4.5 0 0 1 1.242 7.244l-4.5 4.5a4.5 4.5 0 0 1-6.364-6.364l1.757-1.757m13.35-.622 1.757-1.757a4.5 4.5 0 0 0-6.364-6.364l-4.5 4.5a4.5 4.5 0 0 0 1.242 7.244" />
    </symbol>

	<symbol id="icon-content-copy" viewBox="0 0 20 20" fill="none" xmlns="http://www.w3.org/2000/svg">
		<mask id="mask0_1212_1928" style="mask-type:alpha" maskUnits="userSpaceOnUse" x="0" y="0" width="20" height="20">
			<rect width="20" height="20" fill="#D9D9D9"/>
		</mask>
		<g mask="url(#mask0_1212_1928)">
			<path d="M7.5 15.0003C7.04167 15.0003 6.64931 14.8371 6.32292 14.5107C5.99653 14.1844 5.83333 13.792 5.83333 13.3337V3.33366C5.83333 2.87533 5.99653 2.48296 6.32292 2.15658C6.64931 1.83019 7.04167 1.66699 7.5 1.66699H15C15.4583 1.66699 15.8507 1.83019 16.1771 2.15658C16.5035 2.48296 16.6667 2.87533 16.6667 3.33366V13.3337C16.6667 13.792 16.5035 14.1844 16.1771 14.5107C15.8507 14.8371 15.4583 15.0003 15 15.0003H7.5ZM7.5 13.3337H15V8.33366V3.33366H7.5V13.3337ZM4.16667 18.3337C3.70833 18.3337 3.31597 18.1705 2.98958 17.8441C2.66319 17.5177 2.5 17.1253 2.5 16.667V5.00032H4.16667V16.667H13.3333V18.3337H4.16667Z" fill="#5F4CD9"/>
		</g>
	</symbol>

	<symbol id="icon-check-circle" viewBox="0 0 20 20" fill="none" xmlns="http://www.w3.org/2000/svg">
		<mask id="mask0_1212_1919" style="mask-type:alpha" maskUnits="userSpaceOnUse" x="0" y="0" width="20" height="20">
			<rect width="20" height="20" fill="#D9D9D9"/>
		</mask>
		<g mask="url(#mask0_1212_1919)">
			<path d="M8.83334 13.8337L14.7083 7.95866L13.5417 6.79199L8.83334 11.5003L6.45834 9.12533L5.29167 10.292L8.83334 13.8337ZM10 18.3337C8.84723 18.3337 7.76389 18.1149 6.75 17.6774C5.73612 17.2399 4.85417 16.6462 4.10417 15.8962C3.35417 15.1462 2.76042 14.2642 2.32292 13.2503C1.88542 12.2364 1.66667 11.1531 1.66667 10.0003C1.66667 8.84755 1.88542 7.76421 2.32292 6.75033C2.76042 5.73644 3.35417 4.85449 4.10417 4.10449C4.85417 3.35449 5.73612 2.76074 6.75 2.32324C7.76389 1.88574 8.84723 1.66699 10 1.66699C11.1528 1.66699 12.2361 1.88574 13.25 2.32324C14.2639 2.76074 15.1458 3.35449 15.8958 4.10449C16.6458 4.85449 17.2396 5.73644 17.6771 6.75033C18.1146 7.76421 18.3333 8.84755 18.3333 10.0003C18.3333 11.1531 18.1146 12.2364 17.6771 13.2503C17.2396 14.2642 16.6458 15.1462 15.8958 15.8962C15.1458 16.6462 14.2639 17.2399 13.25 17.6774C12.2361 18.1149 11.1528 18.3337 10 18.3337ZM10 16.667C11.8611 16.667 13.4375 16.0212 14.7292 14.7295C16.0208 13.4378 16.6667 11.8614 16.6667 10.0003C16.6667 8.13921 16.0208 6.56283 14.7292 5.27116C13.4375 3.97949 11.8611 3.33366 10 3.33366C8.13889 3.33366 6.56251 3.97949 5.27084 5.27116C3.97917 6.56283 3.33334 8.13921 3.33334 10.0003C3.33334 11.8614 3.97917 13.4378 5.27084 14.7295C6.56251 16.0212 8.13889 16.667 10 16.667Z" fill="white"/>
		</g>
	</symbol>

	<symbol id="icon-backlight" viewBox="0 0 20 20" fill="none" xmlns="http://www.w3.org/2000/svg">
		<mask id="mask0_1393_1635" style="mask-type:alpha" maskUnits="userSpaceOnUse" x="0" y="0" width="20" height="20">
			<rect y="0.236328" width="20" height="20" fill="#CF2F2F"/>
		</mask>
		<g mask="url(#mask0_1393_1635)">
			<path d="M0.71875 12.7344V10.8385H4.28125V12.7344H0.71875ZM5.29167 8.40917L2.76312 5.88062L4.09417 4.53375L6.62271 7.07812L5.29167 8.40917ZM5.71875 15.4635V12.7344H14.2812V15.4635H5.71875ZM9.05208 6.06771V1.67188H10.9479V6.06771H9.05208ZM14.7083 8.41417L13.3823 7.07812L15.9058 4.54958L17.2477 5.88562L14.7083 8.41417ZM15.7187 12.7344V10.8385H19.2812V12.7344H15.7187Z" fill="#B73D32"/>
		</g>
	</symbol>

	<symbol id="icon-tune" viewBox="0 0 19 19" fill="none" xmlns="http://www.w3.org/2000/svg">
		<mask id="mask0_1406_8071" style="mask-type:alpha" maskUnits="userSpaceOnUse" x="0" y="0" width="19" height="19">
			<rect width="19" height="19" fill="#D9D9D9"/>
		</mask>
		<g mask="url(#mask0_1406_8071)">
			<path d="M8.67038 16.7718V11.8752H10.4004V13.4585H16.7337V15.1885H10.4004V16.7718H8.67038ZM2.26599 15.1885V13.4585H7.16265V15.1885H2.26599ZM5.43266 11.9462V10.3629H2.26599V8.63745H5.43266V7.05412H7.16265V11.9462H5.43266ZM8.67038 10.3629V8.63745H16.7337V10.3629H8.67038ZM11.837 7.12517V2.22852H13.567V3.81185H16.7337V5.54184H13.567V7.12517H11.837ZM2.26599 5.54184V3.81185H10.3293V5.54184H2.26599Z" fill="currentColor"/>
		</g>
	</symbol>


    <symbol id="icon-check-line" fill="none" stroke="currentColor" stroke-width="1.5"
        viewBox="0 0 24 24">
        <path stroke-linecap="round" stroke-linejoin="round" d="m4.5 12.75 6 6 9-13.5" />
    </symbol>
    <symbol id="icon-dark-mode" fill="none" viewBox="0 0 18 18">
        <path stroke="currentColor" stroke-linecap="round" stroke-linejoin="round"
            stroke-width="1.5"
            d="M16.86 9.7a7.87 7.87 0 1 1-8.57-8.56 6.12 6.12 0 0 0 8.57 8.57Z" />
    </symbol>
    <symbol id="icon-light-mode" fill="none" viewBox="0 0 18 18">
        <g stroke="currentColor" stroke-linecap="round" stroke-linejoin="round"
            stroke-width="1.5"
            clip-path="url(#a)">
            <path
                d="M9 12.75a3.75 3.75 0 1 0 0-7.5 3.75 3.75 0 0 0 0 7.5Zm0-12v1.5m0 13.5v1.5M3.17 3.17l1.06 1.06m9.54 9.54 1.07 1.07M.75 9h1.5m13.5 0h1.5M3.17 14.84l1.06-1.07m9.54-9.54 1.07-1.07" />
        </g>
        <defs>
            <clipPath id="a">
                <path fill="currentColor" d="M0 0h18v18H0z" />
            </clipPath>
        </defs>
    </symbol>
	<symbol id="icon-burger-menu" viewBox="0 0 28 29" fill="none" xmlns="http://www.w3.org/2000/svg">
		<path d="M4.17398 13.5358L21.5311 13.5358" stroke="#DBDBDB" stroke-width="1.5" stroke-linecap="round" stroke-linejoin="round"/>
		<path d="M8.99541 19.3214L21.5311 19.3214" stroke="#DBDBDB" stroke-width="1.5" stroke-linecap="round" stroke-linejoin="round"/>
		<path d="M8.99541 7.75L21.5311 7.75" stroke="#DBDBDB" stroke-width="1.5" stroke-linecap="round" stroke-linejoin="round"/>
	</symbol>
	<symbol id="icon-link-2" fill="none" viewBox="0 0 25 25" xmlns="http://www.w3.org/2000/svg">
		<mask id="a" x="0" y="0" width="25" height="25" style="mask-type:alpha" maskUnits="userSpaceOnUse">
			<rect x=".6618" y=".61536" width="24" height="24" fill="#5F5F5F" />
		</mask>
		<g mask="url(#a)">
			<path
				d="m11.662 17.615h-4c-1.3833 0-2.5625-0.4875-3.5375-1.4625s-1.4625-2.1542-1.4625-3.5375c0-1.3834 0.4875-2.5625 1.4625-3.5375 0.975-0.975 2.1542-1.4625 3.5375-1.4625h4v2h-4c-0.83333 0-1.5417 0.29166-2.125 0.87504-0.58333 0.5833-0.875 1.2916-0.875 2.125 0 0.8333 0.29167 1.5416 0.875 2.125 0.58334 0.5833 1.2917 0.875 2.125 0.875h4v2zm-3-4v-2h8v2h-8zm5 4v-2h4c0.8333 0 1.5417-0.2917 2.125-0.875 0.5833-0.5834 0.875-1.2917 0.875-2.125 0-0.8334-0.2917-1.5417-0.875-2.125-0.5833-0.58338-1.2917-0.87504-2.125-0.87504h-4v-2h4c1.3833 0 2.5625 0.4875 3.5375 1.4625 0.975 0.97504 1.4625 2.1541 1.4625 3.5375 0 1.3833-0.4875 2.5625-1.4625 3.5375s-2.1542 1.4625-3.5375 1.4625h-4z"
				fill="#5F5F5F" />
		</g>
	</symbol>
	<symbol id="icon-dots-circle" viewBox="0 0 40 40" fill="none" xmlns="http://www.w3.org/2000/svg">
		<mask id="mask0_3457_748" style="mask-type:alpha" maskUnits="userSpaceOnUse" x="0" y="0" width="40" height="40">
			<rect width="40" height="40" fill="#969696" />
		</mask>
		<g mask="url(#mask0_3457_748)">
			<path
				d="M5.00014 24.1664C4.77792 24.1664 4.58348 24.083 4.41681 23.9164C4.25014 23.7497 4.16681 23.5553 4.16681 23.333C4.16681 23.1108 4.25014 22.9164 4.41681 22.7497C4.58348 22.583 4.77792 22.4997 5.00014 22.4997C5.22236 22.4997 5.41681 22.583 5.58347 22.7497C5.75014 22.9164 5.83347 23.1108 5.83347 23.333C5.83347 23.5553 5.75014 23.7497 5.58347 23.9164C5.41681 24.083 5.22236 24.1664 5.00014 24.1664ZM5.00014 17.4997C4.77792 17.4997 4.58348 17.4164 4.41681 17.2497C4.25014 17.083 4.16681 16.8886 4.16681 16.6664C4.16681 16.4442 4.25014 16.2497 4.41681 16.083C4.58348 15.9164 4.77792 15.833 5.00014 15.833C5.22236 15.833 5.41681 15.9164 5.58347 16.083C5.75014 16.2497 5.83347 16.4442 5.83347 16.6664C5.83347 16.8886 5.75014 17.083 5.58347 17.2497C5.41681 17.4164 5.22236 17.4997 5.00014 17.4997ZM10.0001 31.6664C9.52792 31.6664 9.13208 31.5066 8.81264 31.1872C8.4932 30.8678 8.33347 30.4719 8.33347 29.9997C8.33347 29.5275 8.4932 29.1316 8.81264 28.8122C9.13208 28.4928 9.52792 28.333 10.0001 28.333C10.4724 28.333 10.8682 28.4928 11.1876 28.8122C11.5071 29.1316 11.6668 29.5275 11.6668 29.9997C11.6668 30.4719 11.5071 30.8678 11.1876 31.1872C10.8682 31.5066 10.4724 31.6664 10.0001 31.6664ZM10.0001 24.9997C9.52792 24.9997 9.13208 24.84 8.81264 24.5205C8.4932 24.2011 8.33347 23.8053 8.33347 23.333C8.33347 22.8608 8.4932 22.465 8.81264 22.1455C9.13208 21.8261 9.52792 21.6664 10.0001 21.6664C10.4724 21.6664 10.8682 21.8261 11.1876 22.1455C11.5071 22.465 11.6668 22.8608 11.6668 23.333C11.6668 23.8053 11.5071 24.2011 11.1876 24.5205C10.8682 24.84 10.4724 24.9997 10.0001 24.9997ZM10.0001 18.333C9.52792 18.333 9.13208 18.1733 8.81264 17.8539C8.4932 17.5344 8.33347 17.1386 8.33347 16.6664C8.33347 16.1942 8.4932 15.7983 8.81264 15.4789C9.13208 15.1594 9.52792 14.9997 10.0001 14.9997C10.4724 14.9997 10.8682 15.1594 11.1876 15.4789C11.5071 15.7983 11.6668 16.1942 11.6668 16.6664C11.6668 17.1386 11.5071 17.5344 11.1876 17.8539C10.8682 18.1733 10.4724 18.333 10.0001 18.333ZM10.0001 11.6664C9.52792 11.6664 9.13208 11.5067 8.81264 11.1872C8.4932 10.8678 8.33347 10.4719 8.33347 9.99971C8.33347 9.52749 8.4932 9.13166 8.81264 8.81221C9.13208 8.49277 9.52792 8.33305 10.0001 8.33305C10.4724 8.33305 10.8682 8.49277 11.1876 8.81221C11.5071 9.13166 11.6668 9.52749 11.6668 9.99971C11.6668 10.4719 11.5071 10.8678 11.1876 11.1872C10.8682 11.5067 10.4724 11.6664 10.0001 11.6664ZM16.6668 25.833C15.9724 25.833 15.3821 25.59 14.896 25.1039C14.4099 24.6178 14.1668 24.0275 14.1668 23.333C14.1668 22.6386 14.4099 22.0483 14.896 21.5622C15.3821 21.0761 15.9724 20.833 16.6668 20.833C17.3612 20.833 17.9515 21.0761 18.4376 21.5622C18.9237 22.0483 19.1668 22.6386 19.1668 23.333C19.1668 24.0275 18.9237 24.6178 18.4376 25.1039C17.9515 25.59 17.3612 25.833 16.6668 25.833ZM16.6668 19.1664C15.9724 19.1664 15.3821 18.9233 14.896 18.4372C14.4099 17.9511 14.1668 17.3608 14.1668 16.6664C14.1668 15.9719 14.4099 15.3817 14.896 14.8955C15.3821 14.4094 15.9724 14.1664 16.6668 14.1664C17.3612 14.1664 17.9515 14.4094 18.4376 14.8955C18.9237 15.3817 19.1668 15.9719 19.1668 16.6664C19.1668 17.3608 18.9237 17.9511 18.4376 18.4372C17.9515 18.9233 17.3612 19.1664 16.6668 19.1664ZM16.6668 31.6664C16.1946 31.6664 15.7987 31.5066 15.4793 31.1872C15.1599 30.8678 15.0001 30.4719 15.0001 29.9997C15.0001 29.5275 15.1599 29.1316 15.4793 28.8122C15.7987 28.4928 16.1946 28.333 16.6668 28.333C17.139 28.333 17.5349 28.4928 17.8543 28.8122C18.1737 29.1316 18.3335 29.5275 18.3335 29.9997C18.3335 30.4719 18.1737 30.8678 17.8543 31.1872C17.5349 31.5066 17.139 31.6664 16.6668 31.6664ZM16.6668 11.6664C16.1946 11.6664 15.7987 11.5067 15.4793 11.1872C15.1599 10.8678 15.0001 10.4719 15.0001 9.99971C15.0001 9.52749 15.1599 9.13166 15.4793 8.81221C15.7987 8.49277 16.1946 8.33305 16.6668 8.33305C17.139 8.33305 17.5349 8.49277 17.8543 8.81221C18.1737 9.13166 18.3335 9.52749 18.3335 9.99971C18.3335 10.4719 18.1737 10.8678 17.8543 11.1872C17.5349 11.5067 17.139 11.6664 16.6668 11.6664ZM16.6668 35.833C16.4446 35.833 16.2501 35.7497 16.0835 35.583C15.9168 35.4164 15.8335 35.2219 15.8335 34.9997C15.8335 34.7775 15.9168 34.583 16.0835 34.4164C16.2501 34.2497 16.4446 34.1664 16.6668 34.1664C16.889 34.1664 17.0835 34.2497 17.2501 34.4164C17.4168 34.583 17.5001 34.7775 17.5001 34.9997C17.5001 35.2219 17.4168 35.4164 17.2501 35.583C17.0835 35.7497 16.889 35.833 16.6668 35.833ZM16.6668 5.83305C16.4446 5.83305 16.2501 5.74971 16.0835 5.58305C15.9168 5.41638 15.8335 5.22194 15.8335 4.99971C15.8335 4.77749 15.9168 4.58305 16.0835 4.41638C16.2501 4.24972 16.4446 4.16638 16.6668 4.16638C16.889 4.16638 17.0835 4.24972 17.2501 4.41638C17.4168 4.58305 17.5001 4.77749 17.5001 4.99971C17.5001 5.22194 17.4168 5.41638 17.2501 5.58305C17.0835 5.74971 16.889 5.83305 16.6668 5.83305ZM23.3335 25.833C22.639 25.833 22.0487 25.59 21.5626 25.1039C21.0765 24.6178 20.8335 24.0275 20.8335 23.333C20.8335 22.6386 21.0765 22.0483 21.5626 21.5622C22.0487 21.0761 22.639 20.833 23.3335 20.833C24.0279 20.833 24.6182 21.0761 25.1043 21.5622C25.5904 22.0483 25.8335 22.6386 25.8335 23.333C25.8335 24.0275 25.5904 24.6178 25.1043 25.1039C24.6182 25.59 24.0279 25.833 23.3335 25.833ZM23.3335 19.1664C22.639 19.1664 22.0487 18.9233 21.5626 18.4372C21.0765 17.9511 20.8335 17.3608 20.8335 16.6664C20.8335 15.9719 21.0765 15.3817 21.5626 14.8955C22.0487 14.4094 22.639 14.1664 23.3335 14.1664C24.0279 14.1664 24.6182 14.4094 25.1043 14.8955C25.5904 15.3817 25.8335 15.9719 25.8335 16.6664C25.8335 17.3608 25.5904 17.9511 25.1043 18.4372C24.6182 18.9233 24.0279 19.1664 23.3335 19.1664ZM23.3335 31.6664C22.8612 31.6664 22.4654 31.5066 22.146 31.1872C21.8265 30.8678 21.6668 30.4719 21.6668 29.9997C21.6668 29.5275 21.8265 29.1316 22.146 28.8122C22.4654 28.4928 22.8612 28.333 23.3335 28.333C23.8057 28.333 24.2015 28.4928 24.521 28.8122C24.8404 29.1316 25.0001 29.5275 25.0001 29.9997C25.0001 30.4719 24.8404 30.8678 24.521 31.1872C24.2015 31.5066 23.8057 31.6664 23.3335 31.6664ZM23.3335 11.6664C22.8612 11.6664 22.4654 11.5067 22.146 11.1872C21.8265 10.8678 21.6668 10.4719 21.6668 9.99971C21.6668 9.52749 21.8265 9.13166 22.146 8.81221C22.4654 8.49277 22.8612 8.33305 23.3335 8.33305C23.8057 8.33305 24.2015 8.49277 24.521 8.81221C24.8404 9.13166 25.0001 9.52749 25.0001 9.99971C25.0001 10.4719 24.8404 10.8678 24.521 11.1872C24.2015 11.5067 23.8057 11.6664 23.3335 11.6664ZM23.3335 35.833C23.1112 35.833 22.9168 35.7497 22.7501 35.583C22.5835 35.4164 22.5001 35.2219 22.5001 34.9997C22.5001 34.7775 22.5835 34.583 22.7501 34.4164C22.9168 34.2497 23.1112 34.1664 23.3335 34.1664C23.5557 34.1664 23.7501 34.2497 23.9168 34.4164C24.0835 34.583 24.1668 34.7775 24.1668 34.9997C24.1668 35.2219 24.0835 35.4164 23.9168 35.583C23.7501 35.7497 23.5557 35.833 23.3335 35.833ZM23.3335 5.83305C23.1112 5.83305 22.9168 5.74971 22.7501 5.58305C22.5835 5.41638 22.5001 5.22194 22.5001 4.99971C22.5001 4.77749 22.5835 4.58305 22.7501 4.41638C22.9168 4.24972 23.1112 4.16638 23.3335 4.16638C23.5557 4.16638 23.7501 4.24972 23.9168 4.41638C24.0835 4.58305 24.1668 4.77749 24.1668 4.99971C24.1668 5.22194 24.0835 5.41638 23.9168 5.58305C23.7501 5.74971 23.5557 5.83305 23.3335 5.83305ZM30.0001 31.6664C29.5279 31.6664 29.1321 31.5066 28.8126 31.1872C28.4932 30.8678 28.3335 30.4719 28.3335 29.9997C28.3335 29.5275 28.4932 29.1316 28.8126 28.8122C29.1321 28.4928 29.5279 28.333 30.0001 28.333C30.4724 28.333 30.8682 28.4928 31.1876 28.8122C31.5071 29.1316 31.6668 29.5275 31.6668 29.9997C31.6668 30.4719 31.5071 30.8678 31.1876 31.1872C30.8682 31.5066 30.4724 31.6664 30.0001 31.6664ZM30.0001 24.9997C29.5279 24.9997 29.1321 24.84 28.8126 24.5205C28.4932 24.2011 28.3335 23.8053 28.3335 23.333C28.3335 22.8608 28.4932 22.465 28.8126 22.1455C29.1321 21.8261 29.5279 21.6664 30.0001 21.6664C30.4724 21.6664 30.8682 21.8261 31.1876 22.1455C31.5071 22.465 31.6668 22.8608 31.6668 23.333C31.6668 23.8053 31.5071 24.2011 31.1876 24.5205C30.8682 24.84 30.4724 24.9997 30.0001 24.9997ZM30.0001 18.333C29.5279 18.333 29.1321 18.1733 28.8126 17.8539C28.4932 17.5344 28.3335 17.1386 28.3335 16.6664C28.3335 16.1942 28.4932 15.7983 28.8126 15.4789C29.1321 15.1594 29.5279 14.9997 30.0001 14.9997C30.4724 14.9997 30.8682 15.1594 31.1876 15.4789C31.5071 15.7983 31.6668 16.1942 31.6668 16.6664C31.6668 17.1386 31.5071 17.5344 31.1876 17.8539C30.8682 18.1733 30.4724 18.333 30.0001 18.333ZM30.0001 11.6664C29.5279 11.6664 29.1321 11.5067 28.8126 11.1872C28.4932 10.8678 28.3335 10.4719 28.3335 9.99971C28.3335 9.52749 28.4932 9.13166 28.8126 8.81221C29.1321 8.49277 29.5279 8.33305 30.0001 8.33305C30.4724 8.33305 30.8682 8.49277 31.1876 8.81221C31.5071 9.13166 31.6668 9.52749 31.6668 9.99971C31.6668 10.4719 31.5071 10.8678 31.1876 11.1872C30.8682 11.5067 30.4724 11.6664 30.0001 11.6664ZM35.0001 24.1664C34.7779 24.1664 34.5835 24.083 34.4168 23.9164C34.2501 23.7497 34.1668 23.5553 34.1668 23.333C34.1668 23.1108 34.2501 22.9164 34.4168 22.7497C34.5835 22.583 34.7779 22.4997 35.0001 22.4997C35.2223 22.4997 35.4168 22.583 35.5835 22.7497C35.7501 22.9164 35.8335 23.1108 35.8335 23.333C35.8335 23.5553 35.7501 23.7497 35.5835 23.9164C35.4168 24.083 35.2223 24.1664 35.0001 24.1664ZM35.0001 17.4997C34.7779 17.4997 34.5835 17.4164 34.4168 17.2497C34.2501 17.083 34.1668 16.8886 34.1668 16.6664C34.1668 16.4442 34.2501 16.2497 34.4168 16.083C34.5835 15.9164 34.7779 15.833 35.0001 15.833C35.2223 15.833 35.4168 15.9164 35.5835 16.083C35.7501 16.2497 35.8335 16.4442 35.8335 16.6664C35.8335 16.8886 35.7501 17.083 35.5835 17.2497C35.4168 17.4164 35.2223 17.4997 35.0001 17.4997Z"
				fill="url(#paint0_linear_3457_748)" />
		</g>
		<defs>
			<linearGradient id="paint0_linear_3457_748" x1="20.0001" y1="4.16638" x2="20.0001" y2="35.833"
				gradientUnits="userSpaceOnUse">
				<stop stop-color="#707070" />
				<stop offset="1" stop-color="#4E4E4E" />
			</linearGradient>
		</defs>
	</symbol>
	<symbol id="icon-triangle-square-loop" viewBox="0 0 40 40" fill="none" xmlns="http://www.w3.org/2000/svg">
		<mask id="mask0_3457_756" style="mask-type:alpha" maskUnits="userSpaceOnUse" x="0" y="0" width="40" height="40">
			<rect width="40" height="40" fill="#D9D9D9" />
		</mask>
		<g mask="url(#mask0_3457_756)">
			<path
				d="M5 32.5V21.7308H15.7692V32.5H5ZM6.66667 30.8333H14.1025V23.3975H6.66667V30.8333ZM11.8587 15L18.7179 3.7179L25.5771 15H11.8587ZM14.7629 13.3333H22.6729L18.7179 6.99373L14.7629 13.3333ZM36.0225 36.3908L31.67 32.0383C31.1506 32.4486 30.5719 32.7671 29.9342 32.9937C29.2964 33.2201 28.6132 33.3333 27.8846 33.3333C26.1432 33.3333 24.6715 32.7323 23.4696 31.5304C22.2676 30.3285 21.6667 28.8568 21.6667 27.1154C21.6667 25.374 22.2676 23.9023 23.4696 22.7004C24.6715 21.4985 26.1432 20.8975 27.8846 20.8975C29.626 20.8975 31.0976 21.4985 32.2996 22.7004C33.5015 23.9023 34.1025 25.374 34.1025 27.1154C34.1025 27.8376 33.9893 28.5123 33.7629 29.1396C33.5362 29.7665 33.2317 30.3397 32.8492 30.8591L37.2021 35.2117L36.0225 36.3908ZM27.8838 31.6667C29.1579 31.6667 30.2351 31.2268 31.1154 30.3471C31.9957 29.4673 32.4358 28.3904 32.4358 27.1162C32.4358 25.8421 31.996 24.7648 31.1162 23.8846C30.2365 23.0043 29.1596 22.5641 27.8854 22.5641C26.6112 22.5641 25.534 23.004 24.6538 23.8837C23.7735 24.7635 23.3333 25.8404 23.3333 27.1146C23.3333 28.3887 23.7732 29.466 24.6529 30.3462C25.5326 31.2265 26.6096 31.6667 27.8838 31.6667Z"
				fill="url(#paint0_linear_3457_756)" />
		</g>
		<defs>
			<linearGradient id="paint0_linear_3457_756" x1="21.101" y1="3.7179" x2="21.101" y2="36.3908"
				gradientUnits="userSpaceOnUse">
				<stop stop-color="#707070" />
				<stop offset="1" stop-color="#4E4E4E" />
			</linearGradient>
		</defs>
	</symbol>
	<symbol id="icon-update" viewBox="0 0 40 40" fill="none" xmlns="http://www.w3.org/2000/svg">
		<mask id="mask0_3457_764" style="mask-type:alpha" maskUnits="userSpaceOnUse" x="0" y="0" width="40" height="40">
			<rect width="40" height="40" fill="#969696" />
		</mask>
		<g mask="url(#mask0_3457_764)">
			<path
				d="M19.9358 23.3334V22.0192C19.9358 21.4531 20.1308 20.975 20.5208 20.585C20.9108 20.195 21.3889 20 21.955 20H23.2692L19.9358 23.3334ZM19.9358 29.6892V27.5896L27.5575 20H29.6571L19.9358 29.6892ZM20.0513 33.9038L33.8942 20.0513C34.1678 20.0982 34.4001 20.2174 34.5913 20.4088C34.7826 20.5999 34.9018 20.8322 34.9488 21.1059L21.0963 34.9488C20.8226 34.9168 20.5881 34.8031 20.3925 34.6075C20.1969 34.412 20.0832 34.1774 20.0513 33.9038ZM25.3108 35L35 25.3109V27.3784L27.4104 35H25.3108ZM31.6667 35L35 31.6667V32.9809C35 33.547 34.805 34.025 34.415 34.415C34.025 34.805 33.5469 35 32.9808 35H31.6667ZM32.7021 16.0259H30.9742C30.1667 13.7736 28.7757 11.9285 26.8013 10.4904C24.8268 9.05238 22.5597 8.33335 20 8.33335C16.75 8.33335 13.9931 9.4653 11.7292 11.7292C9.46528 13.9931 8.33334 16.75 8.33334 20C8.33334 22.342 8.95028 24.4478 10.1842 26.3175C11.4183 28.187 13.0236 29.5854 15 30.5129V25H16.6667V33.3334H8.33334V31.6667H13.8525C11.7244 30.5556 9.99473 28.9717 8.66334 26.915C7.33223 24.8584 6.66667 22.5534 6.66667 20C6.66667 18.1517 7.01445 16.4193 7.71 14.8029C8.40556 13.1865 9.35751 11.7742 10.5658 10.5659C11.7742 9.35752 13.1865 8.40557 14.8029 7.71002C16.4193 7.01446 18.1517 6.66669 20 6.66669C23.0064 6.66669 25.6608 7.54655 27.9633 9.30627C30.2656 11.0657 31.8451 13.3056 32.7021 16.0259Z"
				fill="url(#paint0_linear_3457_764)" />
		</g>
		<defs>
			<linearGradient id="paint0_linear_3457_764" x1="20.8333" y1="6.66669" x2="20.8333" y2="35"
				gradientUnits="userSpaceOnUse">
				<stop stop-color="#707070" />
				<stop offset="1" stop-color="#4E4E4E" />
			</linearGradient>
		</defs>
	</symbol>
	<symbol id="icon-paper-target" viewBox="0 0 40 40" fill="none" xmlns="http://www.w3.org/2000/svg">
		<mask id="mask0_3457_769" style="mask-type:alpha" maskUnits="userSpaceOnUse" x="0" y="0" width="40" height="40">
			<rect width="40" height="40" fill="#969696" />
		</mask>
		<g mask="url(#mask0_3457_769)">
			<path
				d="M4.16663 9.16667V2.5H10.8333V4.16667H5.83329V9.16667H4.16663ZM34.1666 9.16667V4.16667H29.1666V2.5H35.8333V9.16667H34.1666ZM4.16663 37.5V30.8333H5.83329V35.8333H10.8333V37.5H4.16663ZM29.1666 37.5V35.8333H34.1666V30.8333H35.8333V37.5H29.1666ZM10.8333 29.8075C10.8333 30.0642 10.9401 30.2993 11.1537 30.5129C11.3673 30.7265 11.6025 30.8333 11.8591 30.8333H28.1408C28.3975 30.8333 28.6326 30.7265 28.8462 30.5129C29.0598 30.2993 29.1666 30.0642 29.1666 29.8075V10.1925C29.1666 9.93583 29.0598 9.70069 28.8462 9.48708C28.6326 9.27347 28.3975 9.16667 28.1408 9.16667H11.8591C11.6025 9.16667 11.3673 9.27347 11.1537 9.48708C10.9401 9.70069 10.8333 9.93583 10.8333 10.1925V29.8075ZM11.8591 32.5C11.0919 32.5 10.4513 32.2431 9.93746 31.7292C9.42357 31.2153 9.16663 30.5747 9.16663 29.8075V10.1925C9.16663 9.42528 9.42357 8.78472 9.93746 8.27083C10.4513 7.75694 11.0919 7.5 11.8591 7.5H28.1408C28.908 7.5 29.5486 7.75694 30.0625 8.27083C30.5763 8.78472 30.8333 9.42528 30.8333 10.1925V29.8075C30.8333 30.5747 30.5763 31.2153 30.0625 31.7292C29.5486 32.2431 28.908 32.5 28.1408 32.5H11.8591ZM15.8333 15.8333H24.1666V14.1667H15.8333V15.8333ZM15.8333 20.8333H24.1666V19.1667H15.8333V20.8333ZM15.8333 25.8333H24.1666V24.1667H15.8333V25.8333ZM10.8333 29.8075V9.16667V30.8333V29.8075Z"
				fill="url(#paint0_linear_3457_769)" />
		</g>
		<defs>
			<linearGradient id="paint0_linear_3457_769" x1="20" y1="2.5" x2="20" y2="37.5" gradientUnits="userSpaceOnUse">
				<stop stop-color="#707070" />
				<stop offset="1" stop-color="#4E4E4E" />
			</linearGradient>
		</defs>
	</symbol>
	<symbol id="icon-api-cpu" viewBox="0 0 60 60" fill="none" xmlns="http://www.w3.org/2000/svg">
		<path fill-rule="evenodd" clip-rule="evenodd"
			d="M59.9953 24.1353C59.9953 24.8606 59.4074 25.4485 58.6821 25.4485H50.5082C49.783 25.4485 49.1951 24.8606 49.1951 24.1353C49.1951 23.4101 49.783 22.8221 50.5082 22.8221H58.6821C59.4074 22.8221 59.9953 23.4101 59.9953 24.1353Z"
			fill="url(#paint0_linear_3593_9378)" />
		<path fill-rule="evenodd" clip-rule="evenodd"
			d="M59.9953 33.1579C59.9953 33.8831 59.4074 34.4711 58.6821 34.4711H50.5082C49.783 34.4711 49.1951 33.8831 49.1951 33.1579C49.1951 32.4327 49.783 31.8447 50.5082 31.8447H58.6821C59.4074 31.8447 59.9953 32.4327 59.9953 33.1579Z"
			fill="url(#paint1_linear_3593_9378)" />
		<path fill-rule="evenodd" clip-rule="evenodd"
			d="M59.9953 42.1804C59.9953 42.9056 59.4074 43.4935 58.6821 43.4935H50.5082C49.783 43.4935 49.1951 42.9056 49.1951 42.1804C49.1951 41.4551 49.783 40.8672 50.5082 40.8672H58.6821C59.4074 40.8672 59.9953 41.4551 59.9953 42.1804Z"
			fill="url(#paint2_linear_3593_9378)" />
		<path fill-rule="evenodd" clip-rule="evenodd"
			d="M0.152152 42.6094C0.146451 41.8864 0.731505 41.2956 1.4589 41.2899L9.65719 41.2257C10.3846 41.22 10.9789 41.8015 10.9846 42.5245C10.9903 43.2476 10.4052 43.8384 9.67783 43.8441L1.47955 43.9083C0.752148 43.914 0.157853 43.3325 0.152152 42.6094Z"
			fill="url(#paint3_linear_3593_9378)" />
		<path fill-rule="evenodd" clip-rule="evenodd"
			d="M0.0816563 33.6147C0.0759556 32.8916 0.661009 32.3009 1.38841 32.2952L9.58669 32.2309C10.3141 32.2252 10.9084 32.8067 10.9141 33.5298C10.9198 34.2528 10.3347 34.8436 9.60733 34.8493L1.40905 34.9136C0.681653 34.9193 0.0873571 34.3377 0.0816563 33.6147Z"
			fill="url(#paint4_linear_3593_9378)" />
		<path fill-rule="evenodd" clip-rule="evenodd"
			d="M0.0121373 24.6196C0.00643651 23.8965 0.59149 23.3057 1.31889 23.3L9.51717 23.2358C10.2446 23.2301 10.8389 23.8116 10.8446 24.5347C10.8503 25.2577 10.2652 25.8485 9.53781 25.8542L1.33953 25.9184C0.612134 25.9241 0.0178381 25.3426 0.0121373 24.6196Z"
			fill="url(#paint5_linear_3593_9378)" />
		<path fill-rule="evenodd" clip-rule="evenodd"
			d="M21.1727 3.44159C21.898 3.44159 22.4859 4.02952 22.4859 4.75476L22.4859 12.9288C22.4859 13.654 21.898 14.2419 21.1727 14.2419C20.4475 14.2419 19.8596 13.654 19.8596 12.9288L19.8596 4.75476C19.8596 4.02952 20.4475 3.44159 21.1727 3.44159Z"
			fill="url(#paint6_linear_3593_9378)" />
		<path fill-rule="evenodd" clip-rule="evenodd"
			d="M30.1952 3.44208C30.9204 3.44208 31.5083 4.03001 31.5083 4.75525L31.5083 12.9293C31.5083 13.6545 30.9204 14.2424 30.1952 14.2424C29.4699 14.2424 28.882 13.6545 28.882 12.9293L28.882 4.75525C28.882 4.03001 29.4699 3.44208 30.1952 3.44208Z"
			fill="url(#paint7_linear_3593_9378)" />
		<path fill-rule="evenodd" clip-rule="evenodd"
			d="M39.2186 3.44159C39.9439 3.44159 40.5318 4.02952 40.5318 4.75476L40.5318 12.9288C40.5318 13.654 39.9439 14.2419 39.2186 14.2419C38.4934 14.2419 37.9055 13.654 37.9055 12.9288L37.9055 4.75476C37.9055 4.02952 38.4934 3.44159 39.2186 3.44159Z"
			fill="url(#paint8_linear_3593_9378)" />
		<rect x="7.276" y="10.0345" width="46.5235" height="46.5238" rx="8" fill="url(#paint9_linear_3593_9378)" />
		<path d="M43.1565 26.4733V38.0132H40.7167V26.4733H43.1565Z" fill="url(#paint10_linear_3593_9378)" />
		<path
			d="M30.4389 38.0132L30.4389 26.4733H34.9918C35.8671 26.4733 36.6127 26.6404 37.2288 26.9748C37.8448 27.3053 38.3144 27.7655 38.6375 28.3553C38.9643 28.9413 39.1277 29.6175 39.1277 30.3838C39.1277 31.1501 38.9624 31.8263 38.6318 32.4123C38.3013 32.9983 37.8223 33.4547 37.195 33.7815C36.5714 34.1084 35.8163 34.2718 34.9298 34.2718H32.0279V32.3165H34.5354C35.0049 32.3165 35.3919 32.2357 35.6961 32.0742C36.0042 31.9089 36.2333 31.6817 36.3836 31.3924C36.5376 31.0994 36.6146 30.7632 36.6146 30.3838C36.6146 30.0006 36.5376 29.6663 36.3836 29.3808C36.2333 29.0915 36.0042 28.868 35.6961 28.7103C35.3881 28.5487 34.9974 28.468 34.5241 28.468H32.8788V38.0132H30.4389Z"
			fill="url(#paint11_linear_3593_9378)" />
		<path
			d="M20.561 38.0135H17.9465L21.9303 26.4735H25.0745L29.0526 38.0135H26.4381L23.5475 29.1106H23.4573L20.561 38.0135ZM20.3976 33.4775H26.5733V35.3821H20.3976V33.4775Z"
			fill="url(#paint12_linear_3593_9378)" />
		<defs>
			<linearGradient id="paint0_linear_3593_9378" x1="49.1951" y1="24.1353" x2="61.2618" y2="24.1353"
				gradientUnits="userSpaceOnUse">
				<stop stop-color="#0E0E0E" />
				<stop offset="1" stop-color="#252525" />
			</linearGradient>
			<linearGradient id="paint1_linear_3593_9378" x1="49.1951" y1="33.1579" x2="61.2618" y2="33.1579"
				gradientUnits="userSpaceOnUse">
				<stop stop-color="#0E0E0E" />
				<stop offset="1" stop-color="#252525" />
			</linearGradient>
			<linearGradient id="paint2_linear_3593_9378" x1="49.1951" y1="42.1804" x2="61.2618" y2="42.1804"
				gradientUnits="userSpaceOnUse">
				<stop stop-color="#0E0E0E" />
				<stop offset="1" stop-color="#252525" />
			</linearGradient>
			<linearGradient id="paint3_linear_3593_9378" x1="10.9846" y1="42.5245" x2="-1.11817" y2="42.62"
				gradientUnits="userSpaceOnUse">
				<stop stop-color="#0E0E0E" />
				<stop offset="1" stop-color="#252525" />
			</linearGradient>
			<linearGradient id="paint4_linear_3593_9378" x1="10.9141" y1="33.5298" x2="-1.18867" y2="33.6252"
				gradientUnits="userSpaceOnUse">
				<stop stop-color="#0E0E0E" />
				<stop offset="1" stop-color="#252525" />
			</linearGradient>
			<linearGradient id="paint5_linear_3593_9378" x1="10.8446" y1="24.5347" x2="-1.25818" y2="24.6301"
				gradientUnits="userSpaceOnUse">
				<stop stop-color="#0E0E0E" />
				<stop offset="1" stop-color="#252525" />
			</linearGradient>
			<linearGradient id="paint6_linear_3593_9378" x1="21.1727" y1="14.2419" x2="21.1727" y2="2.17503"
				gradientUnits="userSpaceOnUse">
				<stop stop-color="#0E0E0E" />
				<stop offset="1" stop-color="#252525" />
			</linearGradient>
			<linearGradient id="paint7_linear_3593_9378" x1="30.1952" y1="14.2424" x2="30.1952" y2="2.17552"
				gradientUnits="userSpaceOnUse">
				<stop stop-color="#0E0E0E" />
				<stop offset="1" stop-color="#252525" />
			</linearGradient>
			<linearGradient id="paint8_linear_3593_9378" x1="39.2186" y1="14.2419" x2="39.2186" y2="2.17503"
				gradientUnits="userSpaceOnUse">
				<stop stop-color="#0E0E0E" />
				<stop offset="1" stop-color="#252525" />
			</linearGradient>
			<linearGradient id="paint9_linear_3593_9378" x1="30.5378" y1="10.0345" x2="30.5378" y2="56.5583"
				gradientUnits="userSpaceOnUse">
				<stop stop-color="#262626" />
				<stop offset="1" stop-color="#151515" />
			</linearGradient>
			<linearGradient id="paint10_linear_3593_9378" x1="41.9366" y1="26.4733" x2="41.9366" y2="38.0132"
				gradientUnits="userSpaceOnUse">
				<stop stop-color="#414141" />
				<stop offset="1" stop-color="#494949" />
			</linearGradient>
			<linearGradient id="paint11_linear_3593_9378" x1="34.7833" y1="26.4733" x2="34.7833" y2="38.0132"
				gradientUnits="userSpaceOnUse">
				<stop stop-color="#414141" />
				<stop offset="1" stop-color="#494949" />
			</linearGradient>
			<linearGradient id="paint12_linear_3593_9378" x1="23.4996" y1="26.4735" x2="23.4996" y2="38.0135"
				gradientUnits="userSpaceOnUse">
				<stop stop-color="#414141" />
				<stop offset="1" stop-color="#494949" />
			</linearGradient>
		</defs>
	</symbol>
	<symbol id="icon-scale-paper-stack" viewBox="0 0 90 90" fill="none" xmlns="http://www.w3.org/2000/svg">
		<path d="M11.0001 46.5349L46.3796 25.5723L79.0001 46.9999L45.0001 67.0349L11.0001 46.5349Z"
			fill="url(#paint0_linear_3549_2674)" />
		<path fill-rule="evenodd" clip-rule="evenodd"
			d="M9.32078 57.4339L18.4036 52.6425L21.0636 54.396L15.0793 57.5529L45.0219 75.6783L75.4007 58.8465L69.046 54.6342L72.0227 53.0727L80.958 58.9956L44.9024 78.9728L9.32078 57.4339Z"
			fill="url(#paint1_linear_3549_2674)" />
		<path fill-rule="evenodd" clip-rule="evenodd"
			d="M6 46.4331L34.5781 29.6408L37.3938 31.3076L11.6379 46.4416L44.9616 66.1686L78.3621 46.5427L52.6654 31.3307L55.4875 29.6724L84 46.5512L44.9552 69.4938L6 46.4331Z"
			fill="url(#paint2_linear_3549_2674)" />
		<mask id="mask0_3549_2674" style="mask-type:alpha" maskUnits="userSpaceOnUse" x="13" y="10" width="64" height="57">
			<rect x="13.0251" y="10.4204" width="63.964" height="56.3773" fill="#D9D9D9" />
		</mask>
		<g mask="url(#mask0_3549_2674)">
			<path
				d="M44.9714 57.1216L35.1202 48.4552L37.1827 46.6408L43.4736 52.0584V19.9683L37.2404 25.4366L35.1779 23.6222L45.029 14.9558L54.8802 23.6222L52.76 25.5025L46.4692 20.019V52.0584L52.76 46.6408L54.8225 48.4552L44.9714 57.1216Z"
				fill="url(#paint3_linear_3549_2674)" />
		</g>
		<defs>
			<linearGradient id="paint0_linear_3549_2674" x1="49.197" y1="13.0769" x2="32.0863" y2="54.4684"
				gradientUnits="userSpaceOnUse">
				<stop stop-color="#0D0D0D" />
				<stop offset="1" stop-color="#151515" />
			</linearGradient>
			<linearGradient id="paint1_linear_3549_2674" x1="26.7017" y1="47.221" x2="45.7698" y2="79.6721"
				gradientUnits="userSpaceOnUse">
				<stop stop-color="#1B1B1C" />
				<stop offset="1" stop-color="#2D2D2D" />
			</linearGradient>
			<linearGradient id="paint2_linear_3549_2674" x1="25.5224" y1="34.9618" x2="45.593" y2="69.119"
				gradientUnits="userSpaceOnUse">
				<stop stop-color="#1B1B1C" />
				<stop offset="1" stop-color="#2D2D2D" />
			</linearGradient>
			<linearGradient id="paint3_linear_3549_2674" x1="45.0002" y1="14.9558" x2="45.0002" y2="57.1216"
				gradientUnits="userSpaceOnUse">
				<stop stop-color="#1A1A1B" />
				<stop offset="1" stop-color="#2E2E2E" />
			</linearGradient>
		</defs>
	</symbol>
	<symbol id="icon-github-logo" viewBox="0 0 17 18" fill="none" xmlns="http://www.w3.org/2000/svg">
		<g clip-path="url(#clip0_2988_2786)">
			<path fill-rule="evenodd" clip-rule="evenodd"
				d="M8.5 0.5C3.80375 0.5 0 4.30375 0 9C0 12.7612 2.43312 15.9381 5.81187 17.0644C6.23687 17.1388 6.39625 16.8838 6.39625 16.6606C6.39625 16.4587 6.38563 15.7894 6.38563 15.0775C4.25 15.4706 3.6975 14.5569 3.5275 14.0787C3.43187 13.8344 3.0175 13.08 2.65625 12.8781C2.35875 12.7188 1.93375 12.3256 2.64563 12.315C3.315 12.3044 3.79312 12.9312 3.9525 13.1862C4.7175 14.4719 5.93938 14.1106 6.42813 13.8875C6.5025 13.335 6.72563 12.9631 6.97 12.7506C5.07875 12.5381 3.1025 11.805 3.1025 8.55375C3.1025 7.62937 3.43187 6.86437 3.97375 6.26937C3.88875 6.05687 3.59125 5.18563 4.05875 4.01688C4.05875 4.01688 4.77063 3.79375 6.39625 4.88812C7.07625 4.69688 7.79875 4.60125 8.52125 4.60125C9.24375 4.60125 9.96625 4.69688 10.6463 4.88812C12.2719 3.78313 12.9838 4.01688 12.9838 4.01688C13.4513 5.18563 13.1538 6.05687 13.0688 6.26937C13.6106 6.86437 13.94 7.61875 13.94 8.55375C13.94 11.8156 11.9531 12.5381 10.0619 12.7506C10.37 13.0162 10.6356 13.5262 10.6356 14.3231C10.6356 15.46 10.625 16.3737 10.625 16.6606C10.625 16.8838 10.7844 17.1494 11.2094 17.0644C14.5669 15.9381 17 12.7506 17 9C17 4.30375 13.1962 0.5 8.5 0.5Z"
				fill="currentColor" />
		</g>
		<defs>
			<clipPath id="clip0_2988_2786">
				<rect width="17" height="17" fill="white" transform="translate(0 0.5)" />
			</clipPath>
		</defs>
	</symbol>
	<symbol id="icon-linkedin-logo" viewBox="0 0 17 18" fill="none" xmlns="http://www.w3.org/2000/svg">
		<g clip-path="url(#clip0_2988_2788)">
			<path
				d="M3.95717 5.96924H0.544396C0.392932 5.96924 0.270203 6.09202 0.270203 6.24343V17.2072C0.270203 17.3587 0.392932 17.4814 0.544396 17.4814H3.95717C4.10864 17.4814 4.23137 17.3587 4.23137 17.2072V6.24343C4.23137 6.09202 4.10864 5.96924 3.95717 5.96924Z"
				fill="currentColor" />
			<path
				d="M2.25201 0.518799C1.01024 0.518799 0 1.52794 0 2.76834C0 4.00928 1.01024 5.01881 2.25201 5.01881C3.49279 5.01881 4.5022 4.00923 4.5022 2.76834C4.50226 1.52794 3.49279 0.518799 2.25201 0.518799Z"
				fill="currentColor" />
			<path
				d="M12.6378 5.69678C11.2671 5.69678 10.2538 6.28602 9.63926 6.95554V6.24346C9.63926 6.09205 9.51653 5.96927 9.36507 5.96927H6.09673C5.94527 5.96927 5.82254 6.09205 5.82254 6.24346V17.2073C5.82254 17.3587 5.94527 17.4815 6.09673 17.4815H9.50205C9.65352 17.4815 9.77625 17.3587 9.77625 17.2073V11.7827C9.77625 9.95478 10.2728 9.24265 11.547 9.24265C12.9347 9.24265 13.045 10.3843 13.045 11.8768V17.2073C13.045 17.3588 13.1677 17.4815 13.3192 17.4815H16.7258C16.8773 17.4815 17 17.3588 17 17.2073V11.1935C17 8.4754 16.4817 5.69678 12.6378 5.69678Z"
				fill="currentColor" />
		</g>
		<defs>
			<clipPath id="clip0_2988_2788">
				<rect width="17" height="17" fill="white" transform="translate(0 0.5)" />
			</clipPath>
		</defs>
	</symbol>
	<symbol id="icon-x-logo" viewBox="0 0 17 18" fill="none" xmlns="http://www.w3.org/2000/svg">
		<g clip-path="url(#clip0_2988_2793)">
			<path
				d="M13.3733 0.5H15.98L10.2567 7.71402L16.9433 17.5H11.696L7.58765 11.5531L2.88432 17.5H0.277653L6.34099 9.78413L-0.0623474 0.5H5.31532L9.02699 5.93247L13.3733 0.5ZM12.461 15.8063H13.906L4.55599 2.131H3.00332L12.461 15.8063Z"
				fill="currentColor" />
		</g>
		<defs>
			<clipPath id="clip0_2988_2793">
				<rect width="17" height="17" fill="white" transform="translate(0 0.5)" />
			</clipPath>
		</defs>
	</symbol>
	<symbol id="icon-target-bug" viewBox="0 0 60 60" fill="none" xmlns="http://www.w3.org/2000/svg">
		<mask id="mask0_3593_9354" style="mask-type:alpha" maskUnits="userSpaceOnUse" x="5" y="5" width="48" height="50">
			<rect x="5.86252" y="5.66699" width="46.142" height="48.6589" fill="#D9D9D9" />
		</mask>
		<g mask="url(#mask0_3593_9354)">
			<path
				d="M30.1802 44.3951C32.2599 44.3951 34.0403 43.6008 35.5213 42.0122C37.0024 40.4236 37.7429 38.5139 37.7429 36.2831V28.171C37.7429 25.9402 37.0024 24.0305 35.5213 22.4419C34.0403 20.8533 32.2599 20.059 30.1802 20.059C28.1005 20.059 26.3201 20.8533 24.8391 22.4419C23.3581 24.0305 22.6175 25.9402 22.6175 28.171V36.2831C22.6175 38.5139 23.3581 40.4236 24.8391 42.0122C26.3201 43.6008 28.1005 44.3951 30.1802 44.3951ZM26.6896 37.8041H33.6709V34.7621H26.6896V37.8041ZM26.6896 29.6921H33.6709V26.65H26.6896V29.6921ZM30.1802 47.4372C28.3018 47.4372 26.567 46.9418 24.9757 45.9511C23.3844 44.9604 22.1208 43.5968 21.1849 41.8601H16.0002V38.8181H20.1162C19.9246 37.9863 19.8209 37.1445 19.8052 36.2927C19.7894 35.4413 19.7815 34.5931 19.7815 33.7481H16.0002V30.7061H19.7815C19.7815 29.8482 19.7834 28.9934 19.7872 28.1416C19.7907 27.2902 19.9003 26.455 20.1162 25.636H16.0002V22.594H21.1849C21.6383 21.7646 22.174 21.0086 22.792 20.3262C23.4102 19.6438 24.1181 19.0685 24.9157 18.6004L21.7086 15.098L23.6645 13L27.6935 17.3212C28.503 17.0562 29.3222 16.9237 30.1509 16.9237C30.98 16.9237 31.7993 17.0562 32.6088 17.3212L36.7318 13L38.6882 15.098L35.423 18.6004C36.2206 19.0685 36.9321 19.6385 37.5576 20.3105C38.1828 20.9828 38.7221 21.7439 39.1755 22.594H44.3602V25.636H40.2442C40.4601 26.455 40.5697 27.2902 40.5732 28.1416C40.577 28.9934 40.5789 29.8482 40.5789 30.7061H44.3602V33.7481H40.5789C40.5789 34.5931 40.571 35.4413 40.5552 36.2927C40.5395 37.1445 40.4358 37.9863 40.2442 38.8181H44.3602V41.8601H39.1755C38.2397 43.5968 36.9761 44.9604 35.3847 45.9511C33.7934 46.9418 32.0586 47.4372 30.1802 47.4372Z"
				fill="url(#paint0_linear_3593_9354)" />
		</g>
		<path d="M43.9561 6.33301H53.7584V16.838" stroke="#292929" stroke-width="3" />
		<path d="M16.3993 54.3329L5.44151 54.3329L5.44151 43.8279" stroke="#292929" stroke-width="3" />
		<path d="M54.5585 43.6179L54.5585 54.333L44.8359 54.333" stroke="#292929" stroke-width="3" />
		<path d="M6.64169 15.8928L6.6417 6.33326L16.3643 6.33327" stroke="#292929" stroke-width="3" />
		<defs>
			<linearGradient id="paint0_linear_3593_9354" x1="30.1802" y1="13" x2="30.1802" y2="47.4372"
				gradientUnits="userSpaceOnUse">
				<stop stop-color="#3F3F3F" />
				<stop offset="1" stop-color="#191919" />
			</linearGradient>
		</defs>
	</symbol>
	<symbol id="icon-semi-valve-logo" viewBox="0 0 60 62" fill="none" xmlns="http://www.w3.org/2000/svg">
		<path
			d="M53.3413 14.1551C53.7441 15.3363 54.0222 16.5687 54.1614 17.8391L53.6644 17.8936C53.7303 18.4961 53.7642 19.1075 53.7642 19.7263C53.7642 20.3452 53.7303 20.9566 53.6644 21.5591L54.1614 21.6135C54.0222 22.8839 53.7441 24.1163 53.3413 25.2976L52.8681 25.1362C52.4715 26.2992 51.9503 27.4118 51.3184 28.4606L51.7467 28.7186C51.0983 29.7949 50.3371 30.8051 49.4779 31.7356L49.1105 31.3964C48.2839 32.2916 47.3635 33.1115 46.3632 33.843L46.6584 34.2466C45.6513 34.9832 44.5657 35.632 43.4152 36.1805L43.2 35.7292C42.1042 36.2517 40.9477 36.6812 39.7427 37.0062L39.8729 37.489C38.6756 37.8119 37.432 38.034 36.1533 38.1449L36.1102 37.6467C35.5026 37.6994 34.8869 37.7263 34.2642 37.7263C33.6415 37.7263 33.0257 37.6994 32.4181 37.6467L32.375 38.1449C31.0963 38.034 29.8527 37.8119 28.6554 37.489L28.7856 37.0062C27.5806 36.6812 26.4241 36.2517 25.3283 35.7292L25.1131 36.1805C23.9626 35.632 22.877 34.9832 21.8699 34.2466L22.1651 33.843C21.1648 33.1115 20.2444 32.2916 19.4178 31.3964L19.0504 31.7356C18.1912 30.8051 17.43 29.7949 16.7816 28.7186L17.2099 28.4606C16.5781 27.4118 16.0568 26.2992 15.6602 25.1362L15.187 25.2976C14.7842 24.1163 14.5061 22.8839 14.3669 21.6135L14.864 21.5591C14.798 20.9566 14.7642 20.3452 14.7642 19.7263C14.7642 19.1075 14.798 18.4961 14.864 17.8936L14.3669 17.8391C14.5061 16.5687 14.7842 15.3363 15.187 14.1551L15.6602 14.3164C16.0568 13.1534 16.5781 12.0408 17.2099 10.9921L16.7816 10.7341C17.43 9.65773 18.1912 8.64751 19.0504 7.71705L19.4178 8.05627C20.2444 7.16106 21.1648 6.34115 22.1651 5.6096L21.8699 5.20601C22.877 4.46948 23.9626 3.82068 25.1131 3.27209L25.3283 3.72341C26.4241 3.20092 27.5806 2.77143 28.7856 2.44641L28.6554 1.96366C29.8527 1.64074 31.0963 1.41859 32.375 1.30777L32.4181 1.8059C33.0257 1.75325 33.6415 1.72632 34.2642 1.72632C34.8869 1.72632 35.5026 1.75325 36.1102 1.80591L36.1533 1.30777C37.432 1.41859 38.6757 1.64074 39.8729 1.96366L39.7427 2.44641C40.9477 2.77143 42.1043 3.20092 43.2 3.72341L43.4152 3.27209C44.5657 3.82068 45.6513 4.46948 46.6584 5.20601L46.3632 5.6096C47.3635 6.34115 48.2839 7.16106 49.1105 8.05627L49.4779 7.71705C50.3371 8.64751 51.0983 9.65773 51.7467 10.7341L51.3184 10.9921C51.9503 12.0408 52.4715 13.1534 52.8681 14.3164L53.3413 14.1551Z"
			stroke="#282828" stroke-dasharray="4 4" />
		<path
			d="M26.3772 18.4213C14.9773 18.4213 5.73584 27.4544 5.73584 38.5974C5.73584 49.7404 14.9773 58.7736 26.3772 58.7736C37.7771 58.7736 47.0185 49.7404 47.0185 38.5974C47.0185 34.3497 45.6756 30.4085 43.3821 27.1575"
			stroke="url(#paint0_linear_3593_9368)" stroke-width="5" />
		<path d="M29.5394 32.3822L41.5647 11.2605" stroke="#3D3D3D" stroke-width="5" />
		<circle cx="26.3808" cy="38.465" r="7.98774" stroke="url(#paint1_linear_3593_9368)" stroke-width="4" />
		<defs>
			<linearGradient id="paint0_linear_3593_9368" x1="26.3772" y1="18.4213" x2="26.3772" y2="58.7736"
				gradientUnits="userSpaceOnUse">
				<stop stop-color="#3F3F3F" />
				<stop offset="1" stop-color="#1A1A1A" />
			</linearGradient>
			<linearGradient id="paint1_linear_3593_9368" x1="26.3808" y1="28.4773" x2="26.3808" y2="48.4528"
				gradientUnits="userSpaceOnUse">
				<stop stop-color="#3F3F3F" />
				<stop offset="1" stop-color="#1A1A1A" />
			</linearGradient>
		</defs>
	</symbol>
	<symbol id="icon-scale-up" viewBox="0 0 60 60" fill="none" xmlns="http://www.w3.org/2000/svg">
		<mask id="mask0_3593_9404" style="mask-type:alpha" maskUnits="userSpaceOnUse" x="0" y="0" width="60" height="60">
			<rect width="60" height="60" fill="#D9D9D9" />
		</mask>
		<g mask="url(#mask0_3593_9404)">
			<path
				d="M21.7497 40.8606L19.1391 38.25L30.5141 26.875H20.6247V23.125H36.8747V39.375H33.1247V29.4856L21.7497 40.8606ZM47.4997 30V12.5H29.9997V8.75H51.2497V30H47.4997ZM13.2691 51.25C12.0062 51.25 10.9372 50.8125 10.0622 49.9375C9.18723 49.0625 8.74973 47.9935 8.74973 46.7306V8.75H12.4997V46.7306C12.4997 46.9231 12.5799 47.0994 12.7404 47.2594C12.9004 47.4198 13.0766 47.5 13.2691 47.5H51.2497V51.25H13.2691Z"
				fill="url(#paint0_linear_3593_9404)" />
		</g>
		<defs>
			<linearGradient id="paint0_linear_3593_9404" x1="29.9997" y1="8.75" x2="29.9997" y2="51.25"
				gradientUnits="userSpaceOnUse">
				<stop stop-color="#353535" />
				<stop offset="1" stop-color="#1C1B1F" />
			</linearGradient>
		</defs>
	</symbol>
	<symbol id="icon-package-toolbox" viewBox="0 0 60 60" fill="none" xmlns="http://www.w3.org/2000/svg">
		<mask id="mask0_3593_9412" style="mask-type:alpha" maskUnits="userSpaceOnUse" x="0" y="0" width="60" height="60">
			<rect width="60" height="60" fill="#D9D9D9" />
		</mask>
		<g mask="url(#mask0_3593_9412)">
			<path
				d="M4.1582 48.7499V44.9999H15.8407V39.3749H6.6582V35.6249H15.8407V29.9999H9.2832V26.2499H15.8407V18.923L11.2063 8.85554L14.6007 7.25991L19.9463 18.7499H49.2351L44.4563 8.61554L47.8501 7.01929L53.3407 18.7499V48.7499H4.1582ZM29.5907 31.8749H39.5907C40.122 31.8749 40.5674 31.6951 40.927 31.3355C41.2861 30.976 41.4657 30.5305 41.4657 29.9993C41.4657 29.4676 41.2861 29.0224 40.927 28.6637C40.5674 28.3045 40.122 28.1249 39.5907 28.1249H29.5907C29.0595 28.1249 28.6142 28.3047 28.2551 28.6643C27.8955 29.0239 27.7157 29.4693 27.7157 30.0005C27.7157 30.5322 27.8955 30.9774 28.2551 31.3362C28.6142 31.6953 29.0595 31.8749 29.5907 31.8749ZM19.5907 44.9999H49.5907V22.4999H19.5907V44.9999Z"
				fill="url(#paint0_linear_3593_9412)" />
		</g>
		<defs>
			<linearGradient id="paint0_linear_3593_9412" x1="28.7495" y1="7.01929" x2="28.7495" y2="48.7499"
				gradientUnits="userSpaceOnUse">
				<stop stop-color="#363636" />
				<stop offset="1" stop-color="#1E1E1E" />
			</linearGradient>
		</defs>
	</symbol>
	<symbol id="icon-string-search" viewBox="0 0 60 60" fill="none" xmlns="http://www.w3.org/2000/svg">
		<mask id="mask0_3593_9420" style="mask-type:alpha" maskUnits="userSpaceOnUse" x="0" y="0" width="60" height="60">
			<rect width="60" height="60" fill="#D9D9D9" />
		</mask>
		<g mask="url(#mask0_3593_9420)">
			<path
				d="M6.24173 46.2019V42.4519H30.6886V46.2019H6.24173ZM6.24173 33.9662V30.2162H18.0686V33.9662H6.24173ZM6.24173 21.7306V17.9806H18.0686V21.7306H6.24173ZM51.1073 46.25L41.4342 36.6488C40.4821 37.3412 39.4444 37.8685 38.3211 38.2306C37.1978 38.5927 36.0559 38.7738 34.8955 38.7738C31.763 38.7738 29.093 37.6794 26.8855 35.4906C24.6776 33.3015 23.5736 30.6419 23.5736 27.5119C23.5736 24.3823 24.678 21.7229 26.8867 19.5337C29.0959 17.3446 31.7673 16.25 34.9011 16.25C38.0353 16.25 40.7048 17.3446 42.9098 19.5337C45.1148 21.7229 46.2173 24.3783 46.2173 27.5C46.2173 28.6604 46.0363 29.8023 45.6742 30.9256C45.3121 32.049 44.7769 33.0785 44.0686 34.0144L53.7417 43.6156L51.1073 46.25ZM34.8955 35.0238C36.9988 35.0238 38.7867 34.2946 40.2592 32.8363C41.7317 31.3779 42.468 29.6031 42.468 27.5119C42.468 25.4206 41.7317 23.6458 40.2592 22.1875C38.7867 20.7292 36.9988 20 34.8955 20C32.7921 20 31.0042 20.7292 29.5317 22.1875C28.0596 23.6458 27.3236 25.4206 27.3236 27.5119C27.3236 29.6031 28.0596 31.3779 29.5317 32.8363C31.0042 34.2946 32.7921 35.0238 34.8955 35.0238Z"
				fill="url(#paint0_linear_3593_9420)" />
		</g>
		<defs>
			<linearGradient id="paint0_linear_3593_9420" x1="29.9917" y1="16.25" x2="29.9917" y2="46.25"
				gradientUnits="userSpaceOnUse">
				<stop stop-color="#343434" />
				<stop offset="1" stop-color="#1D1D1D" />
			</linearGradient>
		</defs>
	</symbol>
	<symbol id="icon-arrow-left" viewBox="0 0 21 22" fill="none" xmlns="http://www.w3.org/2000/svg">
		<mask id="mask0_3315_5568" style="mask-type:alpha" maskUnits="userSpaceOnUse" x="0" y="0" width="21" height="22">
			<rect y="0.5" width="21" height="21" fill="currentColor" />
		</mask>
		<g mask="url(#mask0_3315_5568)">
			<path
				d="M6.84691 11.8711L11.7469 16.7711L10.5 17.9961L3.50003 10.9961L10.5 3.99609L11.7469 5.22109L6.84691 10.1211H17.5V11.8711H6.84691Z"
				fill="currentColor" />
		</g>
	</symbol>
	<symbol id="icon-close-2" viewBox="0 0 26 27" fill="none" xmlns="http://www.w3.org/2000/svg">
		<mask id="mask0_3620_2993" style="mask-type:alpha" maskUnits="userSpaceOnUse" x="0" y="0" width="26" height="27">
			<rect y="0.5" width="26" height="26" fill="#DBDBDB" />
		</mask>
		<g mask="url(#mask0_3620_2993)">
			<path
				d="M6.93366 21.0833L5.41699 19.5666L11.4837 13.5L5.41699 7.43329L6.93366 5.91663L13.0003 11.9833L19.067 5.91663L20.5837 7.43329L14.517 13.5L20.5837 19.5666L19.067 21.0833L13.0003 15.0166L6.93366 21.0833Z"
				fill="#DBDBDB" />
		</g>
	</symbol>
</svg>