<svg xmlns="http://www.w3.org/2000/svg">
    <symbol id="icon-hot-fire" fill="none" viewBox="0 0 43 63">
        <path fill="#F9AF38"
            d="M40.66 27.57c-.07-.14-.19-.46-.34-.87-.48-1.35-1.42-1.2-1.42-1.2s.2.31-.12 1.14c-.1.56-3.32 4.74-3.9 3.66a.5.5 0 0 1-.05-.3c.18-1.6.25-3.2.19-4.8a38.13 38.13 0 0 0-7.76-21.5l-.04-.05a30.75 30.75 0 0 0-.84-1.05c-.54-.65-.82-.1-1.4-.7a.33.33 0 0 0-.57.2c-.68 6.16-2.12 8.53-3.68 10.44-1.98 2.12-4.98 4.6-6.21 7.92-.61 1.36-1.65 2.68-1.97 4.02a.33.33 0 0 1-.57.13A11.5 11.5 0 0 1 9.5 18.9c-.12-.72-.57-.16-.56-.76a.22.22 0 0 0-.37-.15C2.22 24.29.25 33.04 1.4 42.23c.1 1.52.32 3.02.63 4.5 1.28 5 4.75 8.86 8.75 11.66 3.6 2.53 7.55 4.27 12.2 3.85 10.24-.76 17.95-8.3 19.4-18.48a33.9 33.9 0 0 0-1.72-16.19Z" />
        <path fill="#F48931"
            d="M22.5 62.27c-9.63.63-18.68-6.2-21.07-15.52C1 45.25.7 43.7.5 42.17c-1.15-9.2 2.11-19.14 8.45-25.44a.22.22 0 0 1 .37.15c0 .68.05 1.34.17 2A31.76 31.76 0 0 0 3 42.16c.2 1.55.5 3.08.92 4.58a20.99 20.99 0 0 0 18.6 15.53Zm-7.99-43.18Z" />
        <path fill="#DF646E"
            d="M33.58 38.73c-.27-.7-.35-.9-.52-1.25a.14.14 0 0 0-.23-.04.14.14 0 0 0-.04.08 6.6 6.6 0 0 1-.34 1.37 7.2 7.2 0 0 1-1.94 2.57.21.21 0 0 1-.24-.07.29.29 0 0 1-.05-.16 24.53 24.53 0 0 0-4.95-17.31l-.02-.03-.05-.07c-.46-.55-.96-1.08-1.49-1.57a.21.21 0 0 0-.36.13c-.45 4.03-1.17 6.16-2.2 7.42-.99 1.22-2 1.56-3.15 3.3a13.63 13.63 0 0 0-1.91 4.33c-.04.17-.71.31-.82.18a6.62 6.62 0 0 1-1.04-1.65c-.2-.47-.37-.95-.48-1.45-.18-.78-.43-.91-.44-1.4a.14.14 0 0 0-.24-.1c-4.42 4.4-5.73 10.74-4.52 17.07 1.67 8.81 8.42 12.24 13.3 12.16.22 0 .49.04.78.02 3.01-.23 9.68-1.78 12.12-10.2 1.05-4.1.82-8.4-.66-12.37a6.01 6.01 0 0 0-.51-.96Z" />
        <path fill="#DC4955"
            d="m16.52 34.85-.43 1.12c.12-.36.26-.74.43-1.12Zm6.19 27.41c-.31.03-.61.02-.84.04A14.29 14.29 0 0 1 7.93 50.28a20.53 20.53 0 0 1 5.35-17.82.14.14 0 0 1 .24.1c0 .66.08 1.31.23 1.95a20.8 20.8 0 0 0-3.58 15.77A14.39 14.39 0 0 0 22.7 62.26Z" />
        <path fill="#DF646E"
            d="M14.77 6a6.43 6.43 0 0 1-2.64 3.99.25.25 0 0 1-.27-.12 6.28 6.28 0 0 1-.96-4.56c.03-.52.11-1.03.26-1.53A9.04 9.04 0 0 1 13.68.75a.25.25 0 0 1 .27.11 8.96 8.96 0 0 1 1.17 3.75A6.3 6.3 0 0 1 14.77 6Z" />
        <path fill="#DC4955"
            d="M15.04 6.03a8.1 8.1 0 0 1-3 4.47.25.25 0 0 1-.27-.12 8.1 8.1 0 0 1-1.09-5.17c.1-.54.29-1.06.54-1.55a8.96 8.96 0 0 0 1.24 3.82.25.25 0 0 0 .3 0 9.08 9.08 0 0 0 2.36-2.87c.03.48 0 .95-.08 1.42Z" />
        <path fill="#DF646E"
            d="M42.28 13.18a5.73 5.73 0 0 1-1.06 4.38.25.25 0 0 1-.28 0 5.54 5.54 0 0 1-2.6-3.45 5.57 5.57 0 0 1-.3-1.04 7.74 7.74 0 0 1 1.22-3.82.25.25 0 0 1 .29 0c.98.66 1.8 1.53 2.41 2.54.18.45.28.92.32 1.39Z" />
        <path fill="#DC4955"
            d="M41.42 17.9a.25.25 0 0 1-.35.08 7.03 7.03 0 0 1-2.94-3.9 4.75 4.75 0 0 1-.1-1.25 8.04 8.04 0 0 0 2.51 2.58.25.25 0 0 0 .26-.11 7.88 7.88 0 0 0 1.16-3.5c.24.42.41.87.52 1.35a7.02 7.02 0 0 1-1.06 4.76ZM25.2 23.82a12.34 12.34 0 0 1-2.36 5.74c-1 1.22-1.91 1.62-3.05 3.36a15.6 15.6 0 0 0-1.4 3.12 2.48 2.48 0 0 1-2.34 1.65h-.62c.42-.2.37-1.2.66-1.72.36-1.07.85-2.1 1.46-3.05 1.14-1.74 2.06-2.14 3.05-3.36 1.02-1.25 2.17-3.43 2.61-7.46a.22.22 0 0 1 .37-.13 22.04 22.04 0 0 1 1.62 1.85Zm8.9 15.88-.05.08a3.49 3.49 0 0 1-3.02 1.7h-.58a.2.2 0 0 0 .13-.06 7.3 7.3 0 0 0 1.7-2.67c.18-.44.32-.9.42-1.37l.05-.25a.14.14 0 0 1 .27-.03 22.13 22.13 0 0 1 1.07 2.6Z" />
        <path fill="#F48931"
            d="M24.12.91c-.68 6.17-2.43 9.49-3.99 11.4-1.97 2.12-4.91 4.56-6.15 7.88-.28.64-.55 1.33-.78 2.02l-.1.32c-.22.67-.4 1.33-.55 1.94a.3.3 0 0 1-.28.24h.87a2.48 2.48 0 0 0 2.38-1.76c.26-.94.58-1.86.95-2.76 1.23-3.32 4.17-5.76 6.15-7.88 1.4-1.73 2.97-4.61 3.76-9.7-.54-.66-1.1-1.28-1.7-1.89a.33.33 0 0 0-.56.2Zm14.57 22.95a15.33 15.33 0 0 1-.92 2.99l-.03.07-.02.03-.16.33-.03.06c-.64 1.24-1.8 3.12-2.4 3.13l-.02.03h.13a4.96 4.96 0 0 0 3.9-1.98c.45-.56.85-1.17 1.19-1.81-.5-1.36-1.3-3.62-1.64-2.85Z" />
    </symbol>
    <symbol id="illustration-email-sent" fill="none" viewBox="0 0 129 122">
        <path fill="#E6F4F0"
            d="M114.21 15.6c-15.78-8.87-32.73 9.02-47.95-.75-6.75-4.8-10.03-9.63-17.64-13.04C30.13-2 16.57 11.04 13.68 24.29c-2.64 9.87 6.36 16.75 13.45 30.35.11.22.2.44.28.67 3.29 9.77.85 13.83-7.46 14.16-13.4.38-22.38 10.01-17.96 22.86 9.74 18.53 31.1 27.96 53.02 28.72 26.81.91 51.5-13.98 62.45-37.39l.1-.22c7.25-19 21.26-56.02-3.35-67.85Z" />
        <path fill="#E6F4F0"
            d="M23.18 62.57c1.34-2.67 0-6.04-2.97-7.53-2.97-1.49-6.47-.53-7.8 2.14-1.34 2.67 0 6.04 2.97 7.53 2.97 1.48 6.47.53 7.8-2.14ZM80.8 12.24c1.18-2.36-1.02-5.86-4.91-7.8-3.9-1.95-8-1.61-9.19.75-1.18 2.36 1.02 5.85 4.92 7.8 3.89 1.94 8 1.6 9.18-.75Z" />
        <path fill="#A6CEB0"
            d="M105.47 55.08v42.41a8.56 8.56 0 0 1-8.58 8.58H32.11a8.59 8.59 0 0 1-8.58-8.58V55.08a8.58 8.58 0 0 1 8.58-8.58h64.78a8.58 8.58 0 0 1 8.58 8.58Z" />
        <path fill="#A6CEB0"
            d="M100.88 44C96.24 38.35 64.5 16.17 64.5 16.17S32.77 38.34 28.12 44c-4.65 5.66-4.6 8.28-4.6 11.33h81.95c0-3.05.06-5.67-4.59-11.33Z" />
        <path fill="#D9D9D9" d="M96.9 28.13H32.1v74.9h64.8v-74.9Z"
            style="mix-blend-mode:multiply" />
        <path fill="#fff" d="M94.93 26.74H34.07v74.9h60.86v-74.9Z" />
        <path fill="#3DAD57"
            d="M23.53 57.08v40.4c0 1.83.57 3.6 1.64 5.06l29.54-25.2-31.18-20.26ZM74.3 77.33l29.53 25.21a8.55 8.55 0 0 0 1.64-5.05v-40.4L74.3 77.32Z" />
        <path fill="#3DAD57"
            d="M23.53 97.49v-.12l30.31-21.09 10.66-7.4 10.65 7.4 30.32 21.09v.12a8.56 8.56 0 0 1-8.58 8.58H32.1a8.59 8.59 0 0 1-8.58-8.58Z" />
        <path fill="#D9D9D9"
            d="M53.48 76.53 23.53 97.37V95.8l29.95-19.28Zm22.04 0 29.95 20.83v-1.55L75.52 76.53Z"
            style="mix-blend-mode:multiply" />
        <path fill="#32B137"
            d="M73.74 58.04a13.06 13.06 0 1 0-18.47-18.47 13.06 13.06 0 0 0 18.47 18.47Z" />
        <path fill="#fff"
            d="M61.87 55.55a.75.75 0 0 1-.53-.22l-5.19-5.2a.75.75 0 0 1 0-1.06l1.53-1.53a.75.75 0 0 1 1.07 0l3.12 3.13 8.38-8.38a.75.75 0 0 1 1.07 0l1.53 1.53a.75.75 0 0 1 0 1.07L62.4 55.33a.74.74 0 0 1-.54.22Z" />
    </symbol>
    <symbol id="illustration-done" fill="none" viewBox="0 0 89 89">
        <path stroke="#0D9677" stroke-linecap="round" stroke-linejoin="round" stroke-width="2"
            d="m60.5 33.5-21.31 20-9.69-9.1" />
        <rect width="86" height="86" x="1.5" y="1.5" stroke="#0D9677" stroke-width="2" rx="43" />
    </symbol>
    <symbol id="default-avatar" viewBox="0 0 120 120">
        <path
            d="M61.2711 0.749347C28.0071 0.172347 0.579054 27.0684 0.0110537 60.8214C-0.160891 69.8762 1.67505 78.8566 5.38694 87.1174C9.09883 95.3783 14.5945 102.714 21.4791 108.598C22.3526 107.808 23.3108 107.116 24.3361 106.536L42.3101 96.5873C43.473 95.9377 44.4411 94.9888 45.1138 93.839C45.7865 92.6893 46.1395 91.3805 46.1361 90.0483V82.5753C42.6617 78.0422 40.1788 72.8296 38.8481 67.2754C37.993 66.7162 37.2905 65.9531 36.8039 65.0547C36.3174 64.1563 36.0621 63.151 36.0611 62.1293V53.9503C36.0633 53.0963 36.2436 52.2521 36.5904 51.4716C36.9371 50.6911 37.4428 49.9915 38.0751 49.4173V37.5933C38.0751 37.5933 35.6811 19.1933 60.2381 19.1933C84.7951 19.1933 82.4021 37.5933 82.4021 37.5933V49.4173C83.0347 49.9912 83.5406 50.6907 83.8874 51.4713C84.2342 52.2519 84.4143 53.0962 84.4161 53.9503V62.1293C84.4149 63.4316 83.9987 64.6995 83.2277 65.749C82.4568 66.7985 81.3714 67.5749 80.1291 67.9653C78.7639 72.3221 76.7467 76.4469 74.146 80.1993C73.5797 81.0217 72.9719 81.8147 72.3251 82.5753V90.2403C72.3205 91.6172 72.6972 92.9684 73.4135 94.1443C74.1297 95.3202 75.1575 96.2748 76.383 96.9024L95.6301 106.666C96.7654 107.254 97.8263 107.976 98.7901 108.816C105.471 103.157 110.863 96.1325 114.602 88.2151C118.341 80.2977 120.341 71.6713 120.467 62.9163C120.039 29.1583 94.5361 1.32635 61.2711 0.749347Z"
            fill="currentColor" />
    </symbol>
    <symbol id="icon-unsafe" viewBox="0 0 14 14">
        <path fill="currentColor"
            d="m8.4355 1.90993.29199-.657c.02095-.04708.03242-.09782.03376-.14933.00133-.05151-.0075-.10278-.02597-.150884C8.7168.904615 8.68903.860625 8.65355.823258 8.61807.78589 8.57558.755876 8.5285.73493 8.48142.713985 8.43068.702517 8.37917.701182c-.05152-.001336-.10278.007488-.15088.025967-.0481.018479-.09209.046251-.12946.081731-.03737.035479-.06739.077972-.08833.12505l-.42.944h-1.582l-.42-.944C5.5462.83885 5.46786.764469 5.37071.727149c-.09714-.03732-.20513-.034521-.30021.007782-.09508.042302-.16946.120641-.20678.217785-.03732.097144-.03452.205134.00779.300214l.29199.657c-.38653.07601-.73466.28389-.98491.58813-.25025.30423-.38707.68594-.38709 1.07987v.654h6.016v-.654c-.00002-.39393-.13684-.77564-.38709-1.07987-.25025-.30424-.59838-.51212-.98491-.58813Z" />
        <path fill="currentColor"
            d="M13.2085 7.63098h-2.354v-.816c.5832-.09423 1.1139-.39282 1.4971-.8424.3833-.44958.5942-1.02083.5949-1.6116v-.523c0-.1041-.0414-.20393-.115-.27754-.0736-.07361-.1734-.11496-.2775-.11496-.1041 0-.2039.04135-.2775.11496-.0736.07361-.115.17344-.115.27754v.523c0 .38268-.1292.75415-.3666 1.05431-.2373.30016-.569.51145-.9414.59969v-.346c-.0003-.17337-.0693-.33956-.1918-.46215-.1226-.1226-.2888-.19158-.4622-.19185h-3.006v4.577c0 .1041-.04135.20393-.11496.27754-.07361.07361-.17344.11496-.27754.11496s-.20393-.04135-.27754-.11496c-.07361-.07361-.11496-.17344-.11496-.27754v-4.577h-3.01c-.17337.00027-.33956.06925-.46216.19185-.12259.12259-.19158.28878-.19184.46215v.346c-.37214-.0889-.70341-.30074-.94023-.60125-.23682-.30052-.36534-.67213-.36477-1.05474v-.52301c0-.10409-.04135-.20393-.11496-.27754-.07361-.07361-.17344-.11496-.27754-.11496-.104098 0-.203931.04135-.277539.11496-.073608.07361-.114961.17345-.114961.27754v.52301c.000744.59077.211597 1.162.59486 1.61158.38326.44958.91393.74818 1.49714.84241v.816H.3925c-.104098 0-.203931.04135-.277539.11496C.0413526 7.81755 0 7.91739 0 8.02148c0 .1041.0413526.20393.114961.27754.073608.07361.173441.11497.277539.11497h2.354v.81599c-.58321.09423-1.11388.39283-1.49714.84242-.383263.4496-.594116 1.0208-.59486 1.6116v.523c0 .1041.041353.2039.114961.2775.073608.0736.173441.115.277539.115.1041 0 .20393-.0414.27754-.115.07361-.0736.11496-.1734.11496-.2775v-.523c.00004-.3827.1292-.7542.36657-1.0543.23737-.3002.56907-.5115.94143-.5997v.215c0 1.0752.42712 2.1063 1.18739 2.8666S5.72631 14.299 6.8015 14.299s2.10634-.4271 2.86661-1.1874c.76029-.7603 1.18739-1.7914 1.18739-2.8666v-.215c.3724.0882.7041.2995.9414.5997.2374.3001.3666.6716.3666 1.0543v.523c0 .1041.0414.2039.115.2775.0736.0736.1734.115.2775.115.1041 0 .2039-.0414.2775-.115.0736-.0736.115-.1734.115-.2775v-.523c-.0007-.5908-.2116-1.162-.5949-1.6116-.3832-.44959-.9139-.74819-1.4971-.84242v-.81599h2.352c.1041 0 .2039-.04136.2775-.11497.0736-.07361.115-.17344.115-.27754 0-.10409-.0414-.20393-.115-.27754-.0736-.07361-.1734-.11496-.2775-.11496v.002Z" />
    </symbol>
    <symbol id="icon-safe" viewBox="0 0 17 17">
        <path fill="currentColor"
            d="M8.50001.100098C3.86111.100098.100006 3.8612.100006 8.5001c0 4.6389 3.761104 8.4 8.400004 8.4 4.63889 0 8.39999-3.7611 8.39999-8.4 0-4.6389-3.7611-8.400002-8.39999-8.400002ZM13.1949 6.895l-5.29199 5.292c-.1316.1316-.3094.2051-.4949.2051s-.364-.0735-.4949-.2051l-2.4171-2.4171c-.2737-.2737-.2737-.7161 0-.9898.2737-.2737.7161-.2737.9898 0l1.9222 1.9222 4.79709-4.7971c.2737-.2737.7161-.2737.9898 0 .2737.2737.2737.7161 0 .9898Z" />
    </symbol>
    <symbol id="icon-danger" viewBox="0 0 22 22">
        <path fill="none" stroke="currentColor" stroke-linecap="round" stroke-linejoin="round"
            stroke-width="2"
            d="M18.364 18.364A9 9 0 005.636 5.636m12.728 12.728A9 9 0 015.636 5.636m12.728 12.728L5.636 5.636" />
    </symbol>
    <symbol id="icon-link" viewBox="0 0 18 18">
        <path fill="currentColor" stroke="currentColor" stroke-width=".3"
            d="M7.67341 8.12161c.10529-.10529.16444-.2481.16444-.397 0-.1489-.05915-.29171-.16444-.397s-.2481-.16444-.397-.16444c-.1489 0-.29171.05915-.397.16444l-2.97 2.96999c-.48402.5-.75211 1.1702-.74647 1.8661.00565.6959.2846 1.3616.77667 1.8537.49207.4921 1.15784.771 1.85372.7767.69587.0056 1.36608-.2625 1.86608-.7465l6.70699-6.70699c.6933-.69513 1.082-1.6372 1.0807-2.61895-.0013-.98175-.3926-1.92277-1.0877-2.61605-.6951-.69328-1.6372-1.08202-2.6189-1.0807-.9818.00131-1.92281.39257-2.61609 1.0877l-6.689 6.693c-.45091.44021-.80996.96554-1.05634 1.54559-.24639.58-.3752 1.2031-.37898 1.8332-.003786.6302.11754 1.2548.35695 1.8377.2394.583.59212 1.1126 1.03772 1.5582.44559.4456.97519.7983 1.55811 1.0377.58292.2394 1.20755.3607 1.83771.3569.63015-.0037 1.25328-.1326 1.83328-.3789.58-.2464 1.10534-.6055 1.54555-1.0564l2.96599-2.965c.1053-.1053.1645-.2481.1645-.397 0-.1489-.0592-.2917-.1645-.397s-.2481-.1644-.397-.1644c-.1489 0-.2917.0591-.397.1644l-2.96999 2.97c-.3365.3441-.73793.6181-1.18104.806-.44311.1879-.9191.2861-1.40041.2888-.4813.0027-.95836-.0901-1.40355-.2731-.44518-.1829-.84966-.4524-1.19-.7927-.34034-.3403-.60978-.7448-.79272-1.19-.18295-.4452-.27576-.9222-.27306-1.4035.0027-.4813.10085-.9573.28877-1.4004.18792-.4432.46188-.84459.80601-1.18109l6.693-6.693c.23819-.24009.52179-.43034.83419-.55962.3125-.12929.6476-.19503.9858-.19338.6824.00044 1.3368.27119 1.82.753.2401.23815.4303.52175.5596.83423.1293.31249.1951.6476.1934.98577-.0004.68237-.2712 1.33678-.753 1.82L6.85141 13.2586c-.28881.2831-.67709.4417-1.0815.4417-.40441 0-.79269-.1586-1.0815-.4417-.14316-.1414-.25683-.3098-.33441-.4954-.07758-.1857-.11753-.3849-.11753-.5861 0-.2012.03995-.4004.11753-.5861.07758-.1856.19125-.354.33441-.4954l2.984-2.96999.001-.004Z" />
    </symbol>
    <symbol id="icon-eye" viewBox="0 0 20 20" fill="none" stroke="currentColor">
        <path
            d="M1.3 10S4.45 3.67 10 3.67c5.54 0 8.7 6.33 8.7 6.33s-3.16 6.33-8.7 6.33C4.46 16.33 1.3 10 1.3 10Z" />
        <path d="M10 12.38a2.37 2.37 0 1 0 0-4.75 2.37 2.37 0 0 0 0 4.75Z" />
    </symbol>
    <symbol id="icon-arrow-down" viewBox="0 0 15 8">
        <path d="M1.76501 1.05444L7.65601 6.94544L13.5471 1.05444" stroke="currentColor" fill="none"
            stroke-width="2" stroke-linecap="round" stroke-linejoin="round" />
    </symbol>
    <symbol id="icon-loading" viewBox="0 0 24 24">
        <path fill="currentColor" stroke="none"
            d="M18.364 5.636L16.95 7.05A7 7 0 1 0 19 12h2a9 9 0 1 1-2.636-6.364z" />
    </symbol>
    <symbol id="icon-cloud" fill="none" stroke="currentColor" stroke-linecap="round"
        stroke-linejoin="round"
        stroke-width="2"
        viewBox="0 0 32 27">
        <path d="M21.17 18.67 16 13.5l-5.17 5.17M16 13.5v11.63" />
        <path d="M26.84 21.75a6.46 6.46 0 0 0-3.09-12.13h-1.63a10.33 10.33 0 1 0-17.75 9.43" />
        <path d="M21.17 18.67 16 13.5l-5.17 5.17" />
    </symbol>
    <symbol id="icon-download" fill="none" viewBox="0 0 20 19">
        <path fill="currentColor" stroke="currentColor" stroke-width=".5"
            d="M15.56 10.36 10 15.53l-5.56-5.17 1.02-.95 3.82 3.54V1h1.44v11.96l3.82-3.55 1.02.95Zm3.7 6.5H.74v1.34h18.5v-1.34Z" />
    </symbol>

	<symbol id="icon-download-2" fill="none" viewBox="0 0 16 16">
		<path d="M8 11.7885L3.73075 7.51925L4.78475 6.43475L7.25 8.9V0.5H8.75V8.9L11.2153 6.43475L12.2693 7.51925L8 11.7885ZM2.30775 15.5C1.80258 15.5 1.375 15.325 1.025 14.975C0.675 14.625 0.5 14.1974 0.5 13.6923V10.9808H2V13.6923C2 13.7692 2.03208 13.8398 2.09625 13.9038C2.16025 13.9679 2.23075 14 2.30775 14H13.6923C13.7692 14 13.8398 13.9679 13.9038 13.9038C13.9679 13.8398 14 13.7692 14 13.6923V10.9808H15.5V13.6923C15.5 14.1974 15.325 14.625 14.975 14.975C14.625 15.325 14.1974 15.5 13.6923 15.5H2.30775Z" fill="currentColor"/>
	</symbol>
    <symbol id="icon-restart" fill="none" viewBox="0 0 24 24">
        <path stroke-linecap="round" stroke="currentColor" stroke-linejoin="round"
            d="M16.023 9.348h4.992v-.001M2.985 19.644v-4.992m0 0h4.992m-4.993 0l3.181 3.183a8.25 8.25 0 0013.803-3.7M4.031 9.865a8.25 8.25 0 0113.803-3.7l3.181 3.182m0-4.991v4.99" />
    </symbol>
    <symbol id="icon-rescan" fill="none" viewBox="0 0 16 19">
        <path fill="currentColor" stroke="currentColor" stroke-width=".3"
            d="M13.09 5.74A7.14 7.14 0 0 0 8 3.64H6.95l1.69-1.7L7.7 1 4.4 4.3l3.25 3.3.95-.93-1.68-1.7H8a5.86 5.86 0 1 1-5.86 5.86v-.67H.81v.67a7.2 7.2 0 1 0 12.28-5.09Z" />
    </symbol>
    <symbol id="icon-like" fill="none" viewBox="0 0 17 16">
        <path fill="currentColor" stroke="currentColor" stroke-width=".6"
            d="M8.5 15.2a.95.95 0 0 1-.62-.23l-1.84-1.59A34.23 34.23 0 0 1 2 9.61 6.03 6.03 0 0 1 .4 5.67 5.06 5.06 0 0 1 1.68 2.2 4.35 4.35 0 0 1 4.93.8c.92 0 1.82.3 2.54.88.4.3.74.67 1.03 1.07.3-.4.64-.76 1.03-1.07A4.07 4.07 0 0 1 12.07.8a4.35 4.35 0 0 1 3.24 1.41 5.1 5.1 0 0 1 1.29 3.46 6.03 6.03 0 0 1-1.61 3.94 34.23 34.23 0 0 1-4.02 3.77l-1.84 1.59a.95.95 0 0 1-.63.23ZM4.93 1.75a3.42 3.42 0 0 0-2.54 1.1 4.12 4.12 0 0 0-1.04 2.82A5.07 5.07 0 0 0 2.75 9c1.2 1.32 2.5 2.54 3.9 3.65l1.84 1.6 1.86-1.6A33.7 33.7 0 0 0 14.25 9a5.05 5.05 0 0 0 1.38-3.34 4.12 4.12 0 0 0-1.03-2.8 3.42 3.42 0 0 0-2.54-1.1 3.1 3.1 0 0 0-1.96.67c-.44.35-.8.78-1.09 1.27A.6.6 0 0 1 8 3.7a4.6 4.6 0 0 0-1.1-1.27 3.14 3.14 0 0 0-1.96-.68Z" />
    </symbol>
    <symbol id="icon-twitter" fill="none" viewBox="0 0 19 18">
        <path fill="currentColor" stroke="currentColor" stroke-width=".4"
            d="M18.5 1.73a.47.47 0 0 0-.06-.23.44.44 0 0 0-.16-.16.41.41 0 0 0-.43 0 6.6 6.6 0 0 1-1.94.83 3.89 3.89 0 0 0-5.64.08A4.4 4.4 0 0 0 9.1 5.64a9.75 9.75 0 0 1-6.61-3.78.43.43 0 0 0-.17-.13.4.4 0 0 0-.39.04.5.5 0 0 0-.14.15 4.5 4.5 0 0 0 .1 4.48l-.05-.03a.41.41 0 0 0-.42.03.48.48 0 0 0-.16.17.51.51 0 0 0-.06.24 4.4 4.4 0 0 0 1.58 3.37.42.42 0 0 0-.2.14.46.46 0 0 0-.09.43c.2.65.55 1.24 1 1.72a4 4 0 0 0 1.65 1.04 6.56 6.56 0 0 1-4.16.87.41.41 0 0 0-.28.07.45.45 0 0 0-.17.23c-.04.1-.04.2 0 .3.02.1.09.18.17.23A10.27 10.27 0 0 0 6.47 17c2.33.03 4.6-.76 6.45-2.23a11.14 11.14 0 0 0 3.82-5.9c.3-1.03.44-2.1.44-3.16v-.34a4.89 4.89 0 0 0 1.31-3.64Zm-2.08 3.19a.5.5 0 0 0-.1.32v.46c0 .99-.13 1.97-.4 2.91a10.13 10.13 0 0 1-3.5 5.46 9.25 9.25 0 0 1-5.95 2.03c-1.3 0-2.6-.28-3.8-.82a7.4 7.4 0 0 0 3.87-1.67.45.45 0 0 0 .15-.23.47.47 0 0 0 0-.27.45.45 0 0 0-.16-.22.41.41 0 0 0-.24-.09c-.55 0-1.09-.17-1.56-.46-.48-.3-.87-.71-1.14-1.21.36 0 .72-.05 1.07-.16.1-.02.17-.08.23-.17a.47.47 0 0 0-.02-.55.42.42 0 0 0-.24-.15A3.13 3.13 0 0 1 3 9.18a3.4 3.4 0 0 1-.87-1.7c.36.12.74.2 1.12.2.1.01.19-.02.27-.07a.43.43 0 0 0 .15-.24c.03-.1.03-.2 0-.29a.45.45 0 0 0-.17-.22 3.3 3.3 0 0 1-1.04-1.21 3.49 3.49 0 0 1-.2-2.68A10.5 10.5 0 0 0 9.6 6.6c.06 0 .13 0 .2-.04a.39.39 0 0 0 .15-.13.46.46 0 0 0 .08-.39 3.46 3.46 0 0 1 .85-3.14 3.12 3.12 0 0 1 3.53-.71 3 3 0 0 1 1.05.79c.05.05.12.1.19.12a.4.4 0 0 0 .2.01c.62-.13 1.2-.33 1.77-.6a4.53 4.53 0 0 1-1.2 2.42Z" />
    </symbol>
    <symbol id="icon-tmp" fill="none" viewBox="0 0 55 60">
        <circle cx="27.5" cy="27.5" r="26.9" fill="#F4F3E3" stroke="#9F9C62" stroke-width="1.2" />
        <rect width="29.8" height="18.8" x="12.6" y="15.6" fill="#fff" stroke="#9F9C62"
            stroke-width="1.2" rx="9.4" />
        <path stroke="#9F9C62" stroke-linecap="round" stroke-width="1.2" d="M32.4 29.24h-4.8" />
        <path stroke="#9F9C62" stroke-linecap="round" stroke-linejoin="round" stroke-width="1.2"
            d="m24.75 27.39 4-3.18-4-3.19" />
        <rect width="39.8" height="15.8" x="7.6" y="43.6" fill="#fff" rx="7.9" />
        <path fill="#9F9C62"
            d="M25.05 49.65c-.12-.16-.3-.28-.52-.35a1.6 1.6 0 0 0-.96-.08 1.4 1.4 0 0 0-.34.13.7.7 0 0 0-.25.22c-.07.1-.1.2-.1.34 0 .21.07.38.23.49.16.11.37.21.6.29l.8.24c.27.08.54.2.77.34.25.15.45.34.61.59.16.25.25.58.25.99a2.2 2.2 0 0 1-1.69 2.19 3.8 3.8 0 0 1-2.32-.07 3.2 3.2 0 0 1-1.1-.68l1.1-1.22a1.68 1.68 0 0 0 1.75.63c.13-.03.25-.08.35-.14a.7.7 0 0 0 .25-.23c.06-.1.1-.2.1-.33a.58.58 0 0 0-.25-.5 2.1 2.1 0 0 0-.61-.32 19.1 19.1 0 0 0-.8-.26 3.6 3.6 0 0 1-.8-.35 1.98 1.98 0 0 1-.63-.58 1.69 1.69 0 0 1-.23-.95c0-.38.07-.71.21-1a2.25 2.25 0 0 1 1.48-1.15 3.97 3.97 0 0 1 2.17.02c.37.11.7.3 1 .57l-1.07 1.17Zm2.25-1.73h1.56v2.64h3.03v-2.64h1.56V55h-1.56v-3.06h-3.03V55H27.3v-7.08Z" />
        <rect width="39.8" height="15.8" x="7.6" y="43.6" stroke="#9F9C62" stroke-width="1.2"
            rx="7.9" />
    </symbol>
    <symbol id="icon-alert" fill="none" viewBox="0 0 18 18">
		<mask id="mask0_1212_1554" style="mask-type:alpha" maskUnits="userSpaceOnUse" x="0" y="0" width="18" height="18">
			<rect x="0.5" y="0.5" width="17" height="17" fill="#D9D9D9"/>
		</mask>
		<g mask="url(#mask0_1212_1554)">
			<path d="M1.20831 15.3753L8.99998 1.91699L16.7916 15.3753H1.20831ZM8.99998 13.2503C9.20067 13.2503 9.3689 13.1824 9.50467 13.0467C9.64043 12.9109 9.70831 12.7427 9.70831 12.542C9.70831 12.3413 9.64043 12.1731 9.50467 12.0373C9.3689 11.9015 9.20067 11.8337 8.99998 11.8337C8.79928 11.8337 8.63106 11.9015 8.49529 12.0373C8.35953 12.1731 8.29165 12.3413 8.29165 12.542C8.29165 12.7427 8.35953 12.9109 8.49529 13.0467C8.63106 13.1824 8.79928 13.2503 8.99998 13.2503ZM8.29165 11.1253H9.70831V7.58366H8.29165V11.1253Z" fill="#F0465B"/>
		</g>
    </symbol>
    <symbol id="icon-check" fill="none" viewBox="0 0 18 18">
		<mask id="mask0_1212_1624" style="mask-type:alpha" maskUnits="userSpaceOnUse" x="0" y="0" width="18" height="18">
			<rect x="0.5" y="0.5" width="17" height="17" fill="#D9D9D9"/>
		</mask>
		<g mask="url(#mask0_1212_1624)">
			<path d="M8.00835 12.2587L13.0021 7.26491L12.0104 6.27324L8.00835 10.2753L5.9896 8.25658L4.99794 9.24824L8.00835 12.2587ZM9.00002 16.0837C8.02016 16.0837 7.09933 15.8977 6.23752 15.5258C5.37571 15.154 4.62606 14.6493 3.98856 14.0118C3.35106 13.3743 2.84637 12.6246 2.4745 11.7628C2.10262 10.901 1.91669 9.98019 1.91669 9.00033C1.91669 8.02046 2.10262 7.09963 2.4745 6.23783C2.84637 5.37602 3.35106 4.62637 3.98856 3.98887C4.62606 3.35137 5.37571 2.84668 6.23752 2.4748C7.09933 2.10293 8.02016 1.91699 9.00002 1.91699C9.97988 1.91699 10.9007 2.10293 11.7625 2.4748C12.6243 2.84668 13.374 3.35137 14.0115 3.98887C14.649 4.62637 15.1537 5.37602 15.5255 6.23783C15.8974 7.09963 16.0834 8.02046 16.0834 9.00033C16.0834 9.98019 15.8974 10.901 15.5255 11.7628C15.1537 12.6246 14.649 13.3743 14.0115 14.0118C13.374 14.6493 12.6243 15.154 11.7625 15.5258C10.9007 15.8977 9.97988 16.0837 9.00002 16.0837Z" fill="#56AC30"/>
		</g>
    </symbol>
    <symbol id="icon-calendar" fill="none" viewBox="0 0 15 15">
        <path stroke="currentColor" stroke-linecap="round" stroke-linejoin="round"
            d="M11.88 2.5H3.12c-.69 0-1.25.56-1.25 1.25v8.75c0 .69.56 1.25 1.25 1.25h8.75c.7 0 1.26-.56 1.26-1.25V3.75c0-.69-.56-1.25-1.26-1.25ZM10 1.25v2.5m-5-2.5v2.5m-3.12 2.5h11.25" />
    </symbol>
	<symbol id="icon-info" viewBox="0 0 15 16" fill="none" xmlns="http://www.w3.org/2000/svg">
		<path d="M7.5 15.5C3.36429 15.5 0 12.1355 0 8C0 3.8645 3.36429 0.5 7.5 0.5C11.6355 0.5 15 3.8645 15 8C15 12.1355 11.6355 15.5 7.5 15.5ZM7.5 1.91514C4.14471 1.91514 1.41514 4.64471 1.41514 8C1.41514 11.3553 4.14471 14.0849 7.5 14.0849C10.8551 14.0849 13.5849 11.3553 13.5849 8C13.5849 4.64471 10.8551 1.91514 7.5 1.91514Z" fill="currentColor"/>
		<path d="M5.70046 11.4914C5.73346 11.3457 5.78274 11.1524 5.84874 10.9122L6.73803 7.66382C6.74767 7.62611 6.7556 7.58839 6.76267 7.55068C6.76974 7.51318 6.77339 7.47782 6.77339 7.44482C6.77339 7.25196 6.71232 7.13196 6.59017 7.08461C6.46782 7.03768 6.24453 7.00703 5.9201 6.99289V6.61146C6.19139 6.59261 6.58524 6.55382 7.10167 6.49489C7.61831 6.43618 7.9841 6.38539 8.19903 6.34318L8.81617 6.22296L7.69331 10.3402C7.59924 10.6932 7.53582 10.9381 7.5026 11.0748C7.41796 11.4232 7.37531 11.6493 7.37531 11.7526C7.37531 11.8563 7.39889 11.9234 7.44624 11.9538C7.49317 11.9847 7.54503 11.9999 7.60181 11.9999C7.74817 11.9999 7.92967 11.8752 8.14674 11.6255C8.36403 11.3761 8.55517 11.1147 8.72039 10.8417L9.03817 11.0465C8.56674 11.7385 8.20589 12.2045 7.95581 12.4447C7.54567 12.8403 7.10746 13.0381 6.64074 13.0381C6.37674 13.0381 6.13974 12.9571 5.93017 12.7942C5.72039 12.632 5.6156 12.3837 5.6156 12.0492C5.6156 11.9317 5.64389 11.7457 5.70046 11.4914ZM9.10181 3.27803C9.29017 3.46639 9.38446 3.69482 9.38446 3.96311C9.38446 4.23139 9.29017 4.46111 9.10181 4.65161C8.91346 4.84232 8.68524 4.93768 8.41674 4.93768C8.14846 4.93768 7.91896 4.84232 7.72824 4.65161C7.53753 4.46089 7.44217 4.23139 7.44217 3.96311C7.44217 3.69482 7.53753 3.46661 7.72824 3.27803C7.91896 3.08989 8.14846 2.99561 8.41674 2.99561C8.68503 2.99561 8.91346 3.08968 9.10181 3.27803Z" fill="currentColor"/>
	</symbol>
	<symbol id="icon-target" viewBox="0 0 15 16" fill="none" xmlns="http://www.w3.org/2000/svg">
		<path d="M7.5 14.25C10.9518 14.25 13.75 11.4518 13.75 8C13.75 4.54822 10.9518 1.75 7.5 1.75C4.04822 1.75 1.25 4.54822 1.25 8C1.25 11.4518 4.04822 14.25 7.5 14.25Z" stroke="currentColor" stroke-width="1.3" stroke-linecap="round" stroke-linejoin="round"/>
		<path d="M13.75 8H10.25" stroke="currentColor" stroke-width="1.3" stroke-linecap="round" stroke-linejoin="round"/>
		<path d="M4.75 8H1.25" stroke="currentColor" stroke-width="1.3" stroke-linecap="round" stroke-linejoin="round"/>
		<path d="M7.5 5.25V1.75" stroke="currentColor" stroke-width="1.3" stroke-linecap="round" stroke-linejoin="round"/>
		<path d="M7.5 14.25V10.75" stroke="currentColor" stroke-width="1.3" stroke-linecap="round" stroke-linejoin="round"/>
	</symbol>
    <symbol
        id="icon-search"
        fill="none"
        viewBox="0 0 18 18"
    >
        <path
            fill="currentColor"
            stroke="currentColor"
            stroke-width=".7"
            d="m16.65 16.18-3.89-3.88a6.82 6.82 0 1 0-.68.67l3.89 3.89a.48.48 0 0 0 .52.1.48.48 0 0 0 .15-.78ZM1.75 7.83a5.86 5.86 0 1 1 11.72 0 5.86 5.86 0 0 1-11.72 0Z"
        />
    </symbol>
    <symbol id="icon-cerificate-valid" fill="none" viewBox="0 0 20 20">
        <g stroke="#56AC30" stroke-linecap="round" stroke-linejoin="round" stroke-width="1.5"
            clip-path="url(#a)">
            <path d="M10 18.33a8.33 8.33 0 1 0 0-16.66 8.33 8.33 0 0 0 0 16.66Z" />
            <path d="M13.89 7.78 9.3 12.22 7.22 10.2" />
        </g>
        <defs>
            <clipPath id="a">
                <path fill="#fff" d="M0 0h20v20H0z" />
            </clipPath>
        </defs>
    </symbol>
    <symbol id="icon-cerificate-invalid" fill="none" viewBox="0 0 21 20">
        <path stroke="#E63755" stroke-linecap="round" stroke-linejoin="round" stroke-width="1.5"
            d="M10.5 18.33a8.33 8.33 0 1 0 0-16.66 8.33 8.33 0 0 0 0 16.66ZM13 7.5l-5 5m0-5 5 5" />
    </symbol>
    <symbol id="icon-cerificate-signed" fill="none" viewBox="0 0 20 20">
        <path stroke="#F08039" stroke-linecap="round" stroke-linejoin="round" stroke-width="1.5"
            d="M10 18a8.5 8.5 0 1 0 0-17 8.5 8.5 0 0 0 0 17Zm0-12.33v4.96m0 2.7h0" />
    </symbol>
    <symbol id="icon-close" fill="none" viewBox="0 0 24 24" stroke-width="1.5"
        stroke="currentColor">
        <path stroke-linecap="round" stroke-linejoin="round" d="M6 18L18 6M6 6l12 12" />
    </symbol>
    <symbol id="icon-user" fill="none" viewBox="0 0 21 21">
        <path stroke="currentColor" stroke-linecap="round" stroke-linejoin="round"
            stroke-width="1.2"
            d="M17.5 18.375v-1.75a3.5 3.5 0 0 0-3.5-3.5H7a3.5 3.5 0 0 0-3.5 3.5v1.75m7-8.75a3.5 3.5 0 1 0 0-7 3.5 3.5 0 0 0 0 7Z" />
    </symbol>
    <symbol id="icon-cog" fill="none" viewBox="0 0 21 21">
        <g stroke="currentColor" stroke-linecap="round" stroke-linejoin="round" stroke-width="1.2"
            clip-path="url(#a)">
            <path d="M10.5 13.125a2.625 2.625 0 1 0 0-5.25 2.625 2.625 0 0 0 0 5.25Z" />
            <path
                d="M16.975 13.125a1.444 1.444 0 0 0 .289 1.592l.052.053a1.75 1.75 0 0 1-1.908 2.856 1.748 1.748 0 0 1-.568-.38l-.053-.052a1.444 1.444 0 0 0-1.592-.289 1.444 1.444 0 0 0-.875 1.321v.149a1.75 1.75 0 0 1-3.5 0v-.079a1.444 1.444 0 0 0-.945-1.321 1.444 1.444 0 0 0-1.593.289l-.052.052a1.75 1.75 0 1 1-2.476-2.476l.052-.053a1.443 1.443 0 0 0 .289-1.592 1.444 1.444 0 0 0-1.321-.875h-.149a1.75 1.75 0 0 1 0-3.5h.079a1.444 1.444 0 0 0 1.321-.945 1.444 1.444 0 0 0-.289-1.593l-.052-.052A1.75 1.75 0 1 1 6.16 3.754l.053.052a1.444 1.444 0 0 0 1.592.289h.07a1.444 1.444 0 0 0 .875-1.321v-.149a1.75 1.75 0 1 1 3.5 0v.079a1.444 1.444 0 0 0 .875 1.321 1.444 1.444 0 0 0 1.592-.289l.053-.052a1.75 1.75 0 0 1 2.856.568 1.75 1.75 0 0 1-.38 1.908l-.052.053a1.444 1.444 0 0 0-.289 1.592v.07a1.444 1.444 0 0 0 1.321.875h.149a1.75 1.75 0 0 1 0 3.5h-.079a1.444 1.444 0 0 0-1.321.875v0Z" />
        </g>
        <defs>
            <clipPath id="a">
                <path fill="#fff" d="M0 0h21v21H0z" />
            </clipPath>
        </defs>
    </symbol>
    <symbol id="icon-logout" fill="none" viewBox="0 0 21 21">
        <path stroke="currentColor" stroke-linecap="round" stroke-linejoin="round"
            stroke-width="1.2"
            d="M7.875 18.375h-3.5a1.75 1.75 0 0 1-1.75-1.75V4.375a1.75 1.75 0 0 1 1.75-1.75h3.5M14 14.875l4.375-4.375L14 6.125m4.375 4.375h-10.5" />
    </symbol>
    <symbol id="icon-delete-alert" fill="none" viewBox="0 0 54 46">
        <path stroke="#EF870C" stroke-linecap="round" stroke-linejoin="round" stroke-width="2"
            d="M22.867 3.329 2.397 37.5a4.834 4.834 0 0 0 4.133 7.25h40.938a4.834 4.834 0 0 0 4.133-7.25L31.131 3.33a4.833 4.833 0 0 0-8.264 0v0ZM27 16v13m0 6.084h.024" />
    </symbol>
    <symbol id="icon-filter" fill="none" viewBox="0 0 19 19">
        <path stroke="currentColor" stroke-linecap="round" stroke-linejoin="round"
            stroke-width="1.5"
            d="M17.417 2.375H1.584l6.333 7.49v5.177l3.167 1.583v-6.76l6.333-7.49Z" />
    </symbol>
    <symbol id="icon-properties" fill="none" viewBox="0 0 17 13">
        <path stroke="currentColor" stroke-width="1.3"
            d="M16.501 1H4.723m11.778 5.499H4.723m11.778 5.5H4.723M2.95 1H.5m2.45 5.5H.5M2.95 12H.5" />
    </symbol>

	<symbol id="icon-checklist" viewBox="0 0 19 19" fill="none" xmlns="http://www.w3.org/2000/svg">
		<mask id="mask0_1406_8092" style="mask-type:alpha" maskUnits="userSpaceOnUse" x="0" y="0" width="19" height="19">
			<rect width="19" height="19" fill="#D9D9D9"/>
		</mask>
		<g mask="url(#mask0_1406_8092)">
			<path d="M4.41752 15.1931L1.45074 12.2313L2.71543 10.9715L4.39772 12.6538L7.76231 9.28451L9.02205 10.5688L4.41752 15.1931ZM4.41752 8.85978L1.45074 5.89795L2.71543 4.63821L4.39772 6.32051L7.76231 2.95117L9.02205 4.23545L4.41752 8.85978ZM10.3154 13.5672V11.7662H17.5493V13.5672H10.3154ZM10.3154 7.23389V5.43285H17.5493V7.23389H10.3154Z" fill="currentColor"/>
		</g>
	</symbol>

    <symbol id="icon-value-in" fill="none" viewBox="0 0 14 14" xmlns="http://www.w3.org/2000/svg">
		<path d="M10.4791 7.83594H0.333252V6.16927H10.4791L5.81242 1.5026L6.99992 0.335938L13.6666 7.0026L6.99992 13.6693L5.81242 12.5026L10.4791 7.83594Z" fill="#6EBA14"/>
    </symbol>
	<symbol id="icon-export-api-logs" viewBox="0 0 21 20" fill="none" xmlns="http://www.w3.org/2000/svg">
		<mask id="mask0_1412_9055" style="mask-type:alpha" maskUnits="userSpaceOnUse" x="0" y="0" width="21" height="20">
			<rect x="0.919434" width="20" height="20" fill="#D9D9D9"/>
		</mask>
		<g mask="url(#mask0_1412_9055)">
			<path d="M8.16943 13.9167L7.00277 12.75L10.5861 9.16667H7.5861V7.5H13.4194V13.3333H11.7528V10.3333L8.16943 13.9167ZM16.7528 10V4.16667H10.9194V2.5H18.4194V10H16.7528ZM5.0861 17.5C4.62777 17.5 4.23541 17.3368 3.90902 17.0104C3.58263 16.684 3.41943 16.2917 3.41943 15.8333V2.5H5.0861V15.8333H18.4194V17.5H5.0861Z" fill="#5F4CD9"/>
		</g>
	</symbol>


    <symbol id="icon-value-out" fill="none" viewBox="0 0 14 14" xmlns="http://www.w3.org/2000/svg">
		<path d="M3.52092 6.16601L13.6667 6.16602L13.6667 7.83268L3.52092 7.83268L8.18758 12.4993L7.00008 13.666L0.333416 6.99935L7.00008 0.332682L8.18758 1.49935L3.52092 6.16601Z" fill="#5F4CD9"/>
    </symbol>
	
    <symbol id="icon-plus-circle" fill="none" stroke="currentColor" stroke-width="1.5"
        viewBox="0 0 24 24">
        <path stroke-linecap="round" stroke-linejoin="round"
            d="M12 9v6m3-3H9m12 0a9 9 0 1 1-18 0 9 9 0 0 1 18 0z" />
    </symbol>
    <symbol id="icon-minus-circle" fill="none" stroke="currentColor" stroke-width="1.5"
        viewBox="0 0 24 24">
        <path stroke-linecap="round" stroke-linejoin="round"
            d="M15 12H9m12 0a9 9 0 1 1-18 0 9 9 0 0 1 18 0z" />
    </symbol>
    <symbol id="icon-copy" fill="none" stroke="currentColor" stroke-width="1.5"
        viewBox="0 0 24 24">
        <path stroke-linecap="round" stroke-linejoin="round"
            d="M13.19 8.688a4.5 4.5 0 0 1 1.242 7.244l-4.5 4.5a4.5 4.5 0 0 1-6.364-6.364l1.757-1.757m13.35-.622 1.757-1.757a4.5 4.5 0 0 0-6.364-6.364l-4.5 4.5a4.5 4.5 0 0 0 1.242 7.244" />
    </symbol>

	<symbol id="icon-content-copy" viewBox="0 0 20 20" fill="none" xmlns="http://www.w3.org/2000/svg">
		<mask id="mask0_1212_1928" style="mask-type:alpha" maskUnits="userSpaceOnUse" x="0" y="0" width="20" height="20">
			<rect width="20" height="20" fill="#D9D9D9"/>
		</mask>
		<g mask="url(#mask0_1212_1928)">
			<path d="M7.5 15.0003C7.04167 15.0003 6.64931 14.8371 6.32292 14.5107C5.99653 14.1844 5.83333 13.792 5.83333 13.3337V3.33366C5.83333 2.87533 5.99653 2.48296 6.32292 2.15658C6.64931 1.83019 7.04167 1.66699 7.5 1.66699H15C15.4583 1.66699 15.8507 1.83019 16.1771 2.15658C16.5035 2.48296 16.6667 2.87533 16.6667 3.33366V13.3337C16.6667 13.792 16.5035 14.1844 16.1771 14.5107C15.8507 14.8371 15.4583 15.0003 15 15.0003H7.5ZM7.5 13.3337H15V8.33366V3.33366H7.5V13.3337ZM4.16667 18.3337C3.70833 18.3337 3.31597 18.1705 2.98958 17.8441C2.66319 17.5177 2.5 17.1253 2.5 16.667V5.00032H4.16667V16.667H13.3333V18.3337H4.16667Z" fill="#5F4CD9"/>
		</g>
	</symbol>

	<symbol id="icon-check-circle" viewBox="0 0 20 20" fill="none" xmlns="http://www.w3.org/2000/svg">
		<mask id="mask0_1212_1919" style="mask-type:alpha" maskUnits="userSpaceOnUse" x="0" y="0" width="20" height="20">
			<rect width="20" height="20" fill="#D9D9D9"/>
		</mask>
		<g mask="url(#mask0_1212_1919)">
			<path d="M8.83334 13.8337L14.7083 7.95866L13.5417 6.79199L8.83334 11.5003L6.45834 9.12533L5.29167 10.292L8.83334 13.8337ZM10 18.3337C8.84723 18.3337 7.76389 18.1149 6.75 17.6774C5.73612 17.2399 4.85417 16.6462 4.10417 15.8962C3.35417 15.1462 2.76042 14.2642 2.32292 13.2503C1.88542 12.2364 1.66667 11.1531 1.66667 10.0003C1.66667 8.84755 1.88542 7.76421 2.32292 6.75033C2.76042 5.73644 3.35417 4.85449 4.10417 4.10449C4.85417 3.35449 5.73612 2.76074 6.75 2.32324C7.76389 1.88574 8.84723 1.66699 10 1.66699C11.1528 1.66699 12.2361 1.88574 13.25 2.32324C14.2639 2.76074 15.1458 3.35449 15.8958 4.10449C16.6458 4.85449 17.2396 5.73644 17.6771 6.75033C18.1146 7.76421 18.3333 8.84755 18.3333 10.0003C18.3333 11.1531 18.1146 12.2364 17.6771 13.2503C17.2396 14.2642 16.6458 15.1462 15.8958 15.8962C15.1458 16.6462 14.2639 17.2399 13.25 17.6774C12.2361 18.1149 11.1528 18.3337 10 18.3337ZM10 16.667C11.8611 16.667 13.4375 16.0212 14.7292 14.7295C16.0208 13.4378 16.6667 11.8614 16.6667 10.0003C16.6667 8.13921 16.0208 6.56283 14.7292 5.27116C13.4375 3.97949 11.8611 3.33366 10 3.33366C8.13889 3.33366 6.56251 3.97949 5.27084 5.27116C3.97917 6.56283 3.33334 8.13921 3.33334 10.0003C3.33334 11.8614 3.97917 13.4378 5.27084 14.7295C6.56251 16.0212 8.13889 16.667 10 16.667Z" fill="white"/>
		</g>
	</symbol>

	<symbol id="icon-backlight" viewBox="0 0 20 20" fill="none" xmlns="http://www.w3.org/2000/svg">
		<mask id="mask0_1393_1635" style="mask-type:alpha" maskUnits="userSpaceOnUse" x="0" y="0" width="20" height="20">
			<rect y="0.236328" width="20" height="20" fill="#CF2F2F"/>
		</mask>
		<g mask="url(#mask0_1393_1635)">
			<path d="M0.71875 12.7344V10.8385H4.28125V12.7344H0.71875ZM5.29167 8.40917L2.76312 5.88062L4.09417 4.53375L6.62271 7.07812L5.29167 8.40917ZM5.71875 15.4635V12.7344H14.2812V15.4635H5.71875ZM9.05208 6.06771V1.67188H10.9479V6.06771H9.05208ZM14.7083 8.41417L13.3823 7.07812L15.9058 4.54958L17.2477 5.88562L14.7083 8.41417ZM15.7187 12.7344V10.8385H19.2812V12.7344H15.7187Z" fill="#B73D32"/>
		</g>
	</symbol>

	<symbol id="icon-tune" viewBox="0 0 19 19" fill="none" xmlns="http://www.w3.org/2000/svg">
		<mask id="mask0_1406_8071" style="mask-type:alpha" maskUnits="userSpaceOnUse" x="0" y="0" width="19" height="19">
			<rect width="19" height="19" fill="#D9D9D9"/>
		</mask>
		<g mask="url(#mask0_1406_8071)">
			<path d="M8.67038 16.7718V11.8752H10.4004V13.4585H16.7337V15.1885H10.4004V16.7718H8.67038ZM2.26599 15.1885V13.4585H7.16265V15.1885H2.26599ZM5.43266 11.9462V10.3629H2.26599V8.63745H5.43266V7.05412H7.16265V11.9462H5.43266ZM8.67038 10.3629V8.63745H16.7337V10.3629H8.67038ZM11.837 7.12517V2.22852H13.567V3.81185H16.7337V5.54184H13.567V7.12517H11.837ZM2.26599 5.54184V3.81185H10.3293V5.54184H2.26599Z" fill="currentColor"/>
		</g>
	</symbol>


    <symbol id="icon-check-line" fill="none" stroke="currentColor" stroke-width="1.5"
        viewBox="0 0 24 24">
        <path stroke-linecap="round" stroke-linejoin="round" d="m4.5 12.75 6 6 9-13.5" />
    </symbol>
    <symbol id="icon-dark-mode" fill="none" viewBox="0 0 18 18">
        <path stroke="currentColor" stroke-linecap="round" stroke-linejoin="round"
            stroke-width="1.5"
            d="M16.86 9.7a7.87 7.87 0 1 1-8.57-8.56 6.12 6.12 0 0 0 8.57 8.57Z" />
    </symbol>
    <symbol id="icon-light-mode" fill="none" viewBox="0 0 18 18">
        <g stroke="currentColor" stroke-linecap="round" stroke-linejoin="round"
            stroke-width="1.5"
            clip-path="url(#a)">
            <path
                d="M9 12.75a3.75 3.75 0 1 0 0-7.5 3.75 3.75 0 0 0 0 7.5Zm0-12v1.5m0 13.5v1.5M3.17 3.17l1.06 1.06m9.54 9.54 1.07 1.07M.75 9h1.5m13.5 0h1.5M3.17 14.84l1.06-1.07m9.54-9.54 1.07-1.07" />
        </g>
        <defs>
            <clipPath id="a">
                <path fill="currentColor" d="M0 0h18v18H0z" />
            </clipPath>
        </defs>
    </symbol>
</svg>