<svg xmlns="http://www.w3.org/2000/svg">
    <symbol id="icon-unsafe" viewBox="0 0 14 14">
        <path fill="currentColor"
            d="m8.4355 1.90993.29199-.657c.02095-.04708.03242-.09782.03376-.14933.00133-.05151-.0075-.10278-.02597-.150884C8.7168.904615 8.68903.860625 8.65355.823258 8.61807.78589 8.57558.755876 8.5285.73493 8.48142.713985 8.43068.702517 8.37917.701182c-.05152-.001336-.10278.007488-.15088.025967-.0481.018479-.09209.046251-.12946.081731-.03737.035479-.06739.077972-.08833.12505l-.42.944h-1.582l-.42-.944C5.5462.83885 5.46786.764469 5.37071.727149c-.09714-.03732-.20513-.034521-.30021.007782-.09508.042302-.16946.120641-.20678.217785-.03732.097144-.03452.205134.00779.300214l.29199.657c-.38653.07601-.73466.28389-.98491.58813-.25025.30423-.38707.68594-.38709 1.07987v.654h6.016v-.654c-.00002-.39393-.13684-.77564-.38709-1.07987-.25025-.30424-.59838-.51212-.98491-.58813Z" />
        <path fill="currentColor"
            d="M13.2085 7.63098h-2.354v-.816c.5832-.09423 1.1139-.39282 1.4971-.8424.3833-.44958.5942-1.02083.5949-1.6116v-.523c0-.1041-.0414-.20393-.115-.27754-.0736-.07361-.1734-.11496-.2775-.11496-.1041 0-.2039.04135-.2775.11496-.0736.07361-.115.17344-.115.27754v.523c0 .38268-.1292.75415-.3666 1.05431-.2373.30016-.569.51145-.9414.59969v-.346c-.0003-.17337-.0693-.33956-.1918-.46215-.1226-.1226-.2888-.19158-.4622-.19185h-3.006v4.577c0 .1041-.04135.20393-.11496.27754-.07361.07361-.17344.11496-.27754.11496s-.20393-.04135-.27754-.11496c-.07361-.07361-.11496-.17344-.11496-.27754v-4.577h-3.01c-.17337.00027-.33956.06925-.46216.19185-.12259.12259-.19158.28878-.19184.46215v.346c-.37214-.0889-.70341-.30074-.94023-.60125-.23682-.30052-.36534-.67213-.36477-1.05474v-.52301c0-.10409-.04135-.20393-.11496-.27754-.07361-.07361-.17344-.11496-.27754-.11496-.104098 0-.203931.04135-.277539.11496-.073608.07361-.114961.17345-.114961.27754v.52301c.000744.59077.211597 1.162.59486 1.61158.38326.44958.91393.74818 1.49714.84241v.816H.3925c-.104098 0-.203931.04135-.277539.11496C.0413526 7.81755 0 7.91739 0 8.02148c0 .1041.0413526.20393.114961.27754.073608.07361.173441.11497.277539.11497h2.354v.81599c-.58321.09423-1.11388.39283-1.49714.84242-.383263.4496-.594116 1.0208-.59486 1.6116v.523c0 .1041.041353.2039.114961.2775.073608.0736.173441.115.277539.115.1041 0 .20393-.0414.27754-.115.07361-.0736.11496-.1734.11496-.2775v-.523c.00004-.3827.1292-.7542.36657-1.0543.23737-.3002.56907-.5115.94143-.5997v.215c0 1.0752.42712 2.1063 1.18739 2.8666S5.72631 14.299 6.8015 14.299s2.10634-.4271 2.86661-1.1874c.76029-.7603 1.18739-1.7914 1.18739-2.8666v-.215c.3724.0882.7041.2995.9414.5997.2374.3001.3666.6716.3666 1.0543v.523c0 .1041.0414.2039.115.2775.0736.0736.1734.115.2775.115.1041 0 .2039-.0414.2775-.115.0736-.0736.115-.1734.115-.2775v-.523c-.0007-.5908-.2116-1.162-.5949-1.6116-.3832-.44959-.9139-.74819-1.4971-.84242v-.81599h2.352c.1041 0 .2039-.04136.2775-.11497.0736-.07361.115-.17344.115-.27754 0-.10409-.0414-.20393-.115-.27754-.0736-.07361-.1734-.11496-.2775-.11496v.002Z" />
    </symbol>

    <symbol id="icon-safe" viewBox="0 0 17 17">
        <path fill="currentColor"
            d="M8.50001.100098C3.86111.100098.100006 3.8612.100006 8.5001c0 4.6389 3.761104 8.4 8.400004 8.4 4.63889 0 8.39999-3.7611 8.39999-8.4 0-4.6389-3.7611-8.400002-8.39999-8.400002ZM13.1949 6.895l-5.29199 5.292c-.1316.1316-.3094.2051-.4949.2051s-.364-.0735-.4949-.2051l-2.4171-2.4171c-.2737-.2737-.2737-.7161 0-.9898.2737-.2737.7161-.2737.9898 0l1.9222 1.9222 4.79709-4.7971c.2737-.2737.7161-.2737.9898 0 .2737.2737.2737.7161 0 .9898Z" />
    </symbol>

    <symbol id="icon-danger" viewBox="0 0 22 22">
        <path fill="none" stroke="currentColor" stroke-linecap="round" stroke-linejoin="round"
            stroke-width="2"
            d="M18.364 18.364A9 9 0 005.636 5.636m12.728 12.728A9 9 0 015.636 5.636m12.728 12.728L5.636 5.636" />
    </symbol>
    <symbol id="icon-link" viewBox="0 0 18 18">
        <path fill="currentColor" stroke="currentColor" stroke-width=".3"
            d="M7.67341 8.12161c.10529-.10529.16444-.2481.16444-.397 0-.1489-.05915-.29171-.16444-.397s-.2481-.16444-.397-.16444c-.1489 0-.29171.05915-.397.16444l-2.97 2.96999c-.48402.5-.75211 1.1702-.74647 1.8661.00565.6959.2846 1.3616.77667 1.8537.49207.4921 1.15784.771 1.85372.7767.69587.0056 1.36608-.2625 1.86608-.7465l6.70699-6.70699c.6933-.69513 1.082-1.6372 1.0807-2.61895-.0013-.98175-.3926-1.92277-1.0877-2.61605-.6951-.69328-1.6372-1.08202-2.6189-1.0807-.9818.00131-1.92281.39257-2.61609 1.0877l-6.689 6.693c-.45091.44021-.80996.96554-1.05634 1.54559-.24639.58-.3752 1.2031-.37898 1.8332-.003786.6302.11754 1.2548.35695 1.8377.2394.583.59212 1.1126 1.03772 1.5582.44559.4456.97519.7983 1.55811 1.0377.58292.2394 1.20755.3607 1.83771.3569.63015-.0037 1.25328-.1326 1.83328-.3789.58-.2464 1.10534-.6055 1.54555-1.0564l2.96599-2.965c.1053-.1053.1645-.2481.1645-.397 0-.1489-.0592-.2917-.1645-.397s-.2481-.1644-.397-.1644c-.1489 0-.2917.0591-.397.1644l-2.96999 2.97c-.3365.3441-.73793.6181-1.18104.806-.44311.1879-.9191.2861-1.40041.2888-.4813.0027-.95836-.0901-1.40355-.2731-.44518-.1829-.84966-.4524-1.19-.7927-.34034-.3403-.60978-.7448-.79272-1.19-.18295-.4452-.27576-.9222-.27306-1.4035.0027-.4813.10085-.9573.28877-1.4004.18792-.4432.46188-.84459.80601-1.18109l6.693-6.693c.23819-.24009.52179-.43034.83419-.55962.3125-.12929.6476-.19503.9858-.19338.6824.00044 1.3368.27119 1.82.753.2401.23815.4303.52175.5596.83423.1293.31249.1951.6476.1934.98577-.0004.68237-.2712 1.33678-.753 1.82L6.85141 13.2586c-.28881.2831-.67709.4417-1.0815.4417-.40441 0-.79269-.1586-1.0815-.4417-.14316-.1414-.25683-.3098-.33441-.4954-.07758-.1857-.11753-.3849-.11753-.5861 0-.2012.03995-.4004.11753-.5861.07758-.1856.19125-.354.33441-.4954l2.984-2.96999.001-.004Z" />
    </symbol>
    <symbol id="icon-eye" viewBox="0 0 20 20" fill="none" stroke="currentColor">
        <path
            d="M1.3 10S4.45 3.67 10 3.67c5.54 0 8.7 6.33 8.7 6.33s-3.16 6.33-8.7 6.33C4.46 16.33 1.3 10 1.3 10Z" />
        <path d="M10 12.38a2.37 2.37 0 1 0 0-4.75 2.37 2.37 0 0 0 0 4.75Z" />
    </symbol>
    <symbol id="icon-arrow-down" viewBox="0 0 15 8">
        <path d="M1.76501 1.05444L7.65601 6.94544L13.5471 1.05444" stroke="currentColor" fill="none"
            stroke-width="2" stroke-linecap="round" stroke-linejoin="round" />
    </symbol>
    <symbol id="icon-loading" viewBox="0 0 24 24">
        <path fill="currentColor" stroke="none"
            d="M18.364 5.636L16.95 7.05A7 7 0 1 0 19 12h2a9 9 0 1 1-2.636-6.364z" />
    </symbol>
    <symbol id="illustration-email-sent" fill="none" viewBox="0 0 129 122">
        <path fill="#E6F4F0"
            d="M114.21 15.6c-15.78-8.87-32.73 9.02-47.95-.75-6.75-4.8-10.03-9.63-17.64-13.04C30.13-2 16.57 11.04 13.68 24.29c-2.64 9.87 6.36 16.75 13.45 30.35.11.22.2.44.28.67 3.29 9.77.85 13.83-7.46 14.16-13.4.38-22.38 10.01-17.96 22.86 9.74 18.53 31.1 27.96 53.02 28.72 26.81.91 51.5-13.98 62.45-37.39l.1-.22c7.25-19 21.26-56.02-3.35-67.85Z" />
        <path fill="#E6F4F0"
            d="M23.18 62.57c1.34-2.67 0-6.04-2.97-7.53-2.97-1.49-6.47-.53-7.8 2.14-1.34 2.67 0 6.04 2.97 7.53 2.97 1.48 6.47.53 7.8-2.14ZM80.8 12.24c1.18-2.36-1.02-5.86-4.91-7.8-3.9-1.95-8-1.61-9.19.75-1.18 2.36 1.02 5.85 4.92 7.8 3.89 1.94 8 1.6 9.18-.75Z" />
        <path fill="#A6CEB0"
            d="M105.47 55.08v42.41a8.56 8.56 0 0 1-8.58 8.58H32.11a8.59 8.59 0 0 1-8.58-8.58V55.08a8.58 8.58 0 0 1 8.58-8.58h64.78a8.58 8.58 0 0 1 8.58 8.58Z" />
        <path fill="#A6CEB0"
            d="M100.88 44C96.24 38.35 64.5 16.17 64.5 16.17S32.77 38.34 28.12 44c-4.65 5.66-4.6 8.28-4.6 11.33h81.95c0-3.05.06-5.67-4.59-11.33Z" />
        <path fill="#D9D9D9" d="M96.9 28.13H32.1v74.9h64.8v-74.9Z"
            style="mix-blend-mode:multiply" />
        <path fill="#fff" d="M94.93 26.74H34.07v74.9h60.86v-74.9Z" />
        <path fill="#3DAD57"
            d="M23.53 57.08v40.4c0 1.83.57 3.6 1.64 5.06l29.54-25.2-31.18-20.26ZM74.3 77.33l29.53 25.21a8.55 8.55 0 0 0 1.64-5.05v-40.4L74.3 77.32Z" />
        <path fill="#3DAD57"
            d="M23.53 97.49v-.12l30.31-21.09 10.66-7.4 10.65 7.4 30.32 21.09v.12a8.56 8.56 0 0 1-8.58 8.58H32.1a8.59 8.59 0 0 1-8.58-8.58Z" />
        <path fill="#D9D9D9"
            d="M53.48 76.53 23.53 97.37V95.8l29.95-19.28Zm22.04 0 29.95 20.83v-1.55L75.52 76.53Z"
            style="mix-blend-mode:multiply" />
        <path fill="#32B137"
            d="M73.74 58.04a13.06 13.06 0 1 0-18.47-18.47 13.06 13.06 0 0 0 18.47 18.47Z" />
        <path fill="#fff"
            d="M61.87 55.55a.75.75 0 0 1-.53-.22l-5.19-5.2a.75.75 0 0 1 0-1.06l1.53-1.53a.75.75 0 0 1 1.07 0l3.12 3.13 8.38-8.38a.75.75 0 0 1 1.07 0l1.53 1.53a.75.75 0 0 1 0 1.07L62.4 55.33a.74.74 0 0 1-.54.22Z" />
    </symbol>
</svg>